<svg width="226" height="195" viewBox="0 0 226 195" fill="none" xmlns="http://www.w3.org/2000/svg">
<path d="M39.6549 83.8092C40.1813 71.4826 40.6992 59.3715 41.2073 47.468C41.25 44.3606 43.6304 42.2864 45.7909 41.4244C47.756 40.64 50.3184 41.1407 49.9764 44.264C49.8152 47.758 49.6528 51.2695 49.4891 54.7999C52.3947 53.808 55.2965 52.8398 58.1972 51.8938C58.3902 47.9893 58.5832 44.1071 58.7749 40.247C58.9752 36.7086 58.5343 32.6267 55.884 31.1847C53.0542 29.6445 49.323 30.9343 46.2049 32.1259C39.4998 34.6898 32.7776 40.4958 32.4552 49.8956C31.9715 62.2856 31.4781 74.9021 30.9762 87.7485C30.5255 97.3432 36.7628 99.1687 43.3116 97.1705C50.3184 95.0329 56.491 89.2443 56.8293 79.5117C57.0308 75.4488 57.2311 71.4097 57.4302 67.3943C54.5491 68.2769 51.6667 69.1833 48.782 70.1135C48.6146 73.7406 48.4461 77.3868 48.2763 81.052C48.2336 84.1435 45.9595 86.4348 43.7598 87.0988C41.813 87.6867 39.2214 87.0053 39.6549 83.8092Z" fill="white"/>
<path d="M69.2814 25.9058C68.1726 46.7546 67.0283 68.2559 65.8474 90.443C68.6879 89.7414 71.5272 89.0635 74.364 88.4093C74.8989 78.906 75.4264 69.5309 75.9467 60.2794C78.9032 59.4986 81.856 58.7415 84.8076 58.0081C84.252 67.3737 83.689 76.8691 83.1187 86.4928C85.9519 85.9068 88.7838 85.3429 91.6133 84.8028C93.0433 61.7762 94.4282 39.4909 95.7691 17.9103C92.8602 18.7118 89.9513 19.5354 87.04 20.3828C86.5063 29.3904 85.9641 38.5183 85.4158 47.7714C82.4507 48.5444 79.4845 49.3442 76.517 50.1679C77.0311 41.0256 77.5391 32.0038 78.0398 23.1007C75.1224 24.0131 72.2025 24.9492 69.2814 25.909V25.9058Z" fill="white"/>
<path d="M106.643 14.9595C105.211 36.8592 103.729 59.4863 102.199 82.8773C108.895 81.7854 115.581 80.8376 122.259 80.0341C122.529 76.2526 122.796 72.4901 123.064 68.7483C119.188 69.2744 115.311 69.845 111.43 70.4615C111.868 64.0127 112.303 57.6241 112.733 51.2925C116.642 50.573 120.548 49.8994 124.452 49.2687C124.71 45.6504 124.966 42.0512 125.221 38.4694C121.302 39.1556 117.381 39.8863 113.455 40.6613C113.858 34.7402 114.256 28.8714 114.651 23.0518C118.602 22.1865 122.55 21.3639 126.495 20.5873C126.743 17.1181 126.988 13.6662 127.234 10.2334C123.273 11.0623 119.31 11.9355 115.345 12.8532C113.724 13.2336 112.104 13.6187 110.482 14.0101C109.202 14.3208 107.922 14.6377 106.642 14.9595H106.643Z" fill="white"/>
<path d="M137.076 8.29005C135.397 31.049 133.659 54.6002 131.859 78.9832C138.534 78.3494 145.199 77.8598 151.86 77.5128C152.171 73.5691 152.479 69.6492 152.786 65.7499C148.922 66.0145 145.056 66.3219 141.187 66.6752C141.659 60.4579 142.127 54.2944 142.591 48.1879C146.485 47.7364 150.376 47.3292 154.266 46.9663C154.564 43.1922 154.859 39.4402 155.153 35.7073C151.248 36.1287 147.342 36.593 143.432 37.1032C143.937 30.4517 144.438 23.8651 144.933 17.342C148.868 16.7336 152.8 16.1679 156.733 15.645C157.017 12.042 157.298 8.458 157.58 4.89301C153.634 5.46816 149.688 6.08609 145.739 6.7468C144.126 7.0225 142.512 7.30294 140.898 7.58973C139.624 7.81789 138.35 8.0508 137.075 8.29005H137.076Z" fill="white"/>
<path d="M180.313 53.8852C179.668 61.5148 179.015 69.2283 178.355 77.0288C181.178 77.0653 183.999 77.1239 186.82 77.2047C187.501 69.3122 188.174 61.5069 188.84 53.7902C189.669 45.6823 187.298 37.3353 180.447 35.9779C184.984 24.1163 189.508 12.4985 194.017 1.11206C191.088 1.31321 188.158 1.53654 185.228 1.78362C181.366 11.7351 177.494 21.8624 173.611 32.1719C174.439 22.1887 175.254 12.3512 176.058 2.65792C173.171 2.9652 170.284 3.29464 167.398 3.64626C165.482 27.284 163.497 51.7771 161.438 77.1761C164.257 77.1017 167.077 77.0494 169.894 77.0209C170.719 67.0742 171.531 57.2684 172.333 47.6004C173.588 47.5386 174.845 47.4832 176.1 47.4325C179.083 47.1807 180.694 50.3421 180.313 53.8868V53.8852Z" fill="white"/>
<path d="M204.419 45.7263C203.478 56.2838 202.523 67.0062 201.552 77.895C204.432 78.0868 207.31 78.3007 210.188 78.54C211.185 67.5197 212.168 56.6721 213.135 45.9925C219.659 43.8959 222.799 35.5046 223.439 27.8583C224.304 18.4433 225.157 9.15666 225.999 0C223.097 0.00158475 220.196 0.0269407 217.293 0.0744831C216.458 9.30721 215.61 18.6699 214.75 28.1641C214.49 31.4794 212.553 34.4476 209.737 34.4381C207.011 34.4286 205.652 31.1609 205.99 28.0975C206.827 18.7079 207.652 9.44667 208.467 0.31378C205.57 0.423127 202.672 0.554661 199.774 0.709966C198.997 9.57979 198.209 18.5685 197.411 27.6808C196.773 34.7693 198.307 43.3618 204.421 45.7278L204.419 45.7263Z" fill="white"/>
<path d="M12.0486 112.745C8.02098 114.313 4.00682 115.966 0 117.709C3.21597 142.232 6.55051 167.65 10.0073 194.013C12.4336 192.615 14.8648 191.255 17.3022 189.928C16.1727 180.719 15.0568 171.627 13.9554 162.649C15.2193 162.038 16.4844 161.434 17.7496 160.837C24.7462 157.745 28.5929 149.903 27.5124 140.021C26.9208 134.452 26.3353 128.927 25.7534 123.447C25.3635 119.334 24.2548 114.633 21.3335 112.607C18.505 110.644 14.9651 111.572 12.0498 112.745H12.0486ZM19.6149 142.147C20.0806 145.462 18.7054 148.152 16.3585 149.099C15.0751 149.677 13.7916 150.261 12.5082 150.855C11.4594 142.307 10.4229 133.863 9.39978 125.52C10.7223 124.968 12.0449 124.421 13.3699 123.883C15.5897 122.852 17.6909 124.1 17.9317 127.424C18.4891 132.298 19.0501 137.205 19.6161 142.148L19.6149 142.147Z" fill="white"/>
<path d="M32.6641 105.708C34.9677 129.323 37.352 153.773 39.8231 179.106C45.7515 176.623 51.7068 174.367 57.6988 172.335C57.3884 168.392 57.0804 164.472 56.7749 160.573C53.2491 161.695 49.7356 162.888 46.2281 164.15C45.6171 157.323 45.0109 150.561 44.4121 143.864C48.0014 142.696 51.5968 141.6 55.2032 140.574C54.9075 136.805 54.613 133.058 54.3197 129.329C50.668 130.302 47.0274 131.345 43.3917 132.461C42.8417 126.313 42.2954 120.221 41.7553 114.183C45.4643 113.15 49.1783 112.19 52.9033 111.301C52.6234 107.742 52.3448 104.2 52.0686 100.677C45.5743 102.127 39.1094 103.803 32.6653 105.708H32.6641Z" fill="white"/>
<path d="M84.6409 95.5606C76.1061 96.3723 67.614 97.5725 59.1562 99.1644C59.4071 102.66 59.6592 106.174 59.9137 109.706C62.7415 109.131 65.5718 108.595 68.4082 108.099C69.644 127.491 70.9154 147.444 72.2247 167.98C74.7772 167.31 77.3334 166.674 79.8944 166.073C78.7565 145.758 77.6503 126.018 76.5747 106.825C79.4246 106.437 82.2769 106.087 85.1341 105.776C84.9701 102.353 84.8061 98.9472 84.6434 95.559L84.6409 95.5606Z" fill="white"/>
<path d="M91.8293 94.9803C92.7368 116.942 93.6736 139.631 94.6432 163.085C100.769 162.098 106.916 161.336 113.09 160.796C113.005 157.158 112.92 153.54 112.835 149.939C109.225 150.192 105.626 150.515 102.031 150.908C101.818 144.592 101.606 138.334 101.396 132.129C105.058 131.833 108.724 131.607 112.399 131.45C112.317 127.961 112.234 124.49 112.154 121.038C108.442 121.142 104.739 121.315 101.04 121.559C100.847 115.855 100.656 110.199 100.466 104.589C104.225 104.428 107.988 104.339 111.759 104.32C111.681 101.015 111.603 97.7275 111.526 94.4543C104.94 94.4052 98.3768 94.5795 91.8281 94.9803H91.8293Z" fill="white"/>
<path d="M115.832 93.5575C115.933 98.6431 116.035 103.767 116.137 108.929C118.92 108.96 121.704 109.029 124.491 109.132C124.429 104.026 124.365 98.9576 124.303 93.9276C121.476 93.7671 118.653 93.6448 115.832 93.5575Z" fill="white"/>
<path d="M128.44 107.848C128.478 112.168 128.516 116.515 128.554 120.89C134.107 126.157 139.648 131.571 145.179 137.137C145.16 140.064 145.142 143.005 145.124 145.958C145.201 149.141 143.209 150.571 141.037 150.474C138.924 150.381 136.705 148.734 136.864 145.496C136.86 142.259 136.855 139.037 136.851 135.829C134.124 135.694 131.402 135.594 128.682 135.529C128.714 139.125 128.746 142.739 128.777 146.373C128.763 150.229 129.479 154.777 132.026 157.535C134.61 160.335 138.028 160.645 141.012 160.742C147.559 160.952 153.309 157.228 153.296 147.713C153.361 142.996 153.424 138.312 153.488 133.658C147.945 127.821 142.394 122.138 136.828 116.605C136.825 114.168 136.822 111.739 136.818 109.319C136.683 106.073 139.033 105.141 141.151 105.37C143.167 105.589 145.531 107.093 145.349 110.209C145.332 112.884 145.316 115.568 145.299 118.263C148.091 118.578 150.885 118.931 153.683 119.319C153.724 116.375 153.764 113.444 153.803 110.524C153.994 101.12 147.543 96.6166 141.175 95.8914C134.609 95.144 128.122 98.1368 128.441 107.851L128.44 107.848Z" fill="white"/>
</svg>
