<svg width="1036" height="629" viewBox="0 0 1036 629" fill="none" xmlns="http://www.w3.org/2000/svg">
<path d="M60.6853 628.797L54.7036 386.853L95.2548 385.85C151.141 384.469 179.11 412.419 180.188 456.037C181.3 501.018 155.188 534.397 99.3026 535.779L101.577 627.786L60.6853 628.797ZM107.892 497.037C129.02 496.514 139.604 483.295 139.014 459.442C138.424 435.588 127.217 423.59 106.089 424.113L96.5476 424.348L98.3506 497.272L107.892 497.037Z" fill="#551405"/>
<path d="M194.058 625.5L228.968 382.544L283.491 381.196L330.365 622.13L289.473 623.141L281.945 580.705L239.008 581.766L233.587 624.522L194.058 625.5ZM241.473 543.516L277.594 542.623L256.61 424.824L241.473 543.516Z" fill="#551405"/>
<path d="M6.20335 359.507L0 108.598L53.7158 107.27C98.5967 106.16 123.23 129.95 124.218 169.884C124.751 191.441 118.587 213.87 93.4743 227.928C119.552 238.599 129.953 258.851 130.644 286.77C131.631 326.703 107.274 357.008 56.0318 358.275L6.20335 359.507ZM60.1056 322.814C78.8355 322.351 88.7169 307.255 88.1403 283.931C87.5461 259.9 76.9919 247.785 58.2621 248.248L45.8933 248.553L47.7368 323.119L60.1056 322.814ZM58.1126 213.598C72.9552 213.231 83.2861 202.013 82.6658 176.922C82.0454 151.831 71.199 142.199 56.3565 142.566L43.2809 142.889L45.0371 213.921L58.1126 213.598Z" fill="#551405"/>
<path d="M153.836 355.857L190.04 103.899L246.583 102.501L295.194 352.362L252.786 353.411L244.98 309.403L200.452 310.504L194.83 354.844L153.836 355.857ZM203.008 270.836L240.467 269.91L218.706 147.745L203.008 270.836Z" fill="#551405"/>
<path d="M817.645 248.014L853.085 1.36846L908.436 0L956.022 244.593L914.509 245.619L906.867 202.539L863.278 203.617L857.774 247.022L817.645 248.014ZM865.779 164.786L902.449 163.879L881.146 44.2901L865.779 164.786Z" fill="#551405"/>
<path d="M916.383 595.981L909.106 301.662L1027.25 298.742L1028.41 345.584L960.008 347.275L961.863 422.305L1018.65 420.901L1019.79 466.914L963.001 468.318L964.969 547.909L1034.2 546.197L1035.35 593.039L916.383 595.981Z" fill="#551405"/>
<path d="M747.964 553.794L741.798 304.408L783.948 303.366L786.493 406.281L801.948 405.899L832.069 302.176L873.516 301.151L836.401 420.512L882.843 550.459L840.342 551.51L803.631 445.573L787.474 445.972L790.114 552.752L747.964 553.794Z" fill="#551405"/>
<path d="M350.103 626.994L344.455 398.554L388.213 397.472L432.444 545.76L428.753 396.47L464.789 395.579L470.436 624.018L426.679 625.1L382.448 476.812L386.139 626.103L350.103 626.994Z" fill="#551405"/>
<path d="M550.005 564.648C517.725 565.446 498.333 532.28 496.737 467.72C495.141 403.16 513.139 369.069 547.033 368.231C575.548 367.526 589.765 387.362 594.606 441.614L565.909 445.822C562.859 409.56 557.745 398.651 547.792 398.897C535.418 399.203 528.331 417.412 529.555 466.909C530.779 516.405 538.756 534.242 551.13 533.936C561.083 533.69 566.453 522.252 567.714 486.153L596.583 488.938C594.41 542.556 579.057 563.93 550.005 564.648Z" fill="#551405"/>
<path d="M612.87 560.402L640.429 368.614L683.469 367.55L720.471 557.742L688.191 558.54L682.248 525.041L648.354 525.879L644.074 559.631L612.87 560.402ZM650.299 495.685L678.813 494.98L662.249 401.989L650.299 495.685Z" fill="#551405"/>
<path d="M663.655 272.051L657.245 12.7856L706.907 11.5578L757.106 179.855L752.917 10.4202L793.815 9.4091L800.225 268.674L750.563 269.902L700.364 101.604L704.553 271.039L663.655 272.051Z" fill="#551405"/>
<path d="M317.089 347.795L310.304 73.39L362.866 72.0905L415.997 250.216L411.564 70.8865L454.85 69.8163L461.634 344.221L409.072 345.521L355.941 167.395L360.375 346.725L317.089 347.795Z" fill="#551405"/>
<path d="M492.511 343.458L532.105 67.9063L593.943 66.3775L647.105 339.636L600.727 340.782L592.189 292.653L543.492 293.857L537.343 342.349L492.511 343.458ZM546.287 250.475L587.254 249.462L563.455 115.858L546.287 250.475Z" fill="#551405"/>
</svg>
