<svg width="1601" height="155" viewBox="0 0 1601 155" fill="none" xmlns="http://www.w3.org/2000/svg">
<rect x="0.309814" width="1600" height="155" fill="#4D0F00"/>
<path d="M534.355 84.4854L533.915 77.238L538.854 76.9387L536.973 45.8966L531.521 46.227L531.98 38.9252L544.23 38.1828L546.55 76.4722L551.232 76.1885L551.672 83.4359L534.355 84.4854Z" fill="white"/>
<path d="M567.202 83.1384C559.442 83.6087 554.995 76.0893 554.062 60.6965C553.114 45.0472 556.797 36.7774 564.621 36.3032C571.035 35.9145 574.186 40.1009 575.999 49.8399L569.187 51.0896C568.339 45.605 567.245 43.4826 565.065 43.6148C562.499 43.7703 561.086 47.0102 561.578 58.3098C562.876 56.3644 564.802 55.2177 567.304 55.0661C572.755 54.7357 576.959 59.3088 577.495 68.1596C578.032 77.0104 573.937 82.7303 567.202 83.1384ZM566.695 75.8307C568.876 75.6985 570.18 72.7871 569.916 68.4259C569.679 64.5135 568.085 61.5847 565.712 61.7285C563.275 61.8762 562.107 64.9081 562.336 68.6921C562.6 73.0534 564.386 75.9706 566.695 75.8307Z" fill="white"/>
<path d="M596.189 81.3817C588.172 81.8675 583.132 74.1265 582.203 58.7979C581.27 43.4051 585.398 35.0441 593.415 34.5582C600.214 34.1462 603.996 39.1955 605.45 50.4369L598.641 51.7507C597.753 44.5305 596.167 41.7298 593.794 41.8736C590.844 42.0524 589.324 46.715 590.024 58.2596C590.727 69.8683 592.988 74.2373 595.938 74.0584C598.568 73.8991 599.769 70.3502 599.559 62.6383L594.877 62.9221L594.465 56.1236L606.587 55.389L606.715 57.5055C607.644 72.8341 604.077 80.9036 596.189 81.3817Z" fill="white"/>
<path d="M534.74 111.512L533.541 91.7326L536.856 91.5317C541.425 91.2548 543.795 93.4598 544.011 97.0256C544.234 100.703 542.195 103.511 537.627 103.787L538.083 111.309L534.74 111.512ZM538.216 100.592C539.943 100.488 540.77 99.3749 540.652 97.4249C540.534 95.4748 539.582 94.526 537.855 94.6307L537.075 94.6779L537.436 100.64L538.216 100.592Z" fill="white"/>
<path d="M547.294 110.751L546.095 90.9718L549.466 90.7675C553.923 90.4973 556.162 92.3748 556.368 95.7734C556.505 98.0299 555.631 99.7605 553.434 100.872C554.378 101.234 554.762 102.022 555.259 103.306L557.852 110.111L554.398 110.32L551.935 103.368C551.664 102.573 551.312 102.315 550.616 102.357L550.142 102.386L550.637 110.548L547.294 110.751ZM550.716 99.3873C552.387 99.286 553.157 98.1489 553.049 96.366C552.941 94.5831 552.076 93.6849 550.376 93.7879L549.624 93.8335L549.963 99.4329L550.716 99.3873Z" fill="white"/>
<path d="M564.936 109.961C561.482 110.17 559.262 106.754 558.86 100.124C558.458 93.4938 560.249 89.8344 563.704 89.625C567.158 89.4156 569.378 92.832 569.78 99.4622C570.182 106.092 568.391 109.752 564.936 109.961ZM564.744 106.785C566.053 106.706 566.692 104.794 566.382 99.6681C566.071 94.5423 565.206 92.7214 563.896 92.8008C562.587 92.8801 561.948 94.7922 562.259 99.918C562.569 105.044 563.435 106.865 564.744 106.785Z" fill="white"/>
<path d="M574.606 109.096L573.598 92.4645L570.84 92.6316L570.649 89.4837L579.508 88.9468L579.699 92.0947L576.941 92.2619L577.949 108.893L574.606 109.096Z" fill="white"/>
<path d="M583.298 108.569L582.099 88.7897L590.039 88.3086L590.23 91.4565L585.633 91.7351L585.939 96.7773L589.755 96.546L589.943 99.6382L586.126 99.8695L586.45 105.218L591.102 104.936L591.293 108.084L583.298 108.569Z" fill="white"/>
<path d="M594.03 107.918L592.831 88.1393L596.174 87.9367L597.373 107.716L594.03 107.918Z" fill="white"/>
<path d="M600.436 107.53L599.237 87.7511L603.026 87.5215L607.319 100.235L606.536 87.3088L609.656 87.1197L610.855 106.899L607.066 107.128L602.773 94.415L603.556 107.341L600.436 107.53Z" fill="white"/>
<path d="M1142.65 84.4854L1142.21 77.238L1147.15 76.9387L1145.27 45.8966L1139.82 46.227L1140.28 38.9252L1152.53 38.1828L1154.85 76.4722L1159.53 76.1885L1159.97 83.4359L1142.65 84.4854Z" fill="white"/>
<path d="M1175.5 83.1384C1167.74 83.6087 1163.29 76.0893 1162.36 60.6965C1161.41 45.0472 1165.09 36.7774 1172.92 36.3032C1179.33 35.9145 1182.48 40.1009 1184.3 49.8399L1177.48 51.0896C1176.64 45.605 1175.54 43.4826 1173.36 43.6148C1170.8 43.7703 1169.38 47.0102 1169.87 58.3098C1171.17 56.3644 1173.1 55.2177 1175.6 55.0661C1181.05 54.7357 1185.26 59.3088 1185.79 68.1596C1186.33 77.0104 1182.23 82.7303 1175.5 83.1384ZM1174.99 75.8307C1177.17 75.6985 1178.48 72.7871 1178.21 68.4259C1177.98 64.5135 1176.38 61.5847 1174.01 61.7285C1171.57 61.8762 1170.4 64.9081 1170.63 68.6921C1170.9 73.0534 1172.68 75.9706 1174.99 75.8307Z" fill="white"/>
<path d="M1204.49 81.3817C1196.47 81.8675 1191.43 74.1265 1190.5 58.7979C1189.57 43.4051 1193.69 35.0441 1201.71 34.5582C1208.51 34.1462 1212.29 39.1955 1213.75 50.4369L1206.94 51.7507C1206.05 44.5305 1204.46 41.7298 1202.09 41.8736C1199.14 42.0524 1197.62 46.715 1198.32 58.2596C1199.02 69.8683 1201.28 74.2373 1204.23 74.0584C1206.86 73.8991 1208.07 70.3502 1207.86 62.6383L1203.17 62.9221L1202.76 56.1236L1214.88 55.389L1215.01 57.5055C1215.94 72.8341 1212.37 80.9036 1204.49 81.3817Z" fill="white"/>
<path d="M1143.04 111.512L1141.84 91.7326L1145.15 91.5317C1149.72 91.2548 1152.09 93.4598 1152.31 97.0256C1152.53 100.703 1150.49 103.511 1145.92 103.787L1146.38 111.309L1143.04 111.512ZM1146.51 100.592C1148.24 100.488 1149.07 99.3749 1148.95 97.4249C1148.83 95.4748 1147.88 94.526 1146.15 94.6307L1145.37 94.6779L1145.73 100.64L1146.51 100.592Z" fill="white"/>
<path d="M1155.59 110.751L1154.39 90.9718L1157.76 90.7675C1162.22 90.4973 1164.46 92.3748 1164.66 95.7734C1164.8 98.0299 1163.93 99.7605 1161.73 100.872C1162.68 101.234 1163.06 102.022 1163.56 103.306L1166.15 110.111L1162.69 110.32L1160.23 103.368C1159.96 102.573 1159.61 102.315 1158.91 102.357L1158.44 102.386L1158.93 110.548L1155.59 110.751ZM1159.01 99.3873C1160.68 99.286 1161.45 98.1489 1161.35 96.366C1161.24 94.5831 1160.37 93.6849 1158.67 93.7879L1157.92 93.8335L1158.26 99.4329L1159.01 99.3873Z" fill="white"/>
<path d="M1173.23 109.961C1169.78 110.17 1167.56 106.754 1167.16 100.124C1166.75 93.4938 1168.55 89.8344 1172 89.625C1175.45 89.4156 1177.67 92.832 1178.08 99.4622C1178.48 106.092 1176.69 109.752 1173.23 109.961ZM1173.04 106.785C1174.35 106.706 1174.99 104.794 1174.68 99.6681C1174.37 94.5423 1173.5 92.7214 1172.19 92.8008C1170.88 92.8801 1170.24 94.7922 1170.56 99.918C1170.87 105.044 1171.73 106.865 1173.04 106.785Z" fill="white"/>
<path d="M1182.9 109.096L1181.89 92.4645L1179.14 92.6316L1178.95 89.4837L1187.8 88.9468L1188 92.0947L1185.24 92.2619L1186.25 108.893L1182.9 109.096Z" fill="white"/>
<path d="M1191.59 108.569L1190.4 88.7897L1198.34 88.3086L1198.53 91.4565L1193.93 91.7351L1194.24 96.7773L1198.05 96.546L1198.24 99.6382L1194.42 99.8695L1194.75 105.218L1199.4 104.936L1199.59 108.084L1191.59 108.569Z" fill="white"/>
<path d="M1202.33 107.918L1201.13 88.1393L1204.47 87.9367L1205.67 107.716L1202.33 107.918Z" fill="white"/>
<path d="M1208.73 107.53L1207.53 87.7511L1211.32 87.5215L1215.62 100.235L1214.83 87.3088L1217.95 87.1197L1219.15 106.899L1215.36 107.128L1211.07 94.415L1211.85 107.341L1208.73 107.53Z" fill="white"/>
<path d="M987.537 84.6096L991.805 39.1893L1000.51 40.0069L1005.78 70.4476L1008.57 40.7645L1015.73 41.4378L1011.46 86.8582L1002.76 86.0405L997.491 55.5998L994.702 85.283L987.537 84.6096Z" fill="white"/>
<path d="M1030.14 89.2587C1022.21 88.5132 1018.36 79.9558 1019.79 64.7304C1021.22 49.505 1026.59 41.8134 1034.53 42.5589C1042.46 43.3044 1046.3 51.8617 1044.87 67.0872C1043.44 82.3126 1038.07 90.0042 1030.14 89.2587ZM1030.82 81.9658C1033.83 82.2484 1035.96 78.1246 1037.07 66.3537C1038.17 54.5828 1036.85 50.1343 1033.84 49.8517C1030.83 49.5692 1028.7 53.693 1027.6 65.4639C1026.49 77.2348 1027.82 81.6833 1030.82 81.9658Z" fill="white"/>
<path d="M971.798 110.53C968.936 110.261 967.484 108.106 967.305 103.744L970.312 103.663C970.325 106.215 970.845 107.245 971.901 107.344C972.734 107.422 973.294 106.83 973.399 105.719C973.744 102.051 968.055 99.9463 968.554 94.6391C968.809 91.9161 970.814 89.9741 973.537 90.23C976.482 90.5068 977.888 92.8534 977.779 96.9919L974.772 97.0737C974.835 94.6128 974.351 93.5021 973.351 93.4081C972.573 93.3349 971.987 93.8966 971.885 94.9803C971.551 98.537 977.237 100.669 976.736 106.004C976.454 109.005 974.493 110.783 971.798 110.53Z" fill="white"/>
<path d="M979.054 110.931L980.908 91.2031L988.828 91.9473L988.533 95.0872L983.948 94.6563L983.475 99.6856L987.282 100.043L986.992 103.128L983.185 102.77L982.684 108.105L987.324 108.541L987.029 111.681L979.054 110.931Z" fill="white"/>
<path d="M989.759 111.937L991.613 92.2091L999.532 92.9533L999.237 96.0932L994.652 95.6623L994.179 100.692L997.986 101.049L997.696 104.134L993.89 103.776L993.388 109.111L998.028 109.547L997.733 112.687L989.759 111.937Z" fill="white"/>
<path d="M1000.46 112.943L1002.32 93.2151L1006.29 93.5885C1010.74 94.0063 1012.48 97.5061 1011.87 104.064C1011.25 110.621 1008.88 113.735 1004.44 113.317L1000.46 112.943ZM1004.93 110.195C1006.87 110.378 1008.01 108.691 1008.48 103.745C1008.94 98.7992 1008.13 96.9294 1006.19 96.7466L1005.36 96.6683L1004.09 110.117L1004.93 110.195Z" fill="white"/>
<path d="M1024.24 115.459C1020.8 115.135 1019.13 111.418 1019.75 104.805C1020.37 98.1917 1022.7 94.8508 1026.15 95.1746C1029.6 95.4984 1031.26 99.2153 1030.64 105.828C1030.02 112.442 1027.69 115.783 1024.24 115.459ZM1024.54 112.291C1025.85 112.414 1026.77 110.623 1027.25 105.51C1027.73 100.397 1027.16 98.465 1025.85 98.3423C1024.55 98.2195 1023.62 100.011 1023.14 105.123C1022.66 110.236 1023.24 112.168 1024.54 112.291Z" fill="white"/>
<path d="M1032.41 115.946L1034.27 96.2178L1037.6 96.5311L1035.75 116.259L1032.41 115.946Z" fill="white"/>
<path d="M1038.8 116.547L1040.66 96.8183L1043.99 97.1316L1042.43 113.72L1046.66 114.117L1046.36 117.257L1038.8 116.547Z" fill="white"/>
<path d="M1053.01 118.162C1050.15 117.893 1048.7 115.738 1048.52 111.377L1051.52 111.295C1051.54 113.847 1052.06 114.877 1053.11 114.976C1053.95 115.054 1054.51 114.462 1054.61 113.351C1054.95 109.683 1049.27 107.579 1049.76 102.271C1050.02 99.5484 1052.03 97.6064 1054.75 97.8623C1057.69 98.1391 1059.1 100.486 1058.99 104.624L1055.98 104.706C1056.05 102.245 1055.56 101.134 1054.56 101.04C1053.78 100.967 1053.2 101.529 1053.1 102.613C1052.76 106.169 1058.45 108.301 1057.95 113.636C1057.67 116.637 1055.7 118.415 1053.01 118.162Z" fill="white"/>
<path d="M356.833 84.6096L361.102 39.1893L369.802 40.0069L375.073 70.4476L377.863 40.7645L385.028 41.4378L380.759 86.8582L372.059 86.0405L366.788 55.5998L363.998 85.283L356.833 84.6096Z" fill="white"/>
<path d="M399.434 89.2587C391.502 88.5132 387.659 79.9558 389.09 64.7304C390.521 49.505 395.891 41.8134 403.823 42.5589C411.756 43.3044 415.598 51.8617 414.167 67.0872C412.736 82.3126 407.367 90.0042 399.434 89.2587ZM400.12 81.9658C403.126 82.2484 405.256 78.1246 406.363 66.3537C407.469 54.5828 406.145 50.1343 403.138 49.8517C400.131 49.5692 398.001 53.693 396.895 65.4639C395.789 77.2348 397.113 81.6833 400.12 81.9658Z" fill="white"/>
<path d="M341.094 110.53C338.232 110.261 336.781 108.106 336.602 103.744L339.609 103.663C339.622 106.215 340.141 107.245 341.197 107.344C342.031 107.422 342.591 106.83 342.696 105.719C343.04 102.051 337.351 99.9463 337.85 94.6391C338.106 91.9161 340.111 89.9741 342.834 90.23C345.779 90.5068 347.184 92.8534 347.076 96.9919L344.069 97.0737C344.132 94.6128 343.647 93.5021 342.647 93.4081C341.869 93.3349 341.284 93.8966 341.182 94.9803C340.848 98.537 346.534 100.669 346.033 106.004C345.751 109.005 343.789 110.783 341.094 110.53Z" fill="white"/>
<path d="M348.351 110.931L350.205 91.2031L358.124 91.9473L357.829 95.0872L353.244 94.6563L352.772 99.6856L356.578 100.043L356.289 103.128L352.482 102.77L351.98 108.105L356.621 108.541L356.326 111.681L348.351 110.931Z" fill="white"/>
<path d="M359.055 111.937L360.909 92.2091L368.828 92.9533L368.533 96.0932L363.949 95.6623L363.476 100.692L367.283 101.049L366.993 104.134L363.186 103.776L362.685 109.111L367.325 109.547L367.03 112.687L359.055 111.937Z" fill="white"/>
<path d="M369.76 112.943L371.614 93.2151L375.587 93.5885C380.033 94.0063 381.778 97.5061 381.162 104.064C380.546 110.621 378.179 113.735 373.733 113.317L369.76 112.943ZM374.223 110.195C376.168 110.378 377.307 108.691 377.772 103.745C378.237 98.7992 377.432 96.9294 375.487 96.7466L374.653 96.6683L373.389 110.117L374.223 110.195Z" fill="white"/>
<path d="M393.541 115.459C390.095 115.135 388.426 111.418 389.048 104.805C389.669 98.1917 392.001 94.8508 395.447 95.1746C398.892 95.4984 400.561 99.2153 399.94 105.828C399.318 112.442 396.986 115.783 393.541 115.459ZM393.838 112.291C395.144 112.414 396.069 110.623 396.55 105.51C397.03 100.397 396.455 98.465 395.149 98.3423C393.843 98.2195 392.918 100.011 392.437 105.123C391.957 110.236 392.532 112.168 393.838 112.291Z" fill="white"/>
<path d="M401.71 115.946L403.564 96.2178L406.898 96.5311L405.044 116.259L401.71 115.946Z" fill="white"/>
<path d="M408.099 116.547L409.953 96.8183L413.288 97.1316L411.729 113.72L415.952 114.117L415.657 117.257L408.099 116.547Z" fill="white"/>
<path d="M422.305 118.162C419.443 117.893 417.992 115.738 417.813 111.377L420.82 111.295C420.833 113.847 421.353 114.877 422.409 114.976C423.242 115.054 423.802 114.462 423.907 113.351C424.251 109.683 418.563 107.579 419.061 102.271C419.317 99.5484 421.322 97.6064 424.045 97.8623C426.99 98.1391 428.396 100.486 428.287 104.624L425.28 104.706C425.343 102.245 424.859 101.134 423.858 101.04C423.08 100.967 422.495 101.529 422.393 102.613C422.059 106.169 427.745 108.301 427.244 113.636C426.962 116.637 425.001 118.415 422.305 118.162Z" fill="white"/>
<path d="M772.919 73.0846L773.109 27.4646L781.847 27.5009L789.819 57.3483L789.943 27.5346L797.139 27.5645L796.95 73.1844L788.211 73.1482L780.239 43.3009L780.115 73.1145L772.919 73.0846Z" fill="white"/>
<path d="M815.765 73.9052C807.797 73.8721 803.205 65.6927 803.269 50.4004C803.332 35.108 807.992 26.967 815.96 27.0001C823.927 27.0332 828.52 35.2127 828.456 50.505C828.393 65.7974 823.732 73.9383 815.765 73.9052ZM815.795 66.5803C818.815 66.5928 820.568 62.2951 820.617 50.4725C820.666 38.6498 818.949 34.3376 815.929 34.325C812.909 34.3125 811.157 38.6103 811.108 50.4329C811.058 62.2556 812.775 66.5677 815.795 66.5803Z" fill="white"/>
<path d="M750.556 99.9919L753.987 80.1907L758.453 80.2093L761.719 100.038L758.37 100.024L757.855 96.5336L754.338 96.519L753.793 100.005L750.556 99.9919ZM754.63 93.3944L757.588 93.4067L756.15 83.7162L754.63 93.3944Z" fill="white"/>
<path d="M763.943 100.048L764.025 80.2324L767.402 80.2465C771.867 80.265 773.98 82.2833 773.966 85.6881C773.956 87.9487 772.973 89.6192 770.708 90.5866C771.627 91.009 771.959 91.8198 772.372 93.1332L774.52 100.091L771.059 100.077L769.051 92.9799C768.832 92.1696 768.498 91.8891 767.8 91.8862L767.326 91.8842L767.292 100.061L763.943 100.048ZM768.091 88.929C769.766 88.936 770.608 87.8511 770.615 86.0649C770.623 84.2788 769.817 83.3265 768.115 83.3194L767.361 83.3163L767.338 88.9259L768.091 88.929Z" fill="white"/>
<path d="M778.563 100.108L778.632 83.4469L775.87 83.4354L775.883 80.2817L784.758 80.3186L784.744 83.4723L781.982 83.4608L781.912 100.122L778.563 100.108Z" fill="white"/>
<path d="M787.271 100.144L787.354 80.3294L790.703 80.3433L790.62 100.158L787.271 100.144Z" fill="white"/>
<path d="M793.689 100.171L793.772 80.356L801.446 80.3879L801.433 83.5416L797.108 83.5236L797.086 88.6588L800.77 88.6741L800.757 91.7999L797.073 91.7846L797.038 100.185L793.689 100.171Z" fill="white"/>
<path d="M803.814 100.213L803.896 80.3981L807.245 80.412L807.163 100.227L803.814 100.213Z" fill="white"/>
<path d="M815.142 100.539C811.793 100.525 809.882 97.0289 809.91 90.3308C809.938 83.6327 811.906 80.1523 815.422 80.1669C818.381 80.1792 819.795 82.2782 820.135 87.9173L817.147 88.2677C816.939 84.4991 816.442 83.3528 815.409 83.3485C814.125 83.3431 813.336 85.2098 813.315 90.345C813.294 95.4801 814.067 97.3533 815.351 97.3586C816.384 97.3629 816.975 96.1932 817.213 92.4543L820.198 92.8296C819.812 98.3819 818.157 100.552 815.142 100.539Z" fill="white"/>
<path d="M822.809 100.292L822.891 80.477L826.24 80.4909L826.158 100.306L822.809 100.292Z" fill="white"/>
<path d="M828.39 100.315L831.822 80.5141L836.287 80.5327L839.554 100.362L836.205 100.348L835.689 96.857L832.173 96.8424L831.628 100.329L828.39 100.315ZM832.465 93.7178L835.423 93.7301L833.984 84.0397L832.465 93.7178Z" fill="white"/>
<path d="M841.777 100.371L841.859 80.5558L845.208 80.5698L845.139 97.2312L849.381 97.2488L849.368 100.402L841.777 100.371Z" fill="white"/>
<path d="M751.391 128.275C748.516 128.263 746.878 126.247 746.31 121.918L749.298 121.568C749.538 124.109 750.148 125.088 751.209 125.092C752.046 125.096 752.551 124.456 752.556 123.34C752.571 119.656 746.717 118.068 746.739 112.738C746.75 110.003 748.573 107.889 751.308 107.901C754.266 107.913 755.876 110.125 756.138 114.256L753.15 114.607C752.993 112.15 752.411 111.087 751.406 111.083C750.625 111.08 750.092 111.691 750.088 112.78C750.073 116.352 755.927 117.967 755.905 123.326C755.892 126.34 754.098 128.286 751.391 128.275Z" fill="white"/>
<path d="M759.633 128.03L757.957 108.207L761.166 108.221L762.137 123.1L764.022 112.754L766.757 112.765L768.556 123.099L769.65 108.256L772.86 108.269L771.019 128.077L767.14 128.061L765.368 118.034L763.512 128.046L759.633 128.03Z" fill="white"/>
<path d="M775.184 128.094L775.266 108.279L783.22 108.312L783.207 111.466L778.602 111.447L778.581 116.498L782.405 116.514L782.392 119.612L778.568 119.596L778.546 124.955L783.207 124.974L783.194 128.128L775.184 128.094Z" fill="white"/>
<path d="M785.935 128.139L786.017 108.324L793.971 108.357L793.958 111.511L789.353 111.492L789.332 116.543L793.156 116.559L793.143 119.657L789.32 119.641L789.297 124.999L793.958 125.019L793.945 128.172L785.935 128.139Z" fill="white"/>
<path d="M798.839 128.193L798.908 111.531L796.145 111.52L796.158 108.366L805.033 108.403L805.02 111.557L802.257 111.545L802.188 128.207L798.839 128.193Z" fill="white"/>
<path d="M807.547 128.229L807.629 108.414L811.425 108.43L814.887 121.394L814.941 108.444L818.067 108.457L817.985 128.272L814.189 128.257L810.726 115.292L810.673 128.242L807.547 128.229Z" fill="white"/>
<path d="M821.051 128.285L821.133 108.47L829.087 108.503L829.074 111.657L824.469 111.638L824.448 116.689L828.272 116.705L828.259 119.803L824.435 119.787L824.413 125.145L829.074 125.165L829.061 128.318L821.051 128.285Z" fill="white"/>
<path d="M831.802 128.33L831.885 108.515L835.262 108.529C839.727 108.547 841.84 110.565 841.825 113.97C841.816 116.231 840.832 117.901 838.568 118.869C839.487 119.291 839.818 120.102 840.232 121.415L842.38 128.374L838.919 128.359L836.911 121.262C836.691 120.452 836.357 120.171 835.66 120.168L835.185 120.166L835.151 128.344L831.802 128.33ZM835.951 117.211C837.626 117.218 838.467 116.133 838.475 114.347C838.482 112.561 837.677 111.609 835.974 111.602L835.221 111.599L835.198 117.208L835.951 117.211Z" fill="white"/>
<path d="M849.067 128.681C846.192 128.669 844.554 126.652 843.986 122.324L846.973 121.974C847.214 124.514 847.824 125.494 848.884 125.498C849.722 125.502 850.227 124.862 850.231 123.746C850.247 120.062 844.392 118.474 844.414 113.144C844.426 110.409 846.249 108.295 848.984 108.307C851.942 108.319 853.552 110.53 853.813 114.662L850.826 115.012C850.669 112.556 850.087 111.493 849.082 111.489C848.301 111.485 847.768 112.097 847.763 113.186C847.749 116.758 853.603 118.373 853.58 123.731C853.568 126.746 851.774 128.692 849.067 128.681Z" fill="white"/>
<path d="M142.216 73.0846L142.405 27.4646L151.144 27.5009L159.116 57.3483L159.24 27.5346L166.436 27.5645L166.246 73.1844L157.508 73.1482L149.536 43.3009L149.412 73.1145L142.216 73.0846Z" fill="white"/>
<path d="M185.062 73.9052C177.094 73.8721 172.502 65.6927 172.565 50.4004C172.629 35.108 177.289 26.967 185.256 27.0001C193.224 27.0332 197.816 35.2127 197.753 50.505C197.689 65.7974 193.029 73.9383 185.062 73.9052ZM185.092 66.5803C188.112 66.5928 189.865 62.2951 189.914 50.4725C189.963 38.6498 188.246 34.3376 185.226 34.325C182.206 34.3125 180.453 38.6103 180.404 50.4329C180.355 62.2556 182.072 66.5677 185.092 66.5803Z" fill="white"/>
<path d="M119.853 99.9919L123.284 80.1907L127.749 80.2093L131.016 100.038L127.667 100.024L127.151 96.5336L123.635 96.519L123.09 100.005L119.853 99.9919ZM123.927 93.3944L126.885 93.4067L125.446 83.7162L123.927 93.3944Z" fill="white"/>
<path d="M133.239 100.048L133.322 80.2324L136.699 80.2465C141.164 80.265 143.277 82.2833 143.262 85.6881C143.253 87.9487 142.269 89.6192 140.005 90.5866C140.924 91.009 141.255 91.8198 141.669 93.1332L143.817 100.091L140.356 100.077L138.348 92.9799C138.128 92.1696 137.794 91.8891 137.097 91.8862L136.622 91.8842L136.588 100.061L133.239 100.048ZM137.388 88.929C139.063 88.936 139.904 87.8511 139.912 86.0649C139.919 84.2788 139.114 83.3265 137.411 83.3194L136.658 83.3163L136.635 88.9259L137.388 88.929Z" fill="white"/>
<path d="M147.86 100.108L147.929 83.4469L145.166 83.4354L145.179 80.2817L154.054 80.3186L154.041 83.4723L151.278 83.4608L151.209 100.122L147.86 100.108Z" fill="white"/>
<path d="M156.568 100.144L156.65 80.3294L159.999 80.3433L159.917 100.158L156.568 100.144Z" fill="white"/>
<path d="M162.986 100.171L163.068 80.356L170.743 80.3879L170.73 83.5416L166.404 83.5236L166.383 88.6588L170.067 88.6741L170.054 91.7999L166.37 91.7846L166.335 100.185L162.986 100.171Z" fill="white"/>
<path d="M173.11 100.213L173.193 80.3981L176.542 80.412L176.459 100.227L173.11 100.213Z" fill="white"/>
<path d="M184.439 100.539C181.09 100.525 179.179 97.0289 179.207 90.3308C179.234 83.6327 181.203 80.1523 184.719 80.1669C187.677 80.1792 189.092 82.2782 189.431 87.9173L186.444 88.2677C186.236 84.4991 185.738 83.3528 184.706 83.3485C183.422 83.3431 182.633 85.2098 182.612 90.345C182.59 95.4801 183.364 97.3533 184.648 97.3586C185.68 97.3629 186.271 96.1932 186.51 92.4543L189.495 92.8296C189.109 98.3819 187.453 100.552 184.439 100.539Z" fill="white"/>
<path d="M192.106 100.292L192.188 80.477L195.537 80.4909L195.455 100.306L192.106 100.292Z" fill="white"/>
<path d="M197.687 100.315L201.118 80.5141L205.584 80.5327L208.85 100.362L205.501 100.348L204.986 96.857L201.469 96.8424L200.924 100.329L197.687 100.315ZM201.761 93.7178L204.72 93.7301L203.281 84.0397L201.761 93.7178Z" fill="white"/>
<path d="M211.074 100.371L211.156 80.5558L214.505 80.5698L214.436 97.2312L218.678 97.2488L218.665 100.402L211.074 100.371Z" fill="white"/>
<path d="M120.687 128.275C117.813 128.263 116.175 126.247 115.606 121.918L118.594 121.568C118.835 124.109 119.445 125.088 120.505 125.092C121.343 125.096 121.848 124.456 121.852 123.34C121.867 119.656 116.013 118.068 116.035 112.738C116.047 110.003 117.87 107.889 120.605 107.901C123.563 107.913 125.172 110.125 125.434 114.256L122.447 114.607C122.289 112.15 121.708 111.087 120.703 111.083C119.922 111.08 119.389 111.691 119.384 112.78C119.369 116.352 125.224 117.967 125.201 123.326C125.189 126.34 123.395 128.286 120.687 128.275Z" fill="white"/>
<path d="M128.929 128.03L127.253 108.207L130.463 108.221L131.434 123.1L133.319 112.754L136.054 112.765L137.853 123.099L138.947 108.256L142.157 108.269L140.316 128.077L136.437 128.061L134.664 118.034L132.809 128.046L128.929 128.03Z" fill="white"/>
<path d="M144.48 128.094L144.563 108.279L152.517 108.312L152.504 111.466L147.899 111.447L147.878 116.498L151.701 116.514L151.688 119.612L147.865 119.596L147.843 124.955L152.503 124.974L152.49 128.128L144.48 128.094Z" fill="white"/>
<path d="M155.232 128.139L155.314 108.324L163.268 108.357L163.255 111.511L158.65 111.492L158.629 116.543L162.453 116.559L162.44 119.657L158.616 119.641L158.594 124.999L163.255 125.019L163.242 128.172L155.232 128.139Z" fill="white"/>
<path d="M168.135 128.193L168.205 111.531L165.442 111.52L165.455 108.366L174.33 108.403L174.317 111.557L171.554 111.545L171.484 128.207L168.135 128.193Z" fill="white"/>
<path d="M176.843 128.229L176.926 108.414L180.721 108.43L184.184 121.394L184.238 108.444L187.364 108.457L187.281 128.272L183.486 128.257L180.023 115.292L179.969 128.242L176.843 128.229Z" fill="white"/>
<path d="M190.348 128.285L190.43 108.47L198.384 108.503L198.371 111.657L193.766 111.638L193.745 116.689L197.568 116.705L197.555 119.803L193.732 119.787L193.71 125.145L198.37 125.165L198.357 128.318L190.348 128.285Z" fill="white"/>
<path d="M201.099 128.33L201.181 108.515L204.558 108.529C209.024 108.547 211.136 110.565 211.122 113.97C211.113 116.231 210.129 117.901 207.864 118.869C208.784 119.291 209.115 120.102 209.528 121.415L211.676 128.374L208.216 128.359L206.208 121.262C205.988 120.452 205.654 120.171 204.956 120.168L204.482 120.166L204.448 128.344L201.099 128.33ZM205.248 117.211C206.922 117.218 207.764 116.133 207.771 114.347C207.779 112.561 206.973 111.609 205.271 111.602L204.518 111.599L204.494 117.208L205.248 117.211Z" fill="white"/>
<path d="M218.363 128.681C215.489 128.669 213.85 126.652 213.282 122.324L216.27 121.974C216.511 124.514 217.12 125.494 218.181 125.498C219.018 125.502 219.523 124.862 219.528 123.746C219.543 120.062 213.689 118.474 213.711 113.144C213.722 110.409 215.545 108.295 218.28 108.307C221.239 108.319 222.848 110.53 223.11 114.662L220.122 115.012C219.965 112.556 219.383 111.493 218.379 111.489C217.597 111.485 217.065 112.097 217.06 113.186C217.045 116.758 222.899 118.373 222.877 123.731C222.865 126.746 221.07 128.692 218.363 128.681Z" fill="white"/>
<path d="M1381.22 73.0846L1381.41 27.4646L1390.14 27.5009L1398.12 57.3483L1398.24 27.5346L1405.44 27.5645L1405.25 73.1844L1396.51 73.1482L1388.54 43.3009L1388.41 73.1145L1381.22 73.0846Z" fill="white"/>
<path d="M1424.06 73.9052C1416.09 73.8721 1411.5 65.6927 1411.57 50.4004C1411.63 35.108 1416.29 26.967 1424.26 27.0001C1432.22 27.0332 1436.82 35.2127 1436.75 50.505C1436.69 65.7974 1432.03 73.9383 1424.06 73.9052ZM1424.09 66.5803C1427.11 66.5928 1428.86 62.2951 1428.91 50.4725C1428.96 38.6498 1427.25 34.3376 1424.23 34.325C1421.21 34.3125 1419.45 38.6103 1419.4 50.4329C1419.36 62.2556 1421.07 66.5677 1424.09 66.5803Z" fill="white"/>
<path d="M1358.85 99.9919L1362.28 80.1907L1366.75 80.2093L1370.02 100.038L1366.67 100.024L1366.15 96.5336L1362.63 96.519L1362.09 100.005L1358.85 99.9919ZM1362.93 93.3944L1365.89 93.4067L1364.45 83.7162L1362.93 93.3944Z" fill="white"/>
<path d="M1372.24 100.048L1372.32 80.2324L1375.7 80.2465C1380.16 80.265 1382.28 82.2833 1382.26 85.6881C1382.25 87.9487 1381.27 89.6192 1379 90.5866C1379.92 91.009 1380.26 91.8198 1380.67 93.1332L1382.82 100.091L1379.36 100.077L1377.35 92.9799C1377.13 92.1696 1376.79 91.8891 1376.1 91.8862L1375.62 91.8842L1375.59 100.061L1372.24 100.048ZM1376.39 88.929C1378.06 88.936 1378.9 87.8511 1378.91 86.0649C1378.92 84.2788 1378.11 83.3265 1376.41 83.3194L1375.66 83.3163L1375.63 88.9259L1376.39 88.929Z" fill="white"/>
<path d="M1386.86 100.108L1386.93 83.4469L1384.17 83.4354L1384.18 80.2817L1393.05 80.3186L1393.04 83.4723L1390.28 83.4608L1390.21 100.122L1386.86 100.108Z" fill="white"/>
<path d="M1395.57 100.144L1395.65 80.3294L1399 80.3433L1398.92 100.158L1395.57 100.144Z" fill="white"/>
<path d="M1401.99 100.171L1402.07 80.356L1409.74 80.3879L1409.73 83.5416L1405.4 83.5236L1405.38 88.6588L1409.07 88.6741L1409.05 91.7999L1405.37 91.7846L1405.33 100.185L1401.99 100.171Z" fill="white"/>
<path d="M1412.11 100.213L1412.19 80.3981L1415.54 80.412L1415.46 100.227L1412.11 100.213Z" fill="white"/>
<path d="M1423.44 100.539C1420.09 100.525 1418.18 97.0289 1418.21 90.3308C1418.23 83.6327 1420.2 80.1523 1423.72 80.1669C1426.68 80.1792 1428.09 82.2782 1428.43 87.9173L1425.44 88.2677C1425.24 84.4991 1424.74 83.3528 1423.71 83.3485C1422.42 83.3431 1421.63 85.2098 1421.61 90.345C1421.59 95.4801 1422.36 97.3533 1423.65 97.3586C1424.68 97.3629 1425.27 96.1932 1425.51 92.4543L1428.49 92.8296C1428.11 98.3819 1426.45 100.552 1423.44 100.539Z" fill="white"/>
<path d="M1431.11 100.292L1431.19 80.477L1434.54 80.4909L1434.45 100.306L1431.11 100.292Z" fill="white"/>
<path d="M1436.69 100.315L1440.12 80.5141L1444.58 80.5327L1447.85 100.362L1444.5 100.348L1443.99 96.857L1440.47 96.8424L1439.92 100.329L1436.69 100.315ZM1440.76 93.7178L1443.72 93.7301L1442.28 84.0397L1440.76 93.7178Z" fill="white"/>
<path d="M1450.07 100.371L1450.16 80.5558L1453.51 80.5698L1453.44 97.2312L1457.68 97.2488L1457.66 100.402L1450.07 100.371Z" fill="white"/>
<path d="M1359.69 128.275C1356.81 128.263 1355.17 126.247 1354.61 121.918L1357.59 121.568C1357.83 124.109 1358.44 125.088 1359.51 125.092C1360.34 125.096 1360.85 124.456 1360.85 123.34C1360.87 119.656 1355.01 118.068 1355.04 112.738C1355.05 110.003 1356.87 107.889 1359.6 107.901C1362.56 107.913 1364.17 110.125 1364.43 114.256L1361.45 114.607C1361.29 112.15 1360.71 111.087 1359.7 111.083C1358.92 111.08 1358.39 111.691 1358.38 112.78C1358.37 116.352 1364.22 117.967 1364.2 123.326C1364.19 126.34 1362.39 128.286 1359.69 128.275Z" fill="white"/>
<path d="M1367.93 128.03L1366.25 108.207L1369.46 108.221L1370.43 123.1L1372.32 112.754L1375.05 112.765L1376.85 123.099L1377.95 108.256L1381.16 108.269L1379.32 128.077L1375.44 128.061L1373.66 118.034L1371.81 128.046L1367.93 128.03Z" fill="white"/>
<path d="M1383.48 128.094L1383.56 108.279L1391.52 108.312L1391.5 111.466L1386.9 111.447L1386.88 116.498L1390.7 116.514L1390.69 119.612L1386.86 119.596L1386.84 124.955L1391.5 124.974L1391.49 128.128L1383.48 128.094Z" fill="white"/>
<path d="M1394.23 128.139L1394.31 108.324L1402.27 108.357L1402.25 111.511L1397.65 111.492L1397.63 116.543L1401.45 116.559L1401.44 119.657L1397.62 119.641L1397.59 124.999L1402.25 125.019L1402.24 128.172L1394.23 128.139Z" fill="white"/>
<path d="M1407.14 128.193L1407.2 111.531L1404.44 111.52L1404.45 108.366L1413.33 108.403L1413.32 111.557L1410.55 111.545L1410.48 128.207L1407.14 128.193Z" fill="white"/>
<path d="M1415.84 128.229L1415.93 108.414L1419.72 108.43L1423.18 121.394L1423.24 108.444L1426.36 108.457L1426.28 128.272L1422.49 128.257L1419.02 115.292L1418.97 128.242L1415.84 128.229Z" fill="white"/>
<path d="M1429.35 128.285L1429.43 108.47L1437.38 108.503L1437.37 111.657L1432.77 111.638L1432.74 116.689L1436.57 116.705L1436.56 119.803L1432.73 119.787L1432.71 125.145L1437.37 125.165L1437.36 128.318L1429.35 128.285Z" fill="white"/>
<path d="M1440.1 128.33L1440.18 108.515L1443.56 108.529C1448.02 108.547 1450.14 110.565 1450.12 113.97C1450.11 116.231 1449.13 117.901 1446.86 118.869C1447.78 119.291 1448.12 120.102 1448.53 121.415L1450.68 128.374L1447.22 128.359L1445.21 121.262C1444.99 120.452 1444.65 120.171 1443.96 120.168L1443.48 120.166L1443.45 128.344L1440.1 128.33ZM1444.25 117.211C1445.92 117.218 1446.76 116.133 1446.77 114.347C1446.78 112.561 1445.97 111.609 1444.27 111.602L1443.52 111.599L1443.49 117.208L1444.25 117.211Z" fill="white"/>
<path d="M1457.36 128.681C1454.49 128.669 1452.85 126.652 1452.28 122.324L1455.27 121.974C1455.51 124.514 1456.12 125.494 1457.18 125.498C1458.02 125.502 1458.52 124.862 1458.53 123.746C1458.54 120.062 1452.69 118.474 1452.71 113.144C1452.72 110.409 1454.55 108.295 1457.28 108.307C1460.24 108.319 1461.85 110.53 1462.11 114.662L1459.12 115.012C1458.97 112.556 1458.38 111.493 1457.38 111.489C1456.6 111.485 1456.06 112.097 1456.06 113.186C1456.05 116.758 1461.9 118.373 1461.88 123.731C1461.86 126.746 1460.07 128.692 1457.36 128.681Z" fill="white"/>
</svg>
