<svg width="455" height="166" viewBox="0 0 455 166" fill="none" xmlns="http://www.w3.org/2000/svg">
<path d="M17.9684 0L454.215 21.8413V165.631L0 158.106L17.9684 0Z" fill="#551405"/>
<path d="M70.6646 102.923L70.8386 61.0326L79.2758 61.0677C88.716 61.1069 93.0529 68.1462 92.995 82.0705C92.9372 95.9947 88.5419 102.998 79.1017 102.959L70.6646 102.923ZM79.5425 96.2931C83.6725 96.3103 85.7533 92.5428 85.7969 82.0406C85.8405 71.5383 83.7912 67.7537 79.6611 67.7365L77.8911 67.7292L77.7724 96.2857L79.5425 96.2931Z" fill="#FFF2E2"/>
<path d="M98.6371 103.04L98.8112 61.1488L105.891 61.1783L105.717 103.069L98.6371 103.04Z" fill="#FFF2E2"/>
<path d="M122.056 103.727C115.979 103.702 112.515 99.4392 111.314 90.2889L117.631 89.5481C118.139 94.9194 119.429 96.9898 121.671 96.9992C123.441 97.0065 124.508 95.6539 124.518 93.2939C124.551 85.5057 112.174 82.1502 112.221 70.8809C112.245 65.0988 116.099 60.6307 121.881 60.6547C128.135 60.6807 131.538 65.356 132.091 74.0906L125.775 74.8314C125.443 69.6378 124.213 67.3906 122.089 67.3818C120.437 67.3749 119.31 68.6683 119.301 70.9693C119.269 78.5215 131.646 81.936 131.599 93.2643C131.572 99.6364 127.779 103.751 122.056 103.727Z" fill="#FFF2E2"/>
<path d="M147.794 103.834C140.714 103.805 136.673 96.4125 136.732 82.2522C136.791 68.0919 140.952 60.7339 148.386 60.7648C154.64 60.7908 157.63 65.2284 158.348 77.1498L152.032 77.8906C151.593 69.9235 150.541 67.5 148.358 67.4909C145.644 67.4797 143.975 71.4259 143.93 82.2821C143.885 93.1383 145.521 97.0983 148.235 97.1095C150.418 97.1186 151.667 94.6457 152.172 86.7415L158.482 87.5348C157.666 99.2728 154.166 103.86 147.794 103.834Z" fill="#FFF2E2"/>
<path d="M174.796 103.946C167.48 103.916 163.263 96.405 163.322 82.3627C163.38 68.3204 167.659 60.8449 174.975 60.8753C182.292 60.9057 186.508 68.4165 186.45 82.4588C186.392 96.5011 182.113 103.977 174.796 103.946ZM174.824 97.22C177.597 97.2315 179.207 93.2851 179.252 82.4289C179.297 71.5726 177.72 67.6129 174.947 67.6014C172.174 67.5899 170.565 71.5364 170.52 82.3926C170.475 93.2488 172.051 97.2085 174.824 97.22Z" fill="#FFF2E2"/>
<path d="M196.412 103.446L189.801 61.5269L196.881 61.5563L201.408 93.8493L206.203 61.5951L213.047 61.6235L206.088 103.486L196.412 103.446Z" fill="#FFF2E2"/>
<path d="M217.527 103.534L217.701 61.6428L234.516 61.7127L234.488 68.3798L224.753 68.3394L224.709 79.0186L232.792 79.0522L232.765 85.6013L224.682 85.5677L224.635 96.896L234.488 96.9369L234.46 103.604L217.527 103.534Z" fill="#FFF2E2"/>
<path d="M240.256 103.628L240.43 61.7373L247.569 61.7669C257.009 61.8062 261.476 66.0729 261.446 73.271C261.426 78.0501 259.346 81.5816 254.559 83.6268C256.502 84.5199 257.203 86.2339 258.076 89.0106L262.618 103.721L255.301 103.691L251.057 88.6864C250.592 86.9734 249.886 86.3805 248.411 86.3744L247.408 86.3702L247.336 103.658L240.256 103.628ZM249.027 80.1227C252.567 80.1374 254.347 77.8437 254.362 74.0676C254.378 70.2915 252.675 68.2784 249.076 68.2634L247.483 68.2568L247.434 80.1161L249.027 80.1227Z" fill="#FFF2E2"/>
<path d="M278.685 103.788L278.859 61.8969L288.594 61.9374L292.399 83.548L296.56 61.9705L306 62.0097L305.826 103.901L299.218 103.873L299.348 72.6025L295.01 94.0612L289.523 94.0385L285.423 72.4856L285.293 103.815L278.685 103.788Z" fill="#FFF2E2"/>
<path d="M323.099 104.562C315.783 104.532 311.566 97.0211 311.624 82.9789C311.683 68.9366 315.962 61.4611 323.278 61.4915C330.594 61.5219 334.811 69.0327 334.753 83.075C334.694 97.1172 330.415 104.593 323.099 104.562ZM323.127 97.8362C325.9 97.8477 327.51 93.9013 327.555 83.0451C327.6 72.1888 326.023 68.2291 323.25 68.2176C320.477 68.2061 318.868 72.1526 318.822 83.0088C318.777 93.865 320.354 97.8247 323.127 97.8362Z" fill="#FFF2E2"/>
<path d="M340.392 104.044L340.566 62.1533L347.705 62.183C357.145 62.2222 361.612 66.4889 361.582 73.6871C361.562 78.4662 359.482 81.9977 354.695 84.0429C356.638 84.936 357.339 86.6499 358.212 89.4267L362.754 104.137L355.437 104.107L351.193 89.1025C350.728 87.3895 350.022 86.7965 348.547 86.7904L347.544 86.7862L347.472 104.074L340.392 104.044ZM349.163 80.5387C352.703 80.5535 354.483 78.2598 354.498 74.4837C354.514 70.7076 352.811 68.6945 349.212 68.6795L347.619 68.6729L347.57 80.5321L349.163 80.5387Z" fill="#FFF2E2"/>
<path d="M367.385 104.156L367.559 62.2655L384.375 62.3354L384.347 69.0025L374.612 68.9621L374.567 79.6413L382.65 79.6749L382.623 86.224L374.54 86.1904L374.493 97.5186L384.346 97.5596L384.319 104.227L367.385 104.156Z" fill="#FFF2E2"/>
</svg>
