<svg width="1051" height="521" viewBox="0 0 1051 521" fill="none" xmlns="http://www.w3.org/2000/svg">
<path d="M54.7061 518.408C24.602 517.822 7.90216 486.127 9.07343 425.919C10.2447 365.711 28.4155 334.694 60.0248 335.309C86.6167 335.826 99.045 354.89 101.32 405.629L74.4141 408.368C73.0661 374.462 68.7505 364.088 59.4684 363.908C47.9285 363.683 40.5772 380.355 39.6793 426.514C38.7813 472.674 45.4786 489.619 57.0185 489.843C66.3006 490.024 71.7738 479.59 74.4347 446.013L101.214 449.796C96.9816 499.655 81.7998 518.935 54.7061 518.408Z" fill="#551405"/>
<path d="M183.867 518.411L185.356 441.897L155.252 441.311L153.763 517.826L123.659 517.24L127.124 339.124L157.228 339.71L155.803 412.963L185.907 413.548L187.332 340.295L217.437 340.881L213.972 518.997L183.867 518.411Z" fill="#551405"/>
<path d="M294.088 520.743C261.802 520.115 243.698 486.683 244.903 424.713C246.109 362.743 265.499 330.04 297.786 330.668C330.073 331.297 348.176 364.729 346.971 426.699C345.765 488.668 326.375 521.371 294.088 520.743ZM294.666 491.06C306.903 491.298 314.273 473.99 315.205 426.081C316.137 378.171 309.446 360.589 297.209 360.351C284.971 360.113 277.601 377.422 276.669 425.331C275.737 473.24 282.428 490.822 294.666 491.06Z" fill="#551405"/>
<path d="M853.491 453.48L857.231 261.247L825.353 260.627L826.06 224.241L928.456 226.233L927.748 262.619L895.87 261.999L892.131 454.232L853.491 453.48Z" fill="#551405"/>
<path d="M953.962 455.435L958.409 226.816L1050.18 228.601L1049.47 264.987L996.341 263.953L995.208 322.235L1039.32 323.093L1038.63 358.835L994.512 357.977L993.31 419.801L1047.08 420.847L1046.38 457.233L953.962 455.435Z" fill="#551405"/>
<path d="M416.062 213.664C380.934 212.981 361.448 175.996 362.815 105.741C364.181 35.4856 385.384 -0.707068 422.268 0.0104642C453.298 0.614102 467.8 22.8593 470.455 82.065L439.059 85.2611C437.486 45.6969 432.45 33.5925 421.619 33.3818C408.154 33.1198 399.576 52.5733 398.528 106.436C397.48 160.298 405.295 180.071 418.76 180.333C429.591 180.543 435.978 168.368 439.083 129.188L470.331 133.603C465.392 191.782 447.677 214.279 416.062 213.664Z" fill="#551405"/>
<path d="M550.034 216.27C513.736 215.564 493.382 177.977 494.738 108.307C496.093 38.6375 517.893 1.87072 554.192 2.57686C590.49 3.283 610.844 40.8698 609.488 110.54C608.133 180.21 586.333 216.976 550.034 216.27ZM550.684 182.899C564.442 183.167 572.727 163.707 573.775 109.845C574.823 55.9825 567.301 36.2158 553.542 35.9482C539.784 35.6805 531.499 55.1397 530.451 109.002C529.403 162.865 536.925 182.631 550.684 182.899Z" fill="#551405"/>
<path d="M635.878 215.012L639.921 7.17302L679.732 7.9475L713.974 144.492L716.616 8.66503L749.402 9.30284L745.359 217.142L705.547 216.367L671.306 79.8226L668.663 215.65L635.878 215.012Z" fill="#551405"/>
<path d="M72.9573 312.992C24.8878 312.057 -1.77807 261.446 0.0921853 165.307C1.96244 69.1685 30.9771 19.6417 81.45 20.6236C123.911 21.4496 143.756 51.8904 147.39 132.909L104.427 137.282C102.274 83.1419 95.3831 66.5779 80.5616 66.2896C62.135 65.9311 50.3967 92.5517 48.9628 166.258C47.529 239.965 58.223 267.022 76.6497 267.38C91.4711 267.669 100.211 251.008 104.459 197.393L147.22 203.434C140.462 283.048 116.22 313.833 72.9573 312.992Z" fill="#551405"/>
<path d="M256.288 316.558C206.616 315.592 178.764 264.157 180.619 168.819C182.473 73.4816 212.305 23.1692 261.977 24.1355C311.648 25.1018 339.5 76.5364 337.646 171.874C335.791 267.212 305.96 317.524 256.288 316.558ZM257.176 270.892C276.003 271.258 287.341 244.63 288.775 170.923C290.209 97.2169 279.915 70.1677 261.088 69.8015C242.261 69.4352 230.923 96.0636 229.489 169.77C228.055 243.477 238.349 270.526 257.176 270.892Z" fill="#551405"/>
<path d="M825.329 197.417C794.916 196.826 779.01 172.333 779.723 135.681L782.206 8.04942L813.399 8.65624L810.916 136.288C810.502 157.603 815.248 167.577 825.906 167.784C836.563 167.991 841.695 158.21 842.109 136.894L844.592 9.26306L875.785 9.86988L873.302 137.501C872.589 174.153 855.743 198.009 825.329 197.417Z" fill="#551405"/>
<path d="M920.916 195.376L923.935 40.1911L898.2 39.6905L898.772 10.3171L981.433 11.9251L980.862 41.2986L955.128 40.7979L952.109 195.983L920.916 195.376Z" fill="#551405"/>
<path d="M568.441 444.516C535.972 443.884 517.766 410.263 518.978 347.944C520.191 285.625 539.69 252.738 572.159 253.369C604.628 254.001 622.834 287.622 621.622 349.941C620.409 412.26 600.909 445.148 568.441 444.516ZM569.021 414.666C581.328 414.905 588.739 397.499 589.676 349.32C590.614 301.14 583.885 283.459 571.578 283.22C559.272 282.98 551.861 300.386 550.923 348.566C549.986 396.745 556.715 414.426 569.021 414.666Z" fill="#551405"/>
<path d="M645.227 443.39L648.843 257.48L680.265 258.092L677.224 414.413L717.024 415.187L716.448 444.776L645.227 443.39Z" fill="#551405"/>
<path d="M732.368 445.086L767.406 259.787L809.301 260.602L837.106 447.123L805.684 446.512L801.346 413.685L768.354 413.043L762.742 445.677L732.368 445.086ZM771.543 383.767L799.298 384.307L787.188 293.177L771.543 383.767Z" fill="#551405"/>
<path d="M426.018 510.358C381.711 509.496 357.132 462.847 358.855 374.232C360.579 285.617 387.323 239.966 433.846 240.871C472.984 241.632 491.276 269.691 494.625 344.369L455.025 348.4C453.04 298.497 446.689 283.229 433.027 282.963C416.043 282.633 405.223 307.17 403.901 375.108C402.58 443.046 412.437 467.986 429.422 468.316C443.083 468.582 451.138 453.225 455.055 403.806L494.469 409.375C488.24 482.758 465.895 511.134 426.018 510.358Z" fill="#551405"/>
</svg>
