<svg width="389" height="262" viewBox="0 0 389 262" fill="none" xmlns="http://www.w3.org/2000/svg">
<path d="M19.38 244.172C9.49808 244.172 3.81597 233.878 3.81597 214.115C3.81597 194.351 9.58043 184.057 19.9565 184.057C28.6855 184.057 32.8853 190.233 33.9559 206.868L25.1445 207.938C24.4857 196.821 23.0034 193.445 19.9565 193.445C16.1684 193.445 13.8626 198.962 13.8626 214.115C13.8626 229.267 16.1684 234.784 19.9565 234.784C23.0034 234.784 24.7327 231.326 25.3915 220.291L34.2029 221.361C33.1324 237.749 28.2737 244.172 19.38 244.172ZM57.0684 244.172C46.857 244.172 40.9279 233.714 40.9279 214.115C40.9279 194.515 46.857 184.057 57.0684 184.057C67.2797 184.057 73.2089 194.515 73.2089 214.115C73.2089 233.714 67.2797 244.172 57.0684 244.172ZM57.0684 234.784C60.9388 234.784 63.1622 229.267 63.1622 214.115C63.1622 198.962 60.9388 193.445 57.0684 193.445C53.198 193.445 50.9745 198.962 50.9745 214.115C50.9745 229.267 53.198 234.784 57.0684 234.784ZM95.6948 244.172C85.8128 244.172 80.1307 233.878 80.1307 214.115C80.1307 194.351 85.8952 184.057 96.2712 184.057C105 184.057 109.2 190.233 110.271 206.868L101.459 207.938C100.8 196.821 99.3181 193.445 96.2712 193.445C92.4831 193.445 90.1773 198.962 90.1773 214.115C90.1773 229.267 92.4831 234.784 96.2712 234.784C99.3181 234.784 101.047 231.326 101.706 220.291L110.518 221.361C109.447 237.749 104.588 244.172 95.6948 244.172ZM133.383 244.172C123.172 244.172 117.243 233.714 117.243 214.115C117.243 194.515 123.172 184.057 133.383 184.057C143.594 184.057 149.524 194.515 149.524 214.115C149.524 233.714 143.594 244.172 133.383 244.172ZM133.383 234.784C137.254 234.784 139.477 229.267 139.477 214.115C139.477 198.962 137.254 193.445 133.383 193.445C129.513 193.445 127.289 198.962 127.289 214.115C127.289 229.267 129.513 234.784 133.383 234.784Z" fill="#4D0F00"/>
<path d="M157.706 254.432V179.303H172.096L185.429 228.402V179.303H197.28V254.432H182.89L169.557 205.334V254.432H157.706ZM227.63 256.019C215.25 256.019 208.584 246.179 208.584 231.259V179.303H221.281V231.259C221.281 239.935 223.292 243.956 227.63 243.956C231.969 243.956 233.979 239.935 233.979 231.259V179.303H246.677V231.259C246.677 246.179 240.011 256.019 227.63 256.019ZM266.51 254.432V191.261H256.034V179.303H289.683V191.261H279.208V254.432H266.51Z" fill="#4D0F00"/>
<path d="M310.226 251.3C301.052 251.3 295.724 241.903 295.724 224.294C295.724 206.684 301.052 197.288 310.226 197.288C319.401 197.288 324.728 206.684 324.728 224.294C324.728 241.903 319.401 251.3 310.226 251.3ZM310.226 242.865C313.704 242.865 315.702 237.908 315.702 224.294C315.702 210.68 313.704 205.722 310.226 205.722C306.749 205.722 304.751 210.68 304.751 224.294C304.751 237.908 306.749 242.865 310.226 242.865ZM331.909 250.56V198.028H340.788V250.56H331.909ZM348.924 250.56V198.028H357.803V242.199H369.049V250.56H348.924Z" fill="white"/>
<path d="M3.94517 175.984L3.94517 121.696H16.5615L21.608 149.681L26.8839 121.696H39.1179V175.984H30.5541V135.459L25.0488 163.292H17.9378L12.509 135.383V175.984H3.94517ZM45.2218 175.984L54.3973 121.696H66.6313L75.8068 175.984H66.6313L65.1785 166.427H55.5442L54.0914 175.984H45.2218ZM56.3089 157.863H64.4139L60.3614 131.33L56.3089 157.863ZM81.8981 175.984V121.696H92.8322C105.066 121.696 110.724 130.795 110.724 148.84C110.724 166.885 105.066 175.984 92.8322 175.984H81.8981ZM93.3675 167.344C98.7199 167.344 101.396 162.451 101.396 148.84C101.396 135.23 98.7199 130.336 93.3675 130.336H91.0736V167.344H93.3675ZM118.149 175.984V121.696H139.941V130.336H127.325V144.176H137.8V152.663H127.325V167.344H140.094V175.984H118.149Z" fill="white"/>
<path d="M165.058 168L158.257 91.3576H170.671L174.665 148.893L181.789 108.845H192.368L199.493 148.785L203.487 91.3576H215.901L209.1 168H194.095L187.079 129.247L180.062 168H165.058ZM225.208 168V91.3576H238.161V168H225.208ZM258.883 168V103.556H248.196V91.3576H282.523V103.556H271.837V168H258.883ZM318.472 168V135.076H305.519V168H292.565V91.3576H305.519V122.878H318.472V91.3576H331.426V168H318.472Z" fill="white"/>
</svg>
