<svg width="589" height="87" viewBox="0 0 589 87" fill="none" xmlns="http://www.w3.org/2000/svg">
<path d="M9.34647 0L589 11.361V86.155L0 82.2405L9.34647 0Z" fill="#551405"/>
<path d="M39.5998 57.7062L37.0778 27.8754L41.9077 27.8955L43.3687 50.2878L46.2054 34.7174L50.3214 34.7345L53.0288 50.2859L54.6756 27.9486L59.5056 27.9686L56.7357 57.7774L50.8977 57.7531L48.2304 42.6639L45.4378 57.7304L39.5998 57.7062ZM73.0827 57.8453L73.136 45.0354L68.096 45.0145L68.0428 57.8244L63.0028 57.8034L63.1267 27.9837L68.1667 28.0046L68.1157 40.2685L73.1557 40.2895L73.2066 28.0256L78.2466 28.0465L78.1227 57.8662L73.0827 57.8453ZM81.4918 57.8802L86.6557 28.0814L93.3756 28.1094L98.2917 57.95L93.2517 57.9291L92.4756 52.6758L87.1836 52.6538L86.3638 57.9005L81.4918 57.8802ZM87.6232 47.9516L92.0751 47.9701L89.9097 33.387L87.6232 47.9516ZM103.195 57.9704L103.299 32.8966L99.1411 32.8794L99.1608 28.1334L112.517 28.1889L112.497 32.9349L108.339 32.9176L108.235 57.9914L103.195 57.9704ZM124.687 58.0597L124.81 28.24L131.74 28.2688L134.448 43.6522L137.41 28.2923L144.13 28.3202L144.006 58.14L139.302 58.1204L139.395 35.8606L136.307 51.1359L132.401 51.1197L129.483 35.7775L129.39 58.0793L124.687 58.0597ZM147.359 58.1539L152.523 28.3551L159.243 28.383L164.159 58.2237L159.119 58.2028L158.343 52.9495L153.051 52.9275L152.231 58.1742L147.359 58.1539ZM153.49 48.2253L157.942 48.2438L155.777 33.6607L153.49 48.2253ZM167.505 58.2376L167.629 28.4179L172.669 28.4388L172.618 40.7447L174.466 40.7524L178.423 28.4627L183.379 28.4833L178.532 42.6173L183.633 58.3046L178.551 58.2835L174.53 45.4987L172.598 45.4907L172.545 58.2586L167.505 58.2376ZM187.089 58.319L187.213 28.4993L199.183 28.549L199.163 33.295L192.233 33.2662L192.201 40.8681L197.955 40.892L197.936 45.554L192.182 45.5301L192.148 53.594L199.162 53.6231L199.143 58.3691L187.089 58.319ZM209.871 58.8337C205.545 58.8157 203.079 55.7814 202.224 49.2678L206.72 48.7405C207.083 52.564 208 54.0378 209.596 54.0445C210.856 54.0497 211.616 53.0869 211.623 51.4069C211.646 45.8629 202.836 43.4743 202.87 35.4524C202.887 31.3364 205.63 28.1558 209.746 28.1729C214.198 28.1914 216.62 31.5195 217.014 37.7372L212.518 38.2645C212.281 34.5675 211.406 32.9678 209.894 32.9615C208.718 32.9566 207.916 33.8773 207.909 35.5153C207.887 40.8913 216.697 43.3219 216.664 51.3858C216.645 55.9218 213.944 58.8506 209.871 58.8337ZM229.188 58.4939L229.312 28.6742L234.352 28.6951L234.228 58.5149L229.188 58.4939ZM242.291 58.5484L242.395 33.4746L238.237 33.4573L238.257 28.7113L251.613 28.7668L251.593 33.5128L247.435 33.4955L247.331 58.5693L242.291 58.5484ZM262.564 58.6326L267.728 28.8338L274.448 28.8617L279.364 58.7024L274.324 58.6815L273.548 53.4282L268.256 53.4062L267.436 58.6528L262.564 58.6326ZM268.696 48.704L273.148 48.7225L270.982 34.1394L268.696 48.704ZM307.558 28.8313C307.302 29.9222 307.031 31.0831 306.746 32.3139C306.489 33.5449 306.246 34.7479 306.017 35.9229C305.788 37.07 305.602 38.1332 305.458 39.1127L299.704 39.0887L299.412 38.6255C299.668 37.6186 299.994 36.5559 300.391 35.4376C300.788 34.3192 301.212 33.187 301.665 32.0408C302.146 30.8948 302.612 29.8187 303.064 28.8126L307.558 28.8313ZM297.983 28.7915C297.726 29.8824 297.455 31.0433 297.17 32.2742C296.913 33.5051 296.67 34.7081 296.441 35.8832C296.212 37.0302 296.026 38.0935 295.882 39.0729L290.128 39.049L289.836 38.5857C290.092 37.5788 290.418 36.5161 290.815 35.3978C291.212 34.2794 291.636 33.1472 292.089 32.001C292.57 30.855 293.036 29.779 293.489 28.7728L297.983 28.7915ZM317.693 59.2817C313.367 59.2637 310.902 56.2294 310.047 49.7158L314.543 49.1885C314.905 53.012 315.823 54.4859 317.419 54.4925C318.679 54.4977 319.439 53.5349 319.446 51.8549C319.469 46.3109 310.659 43.9223 310.692 35.9004C310.709 31.7844 313.453 28.6038 317.568 28.6209C322.02 28.6394 324.443 31.9675 324.837 38.1852L320.341 38.7125C320.104 35.0155 319.229 33.4158 317.717 33.4095C316.541 33.4047 315.739 34.3253 315.732 35.9633C315.71 41.3393 324.52 43.7699 324.486 51.8338C324.467 56.3698 321.767 59.2986 317.693 59.2817ZM328.624 58.9071L328.748 29.0873L335.678 29.1161L338.386 44.4995L341.348 29.1397L348.068 29.1676L347.944 58.9874L343.24 58.9678L343.333 36.708L340.245 51.9833L336.339 51.9671L333.421 36.6248L333.328 58.9266L328.624 58.9071ZM360.24 59.4584C355.032 59.4368 352.03 54.0903 352.072 44.0944C352.113 34.0985 355.159 28.7771 360.367 28.7987C365.575 28.8204 368.577 34.1669 368.536 44.1628C368.494 54.1587 365.448 59.4801 360.24 59.4584ZM360.26 54.6705C362.234 54.6787 363.38 51.8694 363.412 44.1415C363.444 36.4136 362.322 33.5949 360.348 33.5867C358.374 33.5785 357.228 36.3877 357.196 44.1157C357.164 51.8436 358.286 54.6623 360.26 54.6705ZM380.234 59.5415C375.026 59.5199 372.024 54.1734 372.066 44.1775C372.107 34.1815 375.154 28.8601 380.362 28.8818C385.57 28.9034 388.571 34.2499 388.53 44.2459C388.488 54.2418 385.442 59.5632 380.234 59.5415ZM380.254 54.7536C382.228 54.7618 383.374 51.9525 383.406 44.2246C383.438 36.4966 382.316 33.6779 380.342 33.6697C378.368 33.6615 377.222 36.4708 377.19 44.1987C377.158 51.9267 378.28 54.7454 380.254 54.7536ZM394.84 59.1822L394.944 34.1084L390.786 34.0911L390.806 29.3452L404.161 29.4007L404.142 34.1466L399.984 34.1294L399.88 59.2031L394.84 59.1822ZM418.024 59.2785L418.078 46.4686L413.038 46.4477L412.984 59.2576L407.945 59.2367L408.068 29.4169L413.108 29.4379L413.057 41.7017L418.097 41.7227L418.148 29.4588L423.188 29.4797L423.064 59.2995L418.024 59.2785ZM443.092 59.8027C438.766 59.7847 436.3 56.7505 435.445 50.2368L439.941 49.7095C440.304 53.5331 441.221 55.0069 442.817 55.0135C444.077 55.0188 444.837 54.0559 444.844 52.3759C444.867 46.832 436.057 44.4433 436.091 36.4214C436.108 32.3054 438.851 29.1248 442.967 29.1419C447.419 29.1604 449.841 32.4885 450.235 38.7062L445.739 39.2335C445.502 35.5365 444.627 33.9369 443.115 33.9306C441.939 33.9257 441.137 34.8464 441.13 36.4843C441.108 41.8603 449.918 44.2909 449.885 52.3549C449.866 56.8908 447.166 59.8196 443.092 59.8027ZM456.975 59.4404L457.079 34.3666L452.921 34.3493L452.94 29.6034L466.296 29.6588L466.277 34.4048L462.119 34.3875L462.014 59.4613L456.975 59.4404ZM466.975 59.4819L472.139 29.6831L478.858 29.711L483.775 59.5517L478.735 59.5308L477.958 54.2775L472.666 54.2555L471.847 59.5022L466.975 59.4819ZM473.106 49.5533L477.558 49.5718L475.393 34.9887L473.106 49.5533ZM487.12 59.5656L487.244 29.7459L492.326 29.767C499.046 29.7949 502.226 32.8322 502.204 37.9561C502.19 41.3581 500.71 43.872 497.302 45.3278C498.685 45.9636 499.184 47.1836 499.806 49.1602L503.038 59.6318L497.83 59.6101L494.809 48.9295C494.478 47.7101 493.975 47.288 492.925 47.2836L492.211 47.2807L492.16 59.5866L487.12 59.5656ZM493.364 42.8334C495.884 42.8439 497.151 41.2111 497.162 38.5232C497.173 35.8352 495.961 34.4021 493.399 34.3915L492.265 34.3868L492.23 42.8287L493.364 42.8334ZM509.123 59.6571L509.227 34.5833L505.069 34.566L505.089 29.82L518.445 29.8755L518.425 34.6215L514.267 34.6042L514.163 59.678L509.123 59.6571ZM538.646 30.2535C538.39 31.2324 538.064 32.2951 537.667 33.4414C537.27 34.5598 536.846 35.692 536.393 36.8382C535.94 37.9563 535.474 39.0324 534.994 40.0664L530.5 40.0477C530.784 38.9289 531.055 37.768 531.312 36.565C531.569 35.3341 531.812 34.1311 532.041 32.956C532.27 31.781 532.456 30.7178 532.6 29.7663L538.354 29.7902L538.646 30.2535ZM529.07 30.2137C528.814 31.1926 528.488 32.2553 528.091 33.4016C527.695 34.52 527.27 35.6522 526.817 36.7984C526.364 37.9165 525.898 38.9926 525.418 40.0266L520.924 40.0079C521.123 39.1687 521.323 38.3016 521.522 37.4064C521.722 36.5112 521.908 35.616 522.08 34.7207C522.279 33.7975 522.451 32.9162 522.595 32.0768C522.766 31.2375 522.909 30.4541 523.024 29.7266L528.778 29.7505L529.07 30.2137ZM546.135 50.6968C544.994 42.1239 550.506 39.8788 550.524 35.5529C550.53 33.9989 549.946 33.0304 548.602 33.0249C546.964 33.0181 546.034 34.6102 545.599 38.0524L541.108 37.4878C541.974 31.1073 544.758 28.2208 549.168 28.2392C553.2 28.2559 555.583 30.9958 555.566 34.9858C555.539 41.5378 548.853 43.484 549.747 50.7118L546.135 50.6968ZM545.383 59.8077L545.407 53.9698L550.447 53.9907L550.423 59.8287L545.383 59.8077Z" fill="#FFF2E2"/>
</svg>
