<svg width="325" height="100" viewBox="0 0 325 100" fill="none" xmlns="http://www.w3.org/2000/svg">
<path d="M0 99.1353L324.607 89.883L324.607 5.06634L0 0.000228882V99.1353Z" fill="#FF6F98"/>
<path d="M20.467 63.7951L17.9449 33.9644L22.7749 33.9844L24.2358 56.3767L27.0726 40.8064L31.1885 40.8235L33.8959 56.3748L35.5428 34.0375L40.3727 34.0576L37.6028 63.8663L31.7649 63.8421L29.0976 48.7528L26.3049 63.8194L20.467 63.7951ZM53.9499 63.9342L54.0031 51.1243L48.9632 51.1034L48.9099 63.9133L43.87 63.8923L43.9939 34.0726L49.0338 34.0935L48.9829 46.3574L54.0228 46.3784L54.0738 34.1145L59.1137 34.1354L58.9898 63.9552L53.9499 63.9342ZM62.359 63.9692L67.5229 34.1704L74.2428 34.1983L79.1589 64.039L74.1189 64.018L73.3427 58.7648L68.0508 58.7428L67.231 63.9894L62.359 63.9692ZM68.4903 54.0406L72.9423 54.0591L70.7768 39.4759L68.4903 54.0406ZM84.062 64.0593L84.1662 38.9856L80.0082 38.9683L80.0279 34.2223L93.3838 34.2778L93.3641 39.0238L89.2061 39.0065L89.1019 64.0803L84.062 64.0593ZM104.336 64.1436L109.5 34.3448L116.219 34.3727L121.136 64.2134L116.096 64.1924L115.319 58.9392L110.027 58.9172L109.208 64.1638L104.336 64.1436ZM110.467 54.215L114.919 54.2335L112.754 39.6503L110.467 54.215ZM131.673 64.6772C126.423 64.6554 123.463 59.393 123.505 49.3551C123.547 39.2752 126.593 33.9958 131.843 34.0176C136.295 34.0361 138.548 37.4895 139.022 44.8835L134.525 45.4529C134.251 40.7057 133.335 38.8119 131.781 38.8054C129.849 38.7974 128.661 41.7745 128.629 49.3344C128.598 56.9363 129.887 59.8817 131.819 59.8897C133.541 59.8969 134.475 57.6328 134.664 52.5935L131.598 52.5808L131.616 48.1288L139.554 48.1618L139.548 49.5478C139.507 59.5857 136.839 64.6986 131.673 64.6772ZM143.573 64.3066L143.697 34.4869L155.667 34.5366L155.647 39.2826L148.717 39.2538L148.686 46.8557L154.44 46.8796L154.42 51.5416L148.666 51.5177L148.633 59.5816L155.647 59.6107L155.627 64.3567L143.573 64.3066ZM168.222 64.409L168.346 34.5893L173.386 34.6102L173.262 64.43L168.222 64.409ZM184.892 64.8983C180.566 64.8803 178.101 61.8461 177.246 55.3324L181.742 54.8051C182.104 58.6287 183.022 60.1025 184.618 60.1091C185.878 60.1144 186.638 59.1515 186.645 57.4715C186.668 51.9276 177.858 49.5389 177.891 41.517C177.908 37.401 180.652 34.2204 184.768 34.2375C189.22 34.256 191.642 37.5841 192.036 43.8018L187.54 44.3291C187.303 40.6321 186.428 39.0325 184.916 39.0262C183.74 39.0213 182.938 39.942 182.931 41.5799C182.909 46.9559 191.719 49.3865 191.685 57.4505C191.666 61.9864 188.966 64.9152 184.892 64.8983ZM204.21 64.5586L204.334 34.7388L209.374 34.7598L209.25 64.5795L204.21 64.5586ZM217.312 64.613L217.417 39.5392L213.259 39.5219L213.278 34.776L226.634 34.8315L226.614 39.5774L222.457 39.5602L222.352 64.6339L217.312 64.613ZM238.804 64.7023L238.928 34.8826L250.478 34.9305L250.458 39.6765L243.948 39.6495L243.916 47.3774L249.46 47.4004L249.441 52.1044L243.897 52.0813L243.844 64.7232L238.804 64.7023ZM261.396 65.2162C256.189 65.1945 253.187 59.848 253.228 49.8521C253.27 39.8562 256.316 34.5348 261.524 34.5564C266.732 34.5781 269.734 39.9246 269.692 49.9205C269.651 59.9164 266.604 65.2378 261.396 65.2162ZM261.416 60.4282C263.39 60.4364 264.536 57.6272 264.568 49.8992C264.6 42.1713 263.478 39.3526 261.504 39.3444C259.53 39.3362 258.384 42.1455 258.352 49.8734C258.32 57.6013 259.442 60.42 261.416 60.4282ZM273.706 64.8473L273.83 35.0276L278.912 35.0487C285.632 35.0766 288.812 38.1138 288.79 43.2378C288.776 46.6398 287.296 49.1536 283.888 50.6095C285.271 51.2453 285.77 52.4653 286.392 54.4419L289.624 64.9135L284.416 64.8918L281.395 54.2112C281.064 52.9918 280.561 52.5697 279.512 52.5653L278.798 52.5624L278.746 64.8683L273.706 64.8473ZM279.95 48.1151C282.47 48.1256 283.737 46.4928 283.748 43.8049C283.759 41.1169 282.547 39.6838 279.985 39.6732L278.851 39.6685L278.816 48.1104L279.95 48.1151ZM297.039 55.8302C295.899 47.2574 301.41 45.0123 301.428 40.6863C301.434 39.1323 300.85 38.1639 299.506 38.1583C297.868 38.1515 296.938 39.7436 296.504 43.1859L292.012 42.6212C292.878 36.2407 295.662 33.3543 300.072 33.3726C304.104 33.3893 306.487 36.1293 306.47 40.1192C306.443 46.6712 299.757 48.6174 300.651 55.8452L297.039 55.8302ZM296.287 64.9411L296.311 59.1032L301.351 59.1241L301.327 64.9621L296.287 64.9411Z" fill="#FFF2E2"/>
</svg>
