<svg width="510" height="87" viewBox="0 0 510 87" fill="none" xmlns="http://www.w3.org/2000/svg">
<path d="M9.34647 0L510 11.361V86.155L0 82.2405L9.34647 0Z" fill="#FF6F98"/>
<path d="M40.6458 57.7105L40.7697 27.8908L45.8096 27.9117L45.6857 57.7315L40.6458 57.7105ZM57.3162 58.1998C52.9903 58.1818 50.5249 55.1476 49.6699 48.6339L54.1661 48.1066C54.5283 51.9302 55.4462 53.404 57.0421 53.4106C58.3021 53.4159 59.0621 52.453 59.0691 50.773C59.0921 45.2291 50.282 42.8404 50.3153 34.8185C50.3324 30.7025 53.0757 27.5219 57.1916 27.539C61.6436 27.5575 64.0658 30.8856 64.46 37.1033L59.9637 37.6306C59.7271 33.9336 58.8517 32.334 57.3397 32.3277C56.1637 32.3228 55.3619 33.2435 55.3551 34.8814C55.3328 40.2574 64.1428 42.688 64.1092 50.752C64.0904 55.2879 61.3902 58.2167 57.3162 58.1998ZM84.0244 58.3108C78.9844 58.2898 76.1083 53.0278 76.1502 42.9479C76.192 32.868 79.1538 27.6303 84.4458 27.6523C88.8978 27.6708 91.0266 30.8296 91.5374 39.3158L87.0412 39.8431C86.7287 34.1718 85.9799 32.4467 84.4259 32.4402C82.4939 32.4322 81.3062 35.2413 81.2741 42.9692C81.242 50.6971 82.4063 53.516 84.3383 53.524C85.8923 53.5305 86.7816 51.7702 87.141 46.1436L91.6327 46.7083C91.052 55.0639 88.5604 58.3296 84.0244 58.3108ZM105.642 57.9806L105.695 45.1707L100.655 45.1498L100.602 57.9596L95.5619 57.9387L95.6858 28.119L100.726 28.1399L100.675 40.4038L105.715 40.4247L105.766 28.1608L110.806 28.1818L110.682 58.0015L105.642 57.9806ZM115.31 58.0208L115.434 28.201L127.404 28.2507L127.384 32.9967L120.454 32.9679L120.423 40.5699L126.176 40.5938L126.157 45.2557L120.403 45.2318L120.37 53.2957L127.384 53.3249L127.364 58.0708L115.31 58.0208ZM131.49 58.088L131.614 28.2682L143.583 28.318L143.564 33.0639L136.634 33.0351L136.602 40.6371L142.356 40.661L142.337 45.3229L136.583 45.299L136.549 53.363L143.563 53.3921L143.544 58.1381L131.49 58.088ZM147.669 58.1552L147.793 28.3355L152.833 28.3564L152.782 40.6623L154.63 40.67L158.587 28.3803L163.543 28.4009L158.696 42.5349L163.797 58.2222L158.715 58.2011L154.694 45.4163L152.762 45.4083L152.709 58.1762L147.669 58.1552ZM172.006 58.2563L172.055 46.4544L165.662 28.4097L170.87 28.4314L174.724 41.0895L178.682 28.4638L183.638 28.4844L177.095 46.4754L177.046 58.2773L172.006 58.2563ZM195.101 58.3523L195.225 28.5325L200.223 28.5533C207.111 28.5819 210.456 32.1239 210.434 37.4998C210.411 43.0438 207.076 47.0619 200.188 47.0333L200.141 58.3732L195.101 58.3523ZM201.384 42.2923C203.988 42.3031 205.338 40.7127 205.351 37.7727C205.363 34.8327 204.025 33.3152 201.421 33.3043L200.245 33.2994L200.208 42.2874L201.384 42.2923ZM214.029 58.4309L214.153 28.6112L226.123 28.6609L226.103 33.4069L219.173 33.3781L219.141 40.98L224.895 41.0039L224.876 45.6659L219.122 45.642L219.088 53.7059L226.102 53.7351L226.083 58.481L214.029 58.4309ZM233.447 58.5116L233.552 33.4378L229.394 33.4206L229.413 28.6746L242.769 28.7301L242.75 33.4761L238.592 33.4588L238.487 58.5326L233.447 58.5116ZM246.552 58.5661L246.676 28.7463L258.646 28.7961L258.626 33.542L251.696 33.5132L251.665 41.1152L257.419 41.1391L257.399 45.801L251.645 45.7771L251.612 53.8411L258.626 53.8702L258.606 58.6162L246.552 58.5661ZM262.664 35.3648C264.261 34.9514 265.231 34.1155 265.237 32.6455L262.717 32.635L262.738 27.4691L267.778 27.49L267.758 32.404C267.75 34.3359 266.982 37.1888 262.946 38.054L262.664 35.3648ZM278.828 59.1202C274.502 59.1022 272.037 56.0679 271.182 49.5543L275.678 49.027C276.04 52.8505 276.958 54.3244 278.554 54.331C279.814 54.3362 280.574 53.3734 280.581 51.6934C280.604 46.1494 271.794 43.7608 271.827 35.7389C271.844 31.6229 274.588 28.4423 278.704 28.4594C283.156 28.4779 285.578 31.806 285.972 38.0237L281.476 38.551C281.239 34.854 280.364 33.2543 278.852 33.2481C277.676 33.2432 276.874 34.1638 276.867 35.8018C276.845 41.1778 285.655 43.6084 285.621 51.6723C285.602 56.2083 282.902 59.1371 278.828 59.1202ZM298.146 58.7804L298.27 28.9607L303.31 28.9816L303.206 54.0554L309.59 54.082L309.57 58.8279L298.146 58.7804ZM319.918 59.2909C314.71 59.2693 311.709 53.9228 311.75 43.9268C311.792 33.9309 314.838 28.6095 320.046 28.6312C325.254 28.6528 328.255 33.9993 328.214 43.9952C328.172 53.9912 325.126 59.3125 319.918 59.2909ZM319.938 54.503C321.912 54.5112 323.058 51.7019 323.09 43.974C323.122 36.246 322 33.4273 320.026 33.4191C318.052 33.4109 316.906 36.2202 316.874 43.9481C316.842 51.6761 317.964 54.4947 319.938 54.503ZM333.577 58.9277L331.055 29.0969L335.885 29.117L337.346 51.5093L340.183 35.9389L344.299 35.956L347.006 51.5074L348.653 29.17L353.483 29.1901L350.713 58.9989L344.875 58.9746L342.208 43.8854L339.415 58.9519L333.577 58.9277ZM372.297 59.5085C367.971 59.4906 365.506 56.4563 364.651 49.9427L369.147 49.4154C369.509 53.2389 370.427 54.7127 372.023 54.7194C373.283 54.7246 374.043 53.7617 374.05 52.0818C374.073 46.5378 365.263 44.1492 365.296 36.1273C365.313 32.0113 368.057 28.8307 372.173 28.8478C376.624 28.8663 379.047 32.1944 379.441 38.412L374.945 38.9394C374.708 35.2424 373.833 33.6427 372.321 33.6364C371.145 33.6315 370.343 34.5522 370.336 36.1902C370.314 41.5661 379.124 43.9968 379.09 52.0607C379.071 56.5967 376.371 59.5255 372.297 59.5085ZM390.658 59.7948C385.744 59.7744 383.114 55.8575 383.139 49.9355L383.224 29.3137L388.264 29.3346L388.178 49.9564C388.164 53.4004 388.956 54.9997 390.678 55.0069C392.4 55.014 393.204 53.4214 393.218 49.9774L393.304 29.3556L398.344 29.3765L398.258 49.9983C398.234 55.9203 395.572 59.8153 390.658 59.7948ZM410.537 59.6674C405.288 59.6456 402.327 54.3833 402.369 44.3454C402.411 34.2654 405.457 28.9861 410.707 29.0079C415.159 29.0264 417.412 32.4798 417.886 39.8738L413.389 40.4431C413.115 35.6959 412.199 33.8021 410.645 33.7957C408.713 33.7876 407.525 36.7647 407.493 44.3247C407.462 51.9266 408.751 54.872 410.683 54.88C412.405 54.8872 413.339 52.623 413.528 47.5838L410.462 47.571L410.48 43.1191L418.418 43.152L418.412 44.538C418.371 54.5759 415.703 59.6889 410.537 59.6674ZM420.604 59.2893L425.768 29.4905L432.488 29.5184L437.404 59.3591L432.364 59.3381L431.588 54.0848L426.296 54.0629L425.476 59.3095L420.604 59.2893ZM426.735 49.3606L431.187 49.3791L429.022 34.796L426.735 49.3606ZM440.75 59.373L440.874 29.5532L445.956 29.5743C452.676 29.6023 455.855 32.6395 455.834 37.7634C455.82 41.1654 454.339 43.6793 450.931 45.1351C452.314 45.7709 452.813 46.991 453.435 48.9676L456.668 59.4391L451.46 59.4175L448.438 48.7368C448.107 47.5174 447.605 47.0953 446.555 47.091L445.841 47.088L445.79 59.3939L440.75 59.373ZM446.993 42.6408C449.513 42.6512 450.78 41.0185 450.791 38.3305C450.802 35.6425 449.59 34.2095 447.028 34.1988L445.894 34.1941L445.859 42.636L446.993 42.6408ZM464.082 50.3558C462.942 41.783 468.453 39.5379 468.471 35.2119C468.478 33.6579 467.894 32.6895 466.55 32.6839C464.912 32.6771 463.981 34.2693 463.547 37.7115L459.055 37.1468C459.922 30.7664 462.706 27.8799 467.116 27.8982C471.148 27.915 473.53 30.6549 473.514 34.6449C473.486 41.1968 466.8 43.1431 467.694 50.3708L464.082 50.3558ZM463.33 59.4668L463.355 53.6288L468.395 53.6498L468.37 59.4877L463.33 59.4668Z" fill="#FFF2E2"/>
</svg>
