<svg width="295" height="306" viewBox="0 0 295 306" fill="none" xmlns="http://www.w3.org/2000/svg">
<path d="M24.9449 162.676C12.6357 162.325 5.99489 149.817 6.66572 126.281C7.33935 102.648 14.7831 90.4421 27.0923 90.7929C37.5305 91.0905 42.6179 99.3169 43.3056 116.682L32.7296 117.76C32.3575 106.613 30.3174 102.12 26.6738 102.016C22.1441 101.887 19.1875 108.8 18.6823 126.525C18.1743 144.349 21.0305 151.329 25.5603 151.458C29.5977 151.573 31.9157 146.318 32.6464 134.512L25.4578 134.307L25.7553 123.869L44.3668 124.399L44.2742 127.649C43.6034 151.184 37.0571 163.021 24.9449 162.676ZM52.8694 162.486L54.8622 92.57L66.6791 92.9068L65.0034 151.696L79.9714 152.122L79.6542 163.25L52.8694 162.486ZM103.957 165.421C92.4352 165.092 86.4924 155.757 86.8882 141.873L88.2663 93.5221L100.083 93.859L98.705 142.209C98.4748 150.284 100.239 154.08 104.277 154.195C108.314 154.31 110.292 150.621 110.522 142.546L111.9 94.1958L123.717 94.5326L122.339 142.883C121.943 156.768 115.478 165.749 103.957 165.421Z" fill="#4D0F00"/>
<path d="M137.485 162.224L135.206 79.8019L121.538 80.1797L121.107 64.579L165.01 63.3653L165.441 78.9661L151.773 79.3439L154.052 161.766L137.485 162.224ZM180.563 161.033L177.853 63.0103L217.2 61.9226L217.631 77.5234L194.851 78.1531L195.542 103.142L214.456 102.619L214.88 117.944L195.966 118.467L196.698 144.974L219.754 144.337L220.186 159.937L180.563 161.033ZM233.748 159.563L231.038 61.5401L249.814 61.0211L268.981 124.6L267.21 60.5402L282.673 60.1127L285.382 158.135L266.606 158.654L247.44 95.0754L249.211 159.135L233.748 159.563Z" fill="#4D0F00"/>
<path d="M49.1572 255.231L48.9013 180.272L77.9346 180.173L77.9753 192.103L61.6111 192.159L61.6774 211.585L75.6134 211.537L75.6538 223.362L61.7178 223.409L61.8263 255.188L49.1572 255.231ZM87.4573 255.1L87.2013 180.141L99.976 180.098C116.868 180.04 124.918 187.614 124.962 200.494C124.991 209.046 121.317 215.393 112.778 219.118C116.268 220.689 117.545 223.747 119.146 228.703L127.47 254.964L114.379 255.008L106.58 228.218C105.725 225.16 104.455 224.108 101.816 224.117L100.021 224.123L100.126 255.057L87.4573 255.1ZM102.833 212.923C109.168 212.901 112.321 208.773 112.298 202.016C112.275 195.259 109.201 191.68 102.761 191.702L99.9101 191.712L99.9825 212.932L102.833 212.923ZM135.758 254.935L135.502 179.977L165.591 179.874L165.632 191.804L148.212 191.863L148.277 210.973L162.741 210.923L162.781 222.642L148.317 222.691L148.386 242.962L166.018 242.902L166.058 254.832L135.758 254.935ZM176.43 254.796L176.174 179.838L206.263 179.735L206.303 191.665L188.883 191.724L188.949 210.834L203.413 210.784L203.453 222.503L188.989 222.553L189.058 242.823L206.689 242.763L206.73 254.693L176.43 254.796Z" fill="white"/>
</svg>
