<svg width="464" height="171" viewBox="0 0 464 171" fill="none" xmlns="http://www.w3.org/2000/svg">
<path d="M340.762 170.85V85.4252H358.118L367.031 132.228L376.179 85.4252H393.066V170.85H381.339V104.556L372.309 150.396H361.402L352.489 104.556V170.85H340.762Z" fill="#A3CF43"/>
<path d="M297.969 170.85V85.4252H331.013V97.3365H310.706V121.52H327.649V133.191H310.706V158.939H331.253V170.85H297.969Z" fill="#A3CF43"/>
<path d="M257.551 170.85V85.4252H270.055V158.939H288.458V170.85H257.551Z" fill="#A3CF43"/>
<path d="M211.262 161.586V85.4252H227.168C240.387 85.4252 247.481 92.8267 247.481 104.948C247.481 111.599 245.331 118.464 237.7 122.326C245.546 125.758 248.555 131.873 248.555 140.347C248.555 152.683 241.14 161.586 225.986 161.586H211.262ZM227.275 151.932C233.616 151.932 237.163 146.997 237.163 139.489C237.163 131.658 233.616 127.475 227.275 127.475H222.654V151.932H227.275ZM227.49 118.035C232.757 118.035 236.411 114.602 236.411 106.343C236.411 98.2974 232.757 95.0794 227.49 95.0794H222.654V118.035H227.49Z" fill="#A3CF43"/>
<path d="M181.364 162.659C168.467 162.659 160.836 148.607 160.836 123.506C160.836 98.4048 168.467 84.3525 181.364 84.3525C194.261 84.3525 201.891 98.4048 201.891 123.506C201.891 148.607 194.261 162.659 181.364 162.659ZM181.364 151.932C187.167 151.932 190.392 143.458 190.392 123.506C190.392 103.554 187.167 95.0794 181.364 95.0794C175.56 95.0794 172.336 103.554 172.336 123.506C172.336 143.458 175.56 151.932 181.364 151.932Z" fill="#A3CF43"/>
<path d="M116.16 161.586V85.4252H128.412C144.963 85.4252 153.346 92.934 153.346 106.021C153.346 115.031 149.262 121.36 140.235 124.9C143.781 126.616 144.963 129.727 146.683 134.662L155.926 161.586H144.319L135.076 133.374C134.108 130.371 132.711 129.191 129.809 129.191H127.552V161.586H116.16ZM130.777 119.108C138.192 119.108 141.954 114.817 141.954 107.201C141.954 99.7992 138.3 95.8302 130.777 95.8302H127.552V119.108H130.777Z" fill="#A3CF43"/>
<path d="M69.9961 161.586V85.4252H82.3557C99.0143 85.4252 107.935 94.4357 107.935 108.059C107.935 122.218 98.9068 132.194 81.3884 132.194V161.586H69.9961ZM84.5052 121.575C92.4584 121.575 96.5423 116.855 96.5423 108.703C96.5423 100.55 92.4584 96.0448 84.5052 96.0448H81.3884V121.575H84.5052Z" fill="#A3CF43"/>
<path d="M6.22286 159.036L12.9093 86.3327L26.9367 85.1179L46.0688 155.585L35.3958 156.51L32.0114 143.495L17.679 144.736L16.5909 158.138L6.22286 159.036ZM17.9206 134.557L30.0168 133.51L20.8731 97.833L17.9206 134.557Z" fill="#FF6F98"/>
<path d="M449.383 63.9225C441.06 64.3266 436.028 58.6271 433.743 45.9295L441.601 44.5435C443.001 52.7633 444.982 55.7646 448.644 55.5869C451.558 55.4455 453.113 53.1097 452.934 49.4348C452.351 37.4082 434.32 33.7628 433.554 17.9778C433.157 9.79299 438.183 3.35405 446.007 2.97427C454.497 2.56217 459.64 8.84228 460.981 20.9996L453.123 22.3857C452.234 14.3921 450.158 11.1443 446.662 11.314C443.832 11.4514 442.19 13.7077 442.372 17.466C442.928 28.908 460.962 32.637 461.745 48.756C462.175 57.609 457.207 63.5428 449.383 63.9225Z" fill="#FF6F98"/>
<path d="M397.858 66.4235L405.456 4.9426L416.928 4.38574L430.445 64.8417L421.716 65.2654L419.341 54.1051L407.62 54.6741L406.337 66.012L397.858 66.4235ZM408.117 46.0426L418.01 45.5624L411.609 14.9727L408.117 46.0426Z" fill="#FF6F98"/>
<path d="M383.368 67.1269L382.063 40.2493L370.043 40.8327L371.348 67.7104L362.116 68.1585L359.156 7.19006L368.389 6.74191L369.631 32.3315L381.65 31.748L380.408 6.15846L389.64 5.7103L392.6 66.6788L383.368 67.1269Z" fill="#FF6F98"/>
<path d="M315.614 70.2542V17.361H307.133V8.79077H332.908V17.361H324.427V70.2542H315.614Z" fill="#FF6F98"/>
<path d="M290.423 70.9806C280.928 71.9989 274.793 65.8382 271.336 51.5152L280.234 49.4084C282.382 58.6858 284.847 61.9748 289.025 61.5267C292.348 61.1703 293.972 58.4031 293.524 54.2255C292.057 40.5533 271.189 37.6054 269.264 19.6607C268.266 10.356 273.589 2.67823 282.514 1.72099C292.199 0.682281 298.5 7.49743 300.841 21.2679L291.944 23.3747C290.396 14.3209 287.805 10.7573 283.817 11.185C280.589 11.5313 278.86 14.2137 279.318 18.4863C280.714 31.4939 301.592 34.5366 303.557 52.8612C304.637 62.9255 299.348 70.0233 290.423 70.9806Z" fill="#FF6F98"/>
<path d="M235.754 70.2542L246.674 8.79077H258.54L269.46 70.2542H260.431L258.54 58.9138H246.416L244.524 70.2542H235.754ZM247.362 50.2569H257.594L252.521 19.179L247.362 50.2569Z" fill="#FF6F98"/>
<path d="M211.965 70.2542V8.79077H233.775V17.361H220.689V35.0209H232.046V43.6778H220.689V70.2542H211.965Z" fill="#FF6F98"/>
<path d="M169.445 70.254V2.45581H179.567V31.0075H184.246L194.368 2.45581H204.299L192.459 34.6361L205.159 70.254H194.941L184.628 40.461H179.567V70.254H169.445Z" fill="#FF6F98"/>
<path d="M125.547 70.254L137.674 2.45581H150.852L162.979 70.254H152.953L150.852 57.7448H137.388L135.287 70.254H125.547ZM138.438 48.1957H149.801L144.168 13.9147L138.438 48.1957Z" fill="#FF6F98"/>
<path d="M93.7148 70.254V2.45581H119.975V11.9094H103.837V31.1029H117.301V40.3655H103.837V60.8005H120.166V70.254H93.7148Z" fill="#FF6F98"/>
<path d="M52.125 70.254V2.45581H63.0109C77.7164 2.45581 85.1647 9.14014 85.1647 20.79C85.1647 28.8112 81.5361 34.4451 73.5149 37.5963C76.666 39.1241 77.7164 41.8934 79.2443 46.2859L87.4565 70.254H77.1435L68.9313 45.14C68.0719 42.4663 66.8305 41.4159 64.2523 41.4159H62.247V70.254H52.125ZM65.1117 32.4398C71.7005 32.4398 75.0427 28.6202 75.0427 21.8404C75.0427 15.2515 71.796 11.7184 65.1117 11.7184H62.247V32.4398H65.1117Z" fill="#FF6F98"/>
<path d="M11.0078 70.254V2.45581H25.1404C36.8857 2.45581 43.1881 9.04465 43.1881 19.8351C43.1881 25.7555 41.2783 31.8669 34.4984 35.3045C41.4693 38.3602 44.143 43.8032 44.143 51.3469C44.143 62.3283 37.5541 70.254 24.09 70.254H11.0078ZM25.2359 61.6599C30.8698 61.6599 34.021 57.2673 34.021 50.583C34.021 43.6122 30.8698 39.8881 25.2359 39.8881H21.1298V61.6599H25.2359ZM25.4269 31.4849C30.1059 31.4849 33.3526 28.4292 33.3526 21.0764C33.3526 13.9147 30.1059 11.05 25.4269 11.05H21.1298V31.4849H25.4269Z" fill="#FF6F98"/>
</svg>
