<svg width="622" height="374" viewBox="0 0 622 374" fill="none" xmlns="http://www.w3.org/2000/svg">
<path d="M0 26.5994L622 0V357.415L6.90345e-05 373.061L0 26.5994Z" fill="#FF6F98"/>
<path d="M41.3 133V57.7398H56.988C70.026 57.7398 77.022 65.0538 77.022 77.0318C77.022 83.6038 74.902 90.3878 67.376 94.2038C75.114 97.5958 78.082 103.638 78.082 112.012C78.082 124.202 70.768 133 55.822 133H41.3ZM57.094 123.46C63.348 123.46 66.846 118.584 66.846 111.164C66.846 103.426 63.348 99.2918 57.094 99.2918H52.536V123.46H57.094ZM57.306 89.9638C62.5 89.9638 66.104 86.5718 66.104 78.4098C66.104 70.4598 62.5 67.2798 57.306 67.2798H52.536V89.9638H57.306Z" fill="white"/>
<path d="M89.0704 133V57.7398H101.154C117.478 57.7398 125.746 65.1598 125.746 78.0918C125.746 86.9958 121.718 93.2498 112.814 96.7478C116.312 98.4438 117.478 101.518 119.174 106.394L128.29 133H116.842L107.726 105.122C106.772 102.154 105.394 100.988 102.532 100.988H100.306V133H89.0704ZM103.486 91.0238C110.8 91.0238 114.51 86.7838 114.51 79.2578C114.51 71.9438 110.906 68.0218 103.486 68.0218H100.306V91.0238H103.486Z" fill="white"/>
<path d="M137.358 133V57.7398H166.508V68.2338H148.594V89.5398H163.54V99.8218H148.594V122.506H166.72V133H137.358Z" fill="white"/>
<path d="M174.806 133L188.268 57.7398H202.896L216.358 133H205.228L202.896 119.114H187.95L185.618 133H174.806ZM189.116 108.514H201.73L195.476 70.4598L189.116 108.514Z" fill="white"/>
<path d="M225.653 133V57.7398H236.889V89.4338H242.083L253.319 57.7398H264.343L251.199 93.4618L265.297 133H253.955L242.507 99.9278H236.889V133H225.653Z" fill="white"/>
<path d="M274.976 133V57.7398H303.066V68.2338H286.212V89.8578H300.84V100.458H286.212V133H274.976Z" fill="white"/>
<path d="M306.834 133L320.296 57.7398H334.924L348.386 133H337.256L334.924 119.114H319.978L317.646 133H306.834ZM321.144 108.514H333.758L327.504 70.4598L321.144 108.514Z" fill="white"/>
<path d="M379.596 134.28C366.796 134.28 359.5 125.192 356.94 105.608L369.1 104.072C370.636 116.744 373.452 121.48 379.084 121.48C383.564 121.48 386.124 118.024 386.124 112.392C386.124 93.9598 358.732 87.0478 358.732 62.8558C358.732 50.3118 366.924 40.8398 378.956 40.8398C392.012 40.8398 399.436 50.8238 400.588 69.5118L388.428 71.0478C387.66 58.7598 384.716 53.6398 379.34 53.6398C374.988 53.6398 372.3 56.9678 372.3 62.7278C372.3 80.2638 399.692 87.3038 399.692 112.008C399.692 125.576 391.628 134.28 379.596 134.28Z" fill="white"/>
<path d="M422.8 133V54.7918H409.744V42.1198H449.424V54.7918H436.368V133H422.8Z" fill="white"/>
<path d="M461.171 139.254C464.775 138.194 467.001 136.286 467.001 133H461.383V119.538H472.725V131.94C472.725 136.816 471.029 143.07 461.807 145.296L461.171 139.254Z" fill="white"/>
<path d="M39.4225 198V149.401H49.553C57.9723 149.401 62.49 154.124 62.49 161.858C62.49 166.102 61.121 170.483 56.2611 172.947C61.2579 175.138 63.1745 179.039 63.1745 184.447C63.1745 192.319 58.4515 198 48.8001 198H39.4225ZM49.6215 191.839C53.66 191.839 55.9189 188.691 55.9189 183.899C55.9189 178.902 53.66 176.233 49.6215 176.233H46.6781V191.839H49.6215ZM49.7584 170.209C53.1124 170.209 55.4397 168.019 55.4397 162.748C55.4397 157.614 53.1124 155.561 49.7584 155.561H46.6781V170.209H49.7584Z" fill="white"/>
<path d="M82.0405 199.027C74.3056 199.027 70.0618 192.866 70.0618 183.215V149.401H77.3174V183.215C77.3174 189.307 78.8233 192.182 82.0405 192.182C85.2576 192.182 86.7635 189.307 86.7635 183.215V149.401H94.0192V183.215C94.0192 192.866 89.7753 199.027 82.0405 199.027Z" fill="white"/>
<path d="M107.67 198V156.177H100.688V149.401H121.908V156.177H114.926V198H107.67Z" fill="white"/>
<path d="M142.56 198V149.401H152.69L157.892 176.027L163.231 149.401H173.088V198H166.243V160.284L160.973 186.363H154.607L149.405 160.284V198H142.56Z" fill="white"/>
<path d="M179.108 198L187.801 149.401H197.247L205.94 198H198.753L197.247 189.033H187.596L186.09 198H179.108ZM188.349 182.188H196.494L192.456 157.614L188.349 182.188Z" fill="white"/>
<path d="M211.943 198V149.401H219.198V169.867H222.552L229.808 149.401H236.927L228.439 172.468L237.543 198H230.219L222.826 176.644H219.198V198H211.943Z" fill="white"/>
<path d="M243.793 198V149.401H262.617V156.177H251.049V169.935H260.7V176.575H251.049V191.223H262.754V198H243.793Z" fill="white"/>
<path d="M283.965 198V149.401H291.22V198H283.965Z" fill="white"/>
<path d="M305.188 198V156.177H298.206V149.401H319.425V156.177H312.443V198H305.188Z" fill="white"/>
<path d="M43.3105 295.346C39.8458 295.346 37.8709 292.886 37.178 287.585L40.4695 287.17C40.8852 290.6 41.6475 291.882 43.1719 291.882C44.3846 291.882 45.0775 290.946 45.0775 289.422C45.0775 284.432 37.663 282.561 37.663 276.013C37.663 272.618 39.8805 270.054 43.1373 270.054C46.6713 270.054 48.6809 272.756 48.9927 277.815L45.7012 278.231C45.4933 274.904 44.6964 273.519 43.2412 273.519C42.0632 273.519 41.3356 274.419 41.3356 275.979C41.3356 280.725 48.7501 282.631 48.7501 289.318C48.7501 292.99 46.5674 295.346 43.3105 295.346Z" fill="white"/>
<path d="M57.8396 295.346C54.167 295.346 51.7764 291.708 51.7764 285.61C51.7764 279.513 54.3056 275.875 57.9782 275.875C62.1012 275.875 63.7643 279.513 63.7643 286.581H55.345C55.3797 287.724 55.4836 288.625 55.6569 289.387C56.0726 291.5 57.0081 292.159 57.8743 292.159C59.0523 292.159 60.057 291.293 60.2996 288.417L63.5564 288.798C63.106 292.713 60.8886 295.346 57.8396 295.346ZM60.3342 283.705C60.2303 280.309 59.2255 279.062 58.0129 279.062C56.8002 279.062 55.6569 280.102 55.3797 283.705H60.3342Z" fill="white"/>
<path d="M72.811 295.346C69.1384 295.346 66.7478 291.708 66.7478 285.61C66.7478 279.513 69.277 275.875 72.9496 275.875C77.0726 275.875 78.7357 279.513 78.7357 286.581H70.3164C70.3511 287.724 70.455 288.625 70.6282 289.387C71.044 291.5 71.9795 292.159 72.8457 292.159C74.0237 292.159 75.0284 291.293 75.271 288.417L78.5278 288.798C78.0774 292.713 75.86 295.346 72.811 295.346ZM75.3056 283.705C75.2017 280.309 74.1969 279.062 72.9842 279.062C71.7716 279.062 70.6282 280.102 70.3511 283.705H75.3056Z" fill="white"/>
<path d="M82.1712 295V276.221H85.4973V279.166C86.1903 277.087 87.6454 275.875 89.6203 275.875C92.2535 275.875 93.9512 278.3 93.9512 282.284V295H90.3826V283.185C90.3826 280.448 89.655 279.201 88.1998 279.201C86.5714 279.201 85.7398 280.725 85.7398 283.809V295H82.1712Z" fill="white"/>
<path d="M110.592 295.346C106.781 295.346 104.252 291.708 104.252 285.61C104.252 279.513 106.781 275.875 110.592 275.875C114.369 275.875 116.933 279.513 116.933 285.61C116.933 291.708 114.369 295.346 110.592 295.346ZM110.592 292.02C112.394 292.02 113.295 289.872 113.295 285.61C113.295 281.349 112.394 279.201 110.592 279.201C108.756 279.201 107.89 281.349 107.89 285.61C107.89 289.872 108.756 292.02 110.592 292.02Z" fill="white"/>
<path d="M120.318 295V276.221H123.644V279.166C124.337 277.087 125.793 275.875 127.767 275.875C130.401 275.875 132.098 278.3 132.098 282.284V295H128.53V283.185C128.53 280.448 127.802 279.201 126.347 279.201C124.718 279.201 123.887 280.725 123.887 283.809V295H120.318Z" fill="white"/>
<path d="M145.206 295V279.478H142.191V276.221H145.206V272.341L148.774 271.856V276.221H152.135V279.478H148.774V295H145.206Z" fill="white"/>
<path d="M155.251 295V269.292H158.82V278.542C159.582 276.845 160.933 275.875 162.7 275.875C165.333 275.875 167.031 278.3 167.031 282.284V295H163.462V283.185C163.462 280.448 162.735 279.201 161.28 279.201C159.651 279.201 158.82 280.725 158.82 283.809V295H155.251Z" fill="white"/>
<path d="M176.443 295.346C172.77 295.346 170.379 291.708 170.379 285.61C170.379 279.513 172.909 275.875 176.581 275.875C180.704 275.875 182.367 279.513 182.367 286.581H173.948C173.983 287.724 174.087 288.625 174.26 289.387C174.676 291.5 175.611 292.159 176.477 292.159C177.655 292.159 178.66 291.293 178.903 288.417L182.16 288.798C181.709 292.713 179.492 295.346 176.443 295.346ZM178.937 283.705C178.833 280.309 177.829 279.062 176.616 279.062C175.403 279.062 174.26 280.102 173.983 283.705H178.937Z" fill="white"/>
<path d="M195.076 295V279.478H192.062V276.221H195.076V272.341L198.645 271.856V276.221H202.005V279.478H198.645V295H195.076Z" fill="white"/>
<path d="M208.013 295.346C205.587 295.346 204.028 293.475 204.028 290.669C204.028 287.17 206.523 284.432 211.997 283.289V282.631C211.997 280.102 211.443 279.062 210.091 279.062C208.636 279.062 207.805 280.344 207.562 282.977L204.305 282.561C204.79 278.3 207.008 275.875 210.403 275.875C213.729 275.875 215.566 278.265 215.566 282.596V295H212.24V292.02C211.477 294.203 209.953 295.346 208.013 295.346ZM209.225 292.159C211.027 292.159 211.997 290.115 211.997 287.412V286.026C208.983 286.615 207.527 288.278 207.527 290.149C207.527 291.293 207.978 292.159 209.225 292.159Z" fill="white"/>
<path d="M226.482 295.346C224.75 295.346 223.537 294.307 222.879 292.332V295H219.553V269.292H223.122V278.508C223.884 276.81 225.166 275.875 226.794 275.875C229.843 275.875 231.818 279.409 231.818 285.299C231.818 291.466 229.878 295.346 226.482 295.346ZM225.408 292.02C227.21 292.02 228.18 289.803 228.18 285.576C228.18 281.453 227.21 279.201 225.478 279.201C223.988 279.201 223.122 280.829 223.122 283.67V287.551C223.122 290.496 223.919 292.02 225.408 292.02Z" fill="white"/>
<path d="M235.438 295V269.292H239.007V295H235.438Z" fill="white"/>
<path d="M248.508 295.346C244.835 295.346 242.444 291.708 242.444 285.61C242.444 279.513 244.974 275.875 248.646 275.875C252.769 275.875 254.432 279.513 254.432 286.581H246.013C246.048 287.724 246.152 288.625 246.325 289.387C246.741 291.5 247.676 292.159 248.542 292.159C249.72 292.159 250.725 291.293 250.968 288.417L254.224 288.798C253.774 292.713 251.557 295.346 248.508 295.346ZM251.002 283.705C250.898 280.309 249.893 279.062 248.681 279.062C247.468 279.062 246.325 280.102 246.048 283.705H251.002Z" fill="white"/>
<path d="M262.788 295.346C259.669 295.346 257.729 293.129 257.209 289.144L260.328 288.763C260.57 291.085 261.367 292.228 262.718 292.228C263.792 292.228 264.416 291.535 264.416 290.461C264.416 286.962 257.66 286.511 257.66 281.002C257.66 277.953 259.739 275.875 262.857 275.875C265.941 275.875 267.742 278.057 268.054 282.007L264.936 282.388C264.936 280.171 264.139 278.993 262.753 278.993C261.748 278.993 261.09 279.651 261.09 280.76C261.09 284.363 267.881 284.64 267.881 290.219C267.881 293.302 265.837 295.346 262.788 295.346Z" fill="white"/>
<path d="M284.157 295.346C280.346 295.346 277.817 291.708 277.817 285.61C277.817 279.513 280.346 275.875 284.157 275.875C287.934 275.875 290.498 279.513 290.498 285.61C290.498 291.708 287.934 295.346 284.157 295.346ZM284.157 292.02C285.959 292.02 286.86 289.872 286.86 285.61C286.86 281.349 285.959 279.201 284.157 279.201C282.321 279.201 281.455 281.349 281.455 285.61C281.455 289.872 282.321 292.02 284.157 292.02Z" fill="white"/>
<path d="M295.355 295V279.478H292.549V276.221H295.355V275.251C295.355 271.405 297.469 268.945 300.899 268.945C302.112 268.945 302.909 269.153 303.532 269.534L303.151 272.722C302.701 272.375 302.008 272.202 301.28 272.202C299.79 272.202 298.924 273.241 298.924 275.216V276.221H303.082V279.478H298.924V295H295.355Z" fill="white"/>
<path d="M319.93 295.346C318.197 295.346 316.985 294.307 316.327 292.332V295H313V269.292H316.569V278.508C317.331 276.81 318.613 275.875 320.242 275.875C323.291 275.875 325.265 279.409 325.265 285.299C325.265 291.466 323.325 295.346 319.93 295.346ZM318.856 292.02C320.657 292.02 321.628 289.803 321.628 285.576C321.628 281.453 320.657 279.201 318.925 279.201C317.435 279.201 316.569 280.829 316.569 283.67V287.551C316.569 290.496 317.366 292.02 318.856 292.02Z" fill="white"/>
<path d="M333.077 295.346C330.444 295.346 328.746 292.921 328.746 288.937V276.221H332.315V288.036C332.315 290.773 333.042 292.02 334.497 292.02C336.126 292.02 336.957 290.496 336.957 287.412V276.221H340.526V295H337.2V292.055C336.507 294.134 335.052 295.346 333.077 295.346Z" fill="white"/>
<path d="M349.452 295.346C346.333 295.346 344.393 293.129 343.873 289.144L346.992 288.763C347.234 291.085 348.031 292.228 349.382 292.228C350.456 292.228 351.08 291.535 351.08 290.461C351.08 286.962 344.324 286.511 344.324 281.002C344.324 277.953 346.403 275.875 349.521 275.875C352.605 275.875 354.406 278.057 354.718 282.007L351.6 282.388C351.6 280.171 350.803 278.993 349.417 278.993C348.412 278.993 347.754 279.651 347.754 280.76C347.754 284.363 354.545 284.64 354.545 290.219C354.545 293.302 352.501 295.346 349.452 295.346Z" fill="white"/>
<path d="M359.68 302.276C358.571 302.276 357.809 302.068 357.22 301.687L357.601 298.499C358.086 298.846 358.606 299.019 359.264 299.019C360.615 299.019 361.412 298.361 361.793 296.698L362.209 295H360.962L356.874 276.221H360.546L363.318 290.426L366.124 276.221H369.624L365.05 297.287C364.392 300.37 362.59 302.276 359.68 302.276Z" fill="white"/>
<path d="M381.715 295V279.478H378.909V276.221H381.715V275.251C381.715 271.405 383.829 268.945 387.259 268.945C388.471 268.945 389.268 269.153 389.892 269.534L389.511 272.722C389.06 272.375 388.367 272.202 387.64 272.202C386.15 272.202 385.284 273.241 385.284 275.216V276.221H389.441V279.478H385.284V295H381.715Z" fill="white"/>
<path d="M395.229 295.346C392.804 295.346 391.245 293.475 391.245 290.669C391.245 287.17 393.739 284.432 399.214 283.289V282.631C399.214 280.102 398.659 279.062 397.308 279.062C395.853 279.062 395.021 280.344 394.779 282.977L391.522 282.561C392.007 278.3 394.225 275.875 397.62 275.875C400.946 275.875 402.782 278.265 402.782 282.596V295H399.456V292.02C398.694 294.203 397.17 295.346 395.229 295.346ZM396.442 292.159C398.244 292.159 399.214 290.115 399.214 287.412V286.026C396.199 286.615 394.744 288.278 394.744 290.149C394.744 291.293 395.195 292.159 396.442 292.159Z" fill="white"/>
<path d="M406.734 295V276.221H410.06V279.027C410.753 276.983 412.105 275.875 413.837 275.875C415.639 275.875 417.025 277.053 417.614 279.062C418.307 277.018 419.692 275.875 421.494 275.875C424.023 275.875 425.617 278.127 425.617 282.076V295H422.048V282.804C422.048 280.24 421.39 279.201 420.177 279.201C418.757 279.201 417.96 280.552 417.96 283.532V295H414.391V282.908C414.391 280.309 413.698 279.201 412.486 279.201C411.1 279.201 410.303 280.587 410.303 283.532V295H406.734Z" fill="white"/>
<path d="M429.591 295V276.221H433.16V295H429.591ZM429.556 273.969V269.292H433.194V273.969H429.556Z" fill="white"/>
<path d="M437.254 295V269.292H440.823V295H437.254Z" fill="white"/>
<path d="M444.917 295V276.221H448.486V295H444.917ZM444.882 273.969V269.292H448.52V273.969H444.882Z" fill="white"/>
<path d="M457.987 295.346C454.314 295.346 451.923 291.708 451.923 285.61C451.923 279.513 454.453 275.875 458.125 275.875C462.248 275.875 463.911 279.513 463.911 286.581H455.492C455.527 287.724 455.631 288.625 455.804 289.387C456.22 291.5 457.155 292.159 458.021 292.159C459.199 292.159 460.204 291.293 460.446 288.417L463.703 288.798C463.253 292.713 461.035 295.346 457.987 295.346ZM460.481 283.705C460.377 280.309 459.372 279.062 458.16 279.062C456.947 279.062 455.804 280.102 455.527 283.705H460.481Z" fill="white"/>
<path d="M472.267 295.346C469.148 295.346 467.208 293.129 466.688 289.144L469.807 288.763C470.049 291.085 470.846 292.228 472.197 292.228C473.271 292.228 473.895 291.535 473.895 290.461C473.895 286.962 467.139 286.511 467.139 281.002C467.139 277.953 469.218 275.875 472.336 275.875C475.42 275.875 477.221 278.057 477.533 282.007L474.415 282.388C474.415 280.171 473.618 278.993 472.232 278.993C471.227 278.993 470.569 279.651 470.569 280.76C470.569 284.363 477.36 284.64 477.36 290.219C477.36 293.302 475.316 295.346 472.267 295.346Z" fill="white"/>
<path d="M480.728 297.044C481.906 296.698 482.633 296.074 482.633 295H480.797V290.6H484.504V294.653C484.504 296.247 483.95 298.291 480.936 299.019L480.728 297.044Z" fill="white"/>
<path d="M41.1971 330.346C38.7718 330.346 37.2126 328.475 37.2126 325.669C37.2126 322.17 39.7072 319.432 45.1815 318.289V317.631C45.1815 315.102 44.6271 314.062 43.2759 314.062C41.8207 314.062 40.9892 315.344 40.7466 317.977L37.4898 317.561C37.9749 313.3 40.1923 310.875 43.5877 310.875C46.9138 310.875 48.7501 313.265 48.7501 317.596V330H45.424V327.02C44.6618 329.203 43.1373 330.346 41.1971 330.346ZM42.4097 327.159C44.2114 327.159 45.1815 325.115 45.1815 322.412V321.026C42.1672 321.615 40.712 323.278 40.712 325.149C40.712 326.293 41.1624 327.159 42.4097 327.159Z" fill="white"/>
<path d="M54.4136 330V314.478H51.3993V311.221H54.4136V307.341L57.9823 306.855V311.221H61.3431V314.478H57.9823V330H54.4136Z" fill="white"/>
<path d="M64.4591 330V304.292H68.0278V313.542C68.79 311.845 70.1413 310.875 71.9083 310.875C74.5415 310.875 76.2392 313.3 76.2392 317.284V330H72.6705V318.185C72.6705 315.448 71.9429 314.201 70.4878 314.201C68.8593 314.201 68.0278 315.725 68.0278 318.809V330H64.4591Z" fill="white"/>
<path d="M80.2104 330V304.292H83.779V330H80.2104Z" fill="white"/>
<path d="M93.2799 330.346C89.6073 330.346 87.2167 326.708 87.2167 320.61C87.2167 314.513 89.7459 310.875 93.4185 310.875C97.5415 310.875 99.2046 314.513 99.2046 321.581H90.7853C90.82 322.724 90.9239 323.625 91.0972 324.387C91.5129 326.5 92.4484 327.159 93.3146 327.159C94.4926 327.159 95.4974 326.293 95.7399 323.417L98.9967 323.798C98.5463 327.713 96.3289 330.346 93.2799 330.346ZM95.7745 318.705C95.6706 315.309 94.6658 314.062 93.4532 314.062C92.2405 314.062 91.0972 315.102 90.82 318.705H95.7745Z" fill="white"/>
<path d="M104.385 330V314.478H101.371V311.221H104.385V307.341L107.954 306.855V311.221H111.315V314.478H107.954V330H104.385Z" fill="white"/>
<path d="M119.332 330.346C115.659 330.346 113.268 326.708 113.268 320.61C113.268 314.513 115.798 310.875 119.47 310.875C123.593 310.875 125.256 314.513 125.256 321.581H116.837C116.872 322.724 116.976 323.625 117.149 324.387C117.565 326.5 118.5 327.159 119.366 327.159C120.544 327.159 121.549 326.293 121.792 323.417L125.048 323.798C124.598 327.713 122.381 330.346 119.332 330.346ZM121.826 318.705C121.722 315.309 120.718 314.062 119.505 314.062C118.292 314.062 117.149 315.102 116.872 318.705H121.826Z" fill="white"/>
<path d="M133.612 330.346C130.493 330.346 128.553 328.129 128.034 324.144L131.152 323.763C131.394 326.085 132.191 327.228 133.542 327.228C134.616 327.228 135.24 326.535 135.24 325.461C135.24 321.962 128.484 321.511 128.484 316.002C128.484 312.953 130.563 310.875 133.681 310.875C136.765 310.875 138.566 313.057 138.878 317.007L135.76 317.388C135.76 315.171 134.963 313.993 133.577 313.993C132.572 313.993 131.914 314.651 131.914 315.76C131.914 319.363 138.705 319.64 138.705 325.219C138.705 328.302 136.661 330.346 133.612 330.346Z" fill="white"/>
<path d="M142.073 332.044C143.251 331.698 143.979 331.074 143.979 330H142.142V325.6H145.85V329.653C145.85 331.247 145.295 333.291 142.281 334.019L142.073 332.044Z" fill="white"/>
<path d="M160.392 330.346C157.966 330.346 156.407 328.475 156.407 325.669C156.407 322.17 158.902 319.432 164.376 318.289V317.631C164.376 315.102 163.822 314.062 162.47 314.062C161.015 314.062 160.184 315.344 159.941 317.977L156.684 317.561C157.169 313.3 159.387 310.875 162.782 310.875C166.108 310.875 167.945 313.265 167.945 317.596V330H164.619V327.02C163.856 329.203 162.332 330.346 160.392 330.346ZM161.604 327.159C163.406 327.159 164.376 325.115 164.376 322.412V321.026C161.362 321.615 159.907 323.278 159.907 325.149C159.907 326.293 160.357 327.159 161.604 327.159Z" fill="white"/>
<path d="M171.897 330V311.221H175.223V314.166C175.916 312.087 177.371 310.875 179.346 310.875C181.979 310.875 183.677 313.3 183.677 317.284V330H180.108V318.185C180.108 315.448 179.38 314.201 177.925 314.201C176.297 314.201 175.465 315.725 175.465 318.809V330H171.897Z" fill="white"/>
<path d="M192.291 330.346C189.069 330.346 187.129 326.708 187.129 320.818C187.129 314.72 189.173 310.875 192.465 310.875C193.989 310.875 195.132 311.671 195.825 313.231V304.292H199.394V330H196.068V327.193C195.375 329.203 194.058 330.346 192.291 330.346ZM190.732 320.645C190.732 324.768 191.737 327.02 193.469 327.02C194.959 327.02 195.825 325.392 195.825 322.551V318.67C195.825 315.725 195.029 314.201 193.504 314.201C191.737 314.201 190.732 316.418 190.732 320.645Z" fill="white"/>
<path d="M215.821 330.346C212.252 330.346 209.896 326.708 209.896 320.714C209.896 314.547 212.391 310.875 215.994 310.875C219.078 310.875 221.191 313.577 221.538 318.151L218.281 318.532C218.142 315.552 217.345 314.062 215.959 314.062C214.435 314.062 213.43 316.176 213.43 320.576C213.43 325.045 214.4 327.159 215.994 327.159C217.311 327.159 218.142 325.738 218.35 322.655L221.607 323.07C221.191 327.644 218.905 330.346 215.821 330.346Z" fill="white"/>
<path d="M224.983 330V311.221H228.205V314.374C228.829 312.226 230.215 310.875 232.086 310.875C232.917 310.875 233.368 311.048 233.853 311.36L233.437 315.032C232.986 314.651 232.501 314.443 231.67 314.443C229.556 314.443 228.552 315.864 228.552 318.254V330H224.983Z" fill="white"/>
<path d="M241.47 330.346C237.797 330.346 235.407 326.708 235.407 320.61C235.407 314.513 237.936 310.875 241.608 310.875C245.731 310.875 247.395 314.513 247.395 321.581H238.975C239.01 322.724 239.114 323.625 239.287 324.387C239.703 326.5 240.638 327.159 241.505 327.159C242.683 327.159 243.687 326.293 243.93 323.417L247.187 323.798C246.736 327.713 244.519 330.346 241.47 330.346ZM243.964 318.705C243.861 315.309 242.856 314.062 241.643 314.062C240.43 314.062 239.287 315.102 239.01 318.705H243.964Z" fill="white"/>
<path d="M254.296 330.346C251.871 330.346 250.312 328.475 250.312 325.669C250.312 322.17 252.807 319.432 258.281 318.289V317.631C258.281 315.102 257.726 314.062 256.375 314.062C254.92 314.062 254.088 315.344 253.846 317.977L250.589 317.561C251.074 313.3 253.292 310.875 256.687 310.875C260.013 310.875 261.849 313.265 261.849 317.596V330H258.523V327.02C257.761 329.203 256.237 330.346 254.296 330.346ZM255.509 327.159C257.311 327.159 258.281 325.115 258.281 322.412V321.026C255.266 321.615 253.811 323.278 253.811 325.149C253.811 326.293 254.262 327.159 255.509 327.159Z" fill="white"/>
<path d="M267.513 330V314.478H264.499V311.221H267.513V307.341L271.082 306.855V311.221H274.442V314.478H271.082V330H267.513Z" fill="white"/>
<path d="M282.736 330.346C278.925 330.346 276.396 326.708 276.396 320.61C276.396 314.513 278.925 310.875 282.736 310.875C286.513 310.875 289.077 314.513 289.077 320.61C289.077 326.708 286.513 330.346 282.736 330.346ZM282.736 327.02C284.538 327.02 285.439 324.872 285.439 320.61C285.439 316.349 284.538 314.201 282.736 314.201C280.9 314.201 280.034 316.349 280.034 320.61C280.034 324.872 280.9 327.02 282.736 327.02Z" fill="white"/>
<path d="M292.498 330V311.221H295.72V314.374C296.343 312.226 297.729 310.875 299.6 310.875C300.432 310.875 300.882 311.048 301.367 311.36L300.952 315.032C300.501 314.651 300.016 314.443 299.185 314.443C297.071 314.443 296.066 315.864 296.066 318.254V330H292.498Z" fill="white"/>
<path d="M308.733 330.346C305.615 330.346 303.675 328.129 303.155 324.144L306.273 323.763C306.516 326.085 307.313 327.228 308.664 327.228C309.738 327.228 310.362 326.535 310.362 325.461C310.362 321.962 303.605 321.511 303.605 316.002C303.605 312.953 305.684 310.875 308.802 310.875C311.886 310.875 313.688 313.057 313.999 317.007L310.881 317.388C310.881 315.171 310.084 313.993 308.698 313.993C307.694 313.993 307.035 314.651 307.035 315.76C307.035 319.363 313.826 319.64 313.826 325.219C313.826 328.302 311.782 330.346 308.733 330.346Z" fill="white"/>
<path d="M317.264 330V325.322H320.971V330H317.264Z" fill="white"/>
<path d="M346.519 196.517C340.372 196.517 336.911 189.956 336.911 177.714C336.911 165.368 340.476 158.807 346.778 158.807C352.047 158.807 354.63 162.888 355.301 172.961L350.394 173.581C349.981 166.504 348.844 163.973 346.778 163.973C344.04 163.973 342.439 168.209 342.439 177.662C342.439 187.115 344.04 191.351 346.778 191.351C348.896 191.351 350.135 188.716 350.549 181.743L355.456 182.363C354.785 192.229 351.788 196.517 346.519 196.517Z" fill="white"/>
<path d="M358.708 196L365.268 159.324H372.397L378.957 196H373.533L372.397 189.233H365.113L363.977 196H358.708ZM365.681 184.067H371.829L368.781 165.523L365.681 184.067Z" fill="white"/>
<path d="M383.487 196V159.324H388.962V190.886H397.021V196H383.487Z" fill="white"/>
<path d="M401.873 196V159.324H409.519L413.445 179.418L417.474 159.324H424.912V196H419.747V167.537L415.769 187.218H410.965L407.039 167.537V196H401.873Z" fill="white"/>
<path d="M431.106 196V189.026H436.633V196H431.106Z" fill="white"/>
</svg>
