<svg width="557" height="222" viewBox="0 0 557 222" fill="none" xmlns="http://www.w3.org/2000/svg">
<path d="M407.986 201.706C406.127 187.047 415.423 183.311 415.423 175.77C415.423 172.951 414.321 171.048 411.842 171.048C408.675 171.048 407.022 173.867 406.265 180.351L399.723 179.505C401.031 168.934 405.369 164 412.462 164C418.935 164 422.723 168.581 422.723 174.924C422.723 185.919 411.774 189.372 413.289 201.706H407.986ZM406.953 217V207.485H414.321V217H406.953Z" fill="#FF6F98"/>
<path d="M382.002 218C373.545 218 368.723 208.953 368.723 192.142C368.723 175.189 373.615 166 382.142 166C389.201 166 392.975 171.912 393.814 184.164L387.174 185.019C386.685 176.97 384.868 173.123 381.932 173.123C378.368 173.123 376.201 179.178 376.201 192C376.201 204.893 378.577 210.877 382.282 210.877C385.497 210.877 387.454 206.104 387.594 196.773H381.862V190.077H394.723V192.427C394.723 209.238 390.389 218 382.002 218Z" fill="#FF6F98"/>
<path d="M336.723 217V167H345.341L355.54 201.507V167H362.723V217H354.104L343.905 182.493V217H336.723Z" fill="#FF6F98"/>
<path d="M323.305 214.005V166.793H330.353V214.005H323.305Z" fill="#FF6F98"/>
<path d="M292.59 214.005V166.793H300.569L310.012 199.376V166.793H316.661V214.005H308.682L299.239 181.422V214.005H292.59Z" fill="#FF6F98"/>
<path d="M265.31 213.708L261.926 166.618L269.487 166.074C279.701 165.34 285.208 169.611 285.789 177.703C286.19 183.274 283.95 187.369 278.536 189.958C280.801 190.862 281.669 192.733 282.95 195.707L289.85 211.945L282.687 212.46L275.729 195.426C274.999 193.612 274.084 192.944 272.294 193.073L270.901 193.173L272.34 213.203L265.31 213.708ZM272.442 186.796C277.019 186.467 279.15 183.647 278.811 178.938C278.482 174.361 276.051 172.069 271.408 172.403L269.419 172.546L270.453 186.939L272.442 186.796Z" fill="#FF6F98"/>
<path d="M246.917 215.697C238.958 216.269 233.624 207.918 232.509 192.398C231.394 176.878 235.479 167.851 243.438 167.279C251.397 166.708 256.73 175.058 257.845 190.578C258.96 206.098 254.876 215.125 246.917 215.697ZM246.44 209.064C250.022 208.807 251.635 203.424 250.748 191.088C249.862 178.751 247.496 173.655 243.914 173.912C240.333 174.169 238.719 179.552 239.606 191.888C240.492 204.225 242.859 209.322 246.44 209.064Z" fill="#FF6F98"/>
<path d="M197 214.005V166.793H206.841L211.895 192.66L217.082 166.793H226.657V214.005H220.008V177.366L214.887 202.701H208.703L203.65 177.366V214.005H197Z" fill="#FF6F98"/>
<path d="M150 222V159H174.819V167.785H159.567V185.62H172.292V194.227H159.567V213.215H175V222H150Z" fill="#FF6F98"/>
<path d="M131.914 222V194.227H120.086V222H111V159H120.086V185.442H131.914V159H141V222H131.914Z" fill="#FF6F98"/>
<path d="M84.8839 222V167.785H76V159H103V167.785H94.1161V222H84.8839Z" fill="#FF6F98"/>
<path d="M23 215V162H31.9502L42.5414 198.577V162H50V215H41.0497L30.4585 178.423V215H23Z" fill="#FF6F98"/>
<path d="M7 215V162H15V215H7Z" fill="#FF6F98"/>
<path d="M542.92 142.267C533.963 143.251 527.822 134.411 525.903 116.94C523.967 99.322 528.1 89.2032 537.131 88.211C544.608 87.3896 549.28 93.0946 551.568 105.73L544.633 107.391C543.195 99.0825 540.832 95.2965 537.722 95.6381C533.947 96.0528 532.343 102.597 533.807 115.922C535.279 129.321 538.479 135.263 542.403 134.832C545.808 134.458 547.336 129.27 546.419 119.556L540.348 120.223L539.584 113.265L553.205 111.768L553.473 114.211C555.393 131.682 551.803 141.291 542.92 142.267Z" fill="#FF6F98"/>
<path d="M492 142V83H501.613L512.989 123.718V83H521V142H511.387L500.011 101.282V142H492Z" fill="#FF6F98"/>
<path d="M475 142V83H484V142H475Z" fill="#FF6F98"/>
<path d="M462.126 142V118.635H451.874V142H444V89H451.874V111.245H462.126V89H470V142H462.126Z" fill="#FF6F98"/>
<path d="M422.91 138V95.8324H416V89H437V95.8324H430.09V138H422.91Z" fill="#FF6F98"/>
<path d="M380.568 144V98.3901H373V91H396V98.3901H388.432V144H380.568Z" fill="#FF6F98"/>
<path d="M356.977 142C349.645 142 345.466 136.748 344 125.43L350.965 124.542C351.845 131.866 353.457 134.603 356.683 134.603C359.249 134.603 360.716 132.605 360.716 129.351C360.716 118.699 345.026 114.704 345.026 100.723C345.026 93.474 349.718 88 356.61 88C364.088 88 368.34 93.7699 369 104.57L362.035 105.458C361.595 98.3562 359.909 95.3973 356.83 95.3973C354.337 95.3973 352.798 97.3205 352.798 100.649C352.798 110.784 368.487 114.852 368.487 129.129C368.487 136.97 363.868 142 356.977 142Z" fill="#FF6F98"/>
<path d="M313 142V89H321.627C333.281 89 339.184 94.2254 339.184 103.332C339.184 109.603 336.308 114.007 329.951 116.47C332.449 117.665 333.281 119.83 334.492 123.263L341 142H332.827L326.319 122.368C325.638 120.277 324.654 119.456 322.611 119.456H321.022V142H313ZM323.292 112.439C328.514 112.439 331.162 109.454 331.162 104.154C331.162 99.0028 328.589 96.2408 323.292 96.2408H321.022V112.439H323.292Z" fill="#FF6F98"/>
<path d="M299 138V91H306V138H299Z" fill="#FF6F98"/>
<path d="M277 144V97H295V103.554H284.2V117.058H293.574V123.677H284.2V144H277Z" fill="#FF6F98"/>
<path d="M239.104 141V117.882L226 83H235.04L243.749 108.569L252.374 83H261L247.896 117.882V141H239.104Z" fill="#FF6F98"/>
<path d="M209.323 142C199.565 142 194 131.562 194 112.164C194 92.6027 199.645 82 209.484 82C217.629 82 221.984 88.8219 222.952 102.959L215.29 103.945C214.726 94.6575 212.629 90.2192 209.242 90.2192C205.129 90.2192 202.629 97.2055 202.629 112C202.629 126.877 205.371 133.781 209.645 133.781C213.355 133.781 215.613 128.274 215.774 117.507H209.161V109.781H224V112.493C224 131.89 219 142 209.323 142Z" fill="#FF6F98"/>
<path d="M166.992 140.29L164.559 87.4709L173.039 87.0803C184.496 86.5526 190.539 91.4928 190.957 100.569C191.245 106.818 188.62 111.337 182.484 114.08C184.994 115.157 185.911 117.277 187.259 120.644L194.517 139.023L186.483 139.393L179.184 120.122C178.418 118.07 177.413 117.296 175.405 117.388L173.842 117.46L174.877 139.927L166.992 140.29ZM175.752 110.364C180.885 110.128 183.352 107.032 183.109 101.75C182.872 96.6173 180.216 93.9812 175.009 94.2211L172.777 94.3239L173.52 110.467L175.752 110.364Z" fill="#FF6F98"/>
<path d="M140.038 141.532L137.605 88.7124L158.064 87.77L158.403 95.135L145.83 95.7141L146.519 110.667L157.009 110.184L157.341 117.4L146.852 117.883L147.585 133.804L160.306 133.218L160.646 140.583L140.038 141.532Z" fill="#FF6F98"/>
<path d="M105.671 143.115L103.238 90.2954L112.166 89.8842L124.409 125.85L122.729 89.3976L130.169 89.0549L132.602 141.874L123.675 142.286L111.432 106.319L113.111 142.772L105.671 143.115Z" fill="#FF6F98"/>
<path d="M78.7221 144.356L76.2891 91.5369L96.7473 90.5945L97.0866 97.9595L84.514 98.5386L85.2028 113.492L95.6923 113.009L96.0247 120.225L85.5352 120.708L86.2685 136.628L98.9899 136.042L99.3291 143.407L78.7221 144.356Z" fill="#FF6F98"/>
<path d="M37 142V89H57V96.3901H45V111.618H55.4151V119.083H45V142H37Z" fill="#FF6F98"/>
<path d="M16.5 142C7.39004 142 2 132.31 2 115C2 97.6904 7.39004 88 16.5 88C25.6099 88 31 97.6904 31 115C31 132.31 25.6099 142 16.5 142ZM16.5 134.603C20.5995 134.603 22.877 128.759 22.877 115C22.877 101.241 20.5995 95.3973 16.5 95.3973C12.4005 95.3973 10.123 101.241 10.123 115C10.123 128.759 12.4005 134.603 16.5 134.603Z" fill="#FF6F98"/>
<path d="M370.605 72.6423V22.5252H362.238V14.4048H387.666V22.5252H379.299V72.6423H370.605Z" fill="#FF6F98"/>
<path d="M344.557 73.4624C336.355 73.4624 331.68 67.6387 330.039 55.0889L337.831 54.1046C338.816 62.2251 340.62 65.26 344.229 65.26C347.1 65.26 348.741 63.0453 348.741 59.4362C348.741 47.6247 331.187 43.1954 331.187 27.6927C331.187 19.6543 336.437 13.5845 344.147 13.5845C352.514 13.5845 357.271 19.9824 358.009 31.958L350.217 32.9423C349.725 25.0679 347.838 21.7869 344.393 21.7869C341.605 21.7869 339.882 23.9196 339.882 27.6107C339.882 38.848 357.435 43.3594 357.435 59.1901C357.435 67.8848 352.268 73.4624 344.557 73.4624Z" fill="#FF6F98"/>
<path d="M296.109 72.6423V14.4048H305.46C318.092 14.4048 324.49 20.1465 324.49 30.1535C324.49 37.0436 321.373 41.883 314.483 44.5898C317.19 45.9022 318.092 48.2809 319.404 52.0541L326.459 72.6423H317.6L310.546 51.0698C309.807 48.7731 308.741 47.8708 306.527 47.8708H304.804V72.6423H296.109ZM307.265 40.1605C312.924 40.1605 315.795 36.8795 315.795 31.0558C315.795 25.3961 313.006 22.3612 307.265 22.3612H304.804V40.1605H307.265Z" fill="#FF6F98"/>
<path d="M275.871 74.0005C267.477 74.0005 262.871 67.297 262.871 56.795V20.0005H270.745V56.795C270.745 63.4239 272.38 66.5522 275.871 66.5522C279.363 66.5522 280.997 63.4239 280.997 56.795V20.0005H288.871V56.795C288.871 67.297 284.265 74.0005 275.871 74.0005Z" fill="#FF6F98"/>
<path d="M230.871 73.0005V20.0005H241.96C251.177 20.0005 256.122 25.1512 256.122 33.5864C256.122 38.2146 254.623 42.992 249.303 45.6794C254.773 48.0681 256.871 52.323 256.871 58.2202C256.871 66.8047 251.701 73.0005 241.136 73.0005H230.871ZM242.035 66.2822C246.456 66.2822 248.929 62.8484 248.929 57.623C248.929 52.1737 246.456 49.2625 242.035 49.2625H238.813V66.2822H242.035ZM242.185 42.6934C245.857 42.6934 248.404 40.3047 248.404 34.5568C248.404 28.9582 245.857 26.7188 242.185 26.7188H238.813V42.6934H242.185Z" fill="#FF6F98"/>
<path d="M196.985 73.665C184.775 73.665 177.812 60.8493 177.812 37.0343C177.812 13.0175 184.876 0 197.187 0C207.379 0 212.828 8.37561 214.039 25.7323L204.453 26.9432C203.746 15.5403 201.123 10.0911 196.885 10.0911C191.738 10.0911 188.61 18.6685 188.61 36.8325C188.61 55.0974 192.041 63.5739 197.389 63.5739C202.031 63.5739 204.857 56.8128 205.058 43.5935H196.784V34.1079H215.351V37.4379C215.351 61.2529 209.095 73.665 196.985 73.665Z" fill="#A3CF43"/>
<path d="M158.328 72.656V1.00928H169.025V72.656H158.328Z" fill="#A3CF43"/>
<path d="M114.871 72.656V1.00928H129.806C142.218 1.00928 148.878 7.97213 148.878 19.3751C148.878 25.6315 146.86 32.0898 139.695 35.7226C147.062 38.9518 149.887 44.7037 149.887 52.6757C149.887 64.2804 142.924 72.656 128.696 72.656H114.871ZM129.907 63.574C135.861 63.574 139.191 58.9321 139.191 51.8684C139.191 44.5019 135.861 40.5664 129.907 40.5664H125.568V63.574H129.907ZM130.109 31.6862C135.053 31.6862 138.484 28.457 138.484 20.6869C138.484 13.1186 135.053 10.0913 130.109 10.0913H125.568V31.6862H130.109Z" fill="#A3CF43"/>
<path d="M86.9154 73.0006V32.3714H80.1328V25.7883H100.747V32.3714H93.964V73.0006H86.9154Z" fill="#FF6F98"/>
<path d="M53.8789 73.0006L62.3239 25.7883H71.5004L79.9454 73.0006H72.9633L71.5004 64.2896H62.1244L60.6615 73.0006H53.8789ZM62.8559 57.64H70.7689L66.8456 33.7679L62.8559 57.64Z" fill="#FF6F98"/>
<path d="M42.2915 73.0006V52.1873H33.115V73.0006H26.0664V25.7883H33.115V45.6042H42.2915V25.7883H49.34V73.0006H42.2915Z" fill="#FF6F98"/>
<path d="M6.7826 73.0006V32.3714H0V25.7883H20.6138V32.3714H13.8312V73.0006H6.7826Z" fill="#FF6F98"/>
</svg>
