<svg width="183" height="63" viewBox="0 0 183 63" fill="none" xmlns="http://www.w3.org/2000/svg">
<path d="M11.759 0L177.553 8.30072V62.9478L4.93011 60.0877L11.759 0Z" fill="#551405"/>
<path d="M28.6765 41.8061C24.8147 41.7901 22.5889 37.8255 22.6197 30.4134C22.6504 23.0013 24.9092 19.0554 28.771 19.0714C32.6328 19.0875 34.8587 23.052 34.8279 30.4641C34.7971 37.8763 32.5383 41.8222 28.6765 41.8061ZM28.6913 38.2558C30.155 38.2619 31.0046 36.1787 31.0284 30.4484C31.0522 24.718 30.22 22.6279 28.7562 22.6218C27.2925 22.6157 26.443 24.6988 26.4191 30.4292C26.3953 36.1596 27.2275 38.2497 28.6913 38.2558ZM43.3743 42.0229C39.7306 42.0078 37.7806 39.1033 37.7988 34.7121L37.8623 19.4207L41.5996 19.4362L41.536 34.7276C41.5254 37.2813 42.1122 38.4673 43.3891 38.4726C44.666 38.4779 45.2626 37.2969 45.2732 34.7431L45.3368 19.4517L49.074 19.4672L49.0104 34.7586C48.9922 39.1499 47.0181 42.038 43.3743 42.0229ZM52.3264 41.5929L52.4182 19.4811L56.1866 19.4968C61.1695 19.5175 63.5271 21.7697 63.5113 25.5691C63.5008 28.0918 62.4031 29.9558 59.8759 31.0354C60.9017 31.5068 61.2717 32.4115 61.7327 33.8772L64.1297 41.642L60.2679 41.6259L58.0273 33.7061C57.7819 32.8019 57.4095 32.4889 56.6309 32.4857L56.1015 32.4835L56.0636 41.6085L52.3264 41.5929ZM56.9561 29.1858C58.8247 29.1935 59.764 27.9828 59.7723 25.9896C59.7806 23.9964 58.8818 22.9338 56.9821 22.9259L56.1412 22.9224L56.1152 29.1823L56.9561 29.1858ZM78.0909 42.0114C74.3537 41.9959 72.2209 38.0941 72.252 30.6196C72.2831 23.1452 74.4793 19.2614 78.4033 19.2777C81.7045 19.2914 83.2832 21.6337 83.6619 27.9264L80.3278 28.3174C80.0962 24.112 79.5409 22.8328 78.3886 22.828C76.956 22.8221 76.0753 24.905 76.0515 30.6354C76.0277 36.3658 76.891 38.456 78.3236 38.462C79.4759 38.4668 80.1354 37.1615 80.4019 32.9893L83.7325 33.408C83.3019 39.6039 81.4544 42.0254 78.0909 42.0114ZM86.6461 41.7355L86.738 19.6237L95.6139 19.6606L95.5993 23.1798L90.4606 23.1585L90.4372 28.7954L94.7038 28.8131L94.6895 32.2701L90.4228 32.2523L90.398 38.2319L95.5989 38.2535L95.5843 41.7727L86.6461 41.7355ZM98.6437 41.7854L98.7355 19.6736L102.504 19.6892C107.487 19.7099 109.844 21.9621 109.829 25.7616C109.818 28.2842 108.72 30.1483 106.193 31.2278C107.219 31.6992 107.589 32.604 108.05 34.0696L110.447 41.8344L106.585 41.8184L104.345 33.8985C104.099 32.9943 103.727 32.6813 102.948 32.6781L102.419 32.6759L102.381 41.8009L98.6437 41.7854ZM103.273 29.3782C105.142 29.386 106.081 28.1753 106.09 26.1821C106.098 24.1889 105.199 23.1263 103.299 23.1184L102.458 23.1149L102.432 29.3747L103.273 29.3782ZM112.892 41.8446L112.984 19.7328L121.859 19.7697L121.845 23.2889L116.706 23.2675L116.683 28.9045L120.949 28.9222L120.935 32.3791L116.668 32.3614L116.644 38.3409L121.845 38.3625L121.83 41.8817L112.892 41.8446ZM123.986 41.8907L127.815 19.7944L132.798 19.8151L136.443 41.9425L132.706 41.9269L132.131 38.0315L128.207 38.0152L127.599 41.9057L123.986 41.8907ZM128.533 34.5285L131.834 34.5422L130.228 23.7286L128.533 34.5285ZM138.924 41.9528L139.016 19.8409L142.754 19.8565L142.676 38.4491L147.41 38.4688L147.395 41.988L138.924 41.9528ZM154.875 42.3305C151.667 42.3171 149.839 40.0672 149.205 35.2372L152.539 34.8462C152.807 37.6814 153.488 38.7743 154.671 38.7792C155.606 38.7831 156.169 38.0691 156.174 36.8234C156.192 32.7125 149.659 30.9413 149.683 24.9929C149.696 21.9408 151.73 19.5823 154.782 19.595C158.083 19.6087 159.88 22.0766 160.172 26.6871L156.838 27.0781C156.662 24.3367 156.013 23.1505 154.892 23.1459C154.02 23.1423 153.426 23.825 153.42 25.0395C153.404 29.0259 159.937 30.8282 159.912 36.8078C159.898 40.1713 157.896 42.343 154.875 42.3305Z" fill="#FFFFFF"/>
</svg>
