<svg width="455" height="100" viewBox="0 0 455 100" fill="none" xmlns="http://www.w3.org/2000/svg">
<path d="M0 99.1353L454.607 89.883L454.607 5.06634L0 0.000228882V99.1353Z" fill="#551405"/>
<path d="M29.6225 63.5838L29.7464 33.7641L34.7863 33.785L34.6624 63.6048L29.6225 63.5838ZM46.293 64.0731C41.967 64.0551 39.5016 61.0209 38.6466 54.5072L43.1429 53.9799C43.505 57.8035 44.4229 59.2773 46.0189 59.2839C47.2788 59.2892 48.0389 58.3263 48.0458 56.6463C48.0689 51.1024 39.2587 48.7137 39.292 40.6918C39.3091 36.5758 42.0524 33.3952 46.1684 33.4123C50.6203 33.4308 53.0425 36.7589 53.4367 42.9766L48.9404 43.5039C48.7038 39.8069 47.8284 38.2073 46.3165 38.201C45.1405 38.1961 44.3386 39.1168 44.3318 40.7547C44.3095 46.1307 53.1195 48.5613 53.086 56.6253C53.0671 61.1612 50.3669 64.09 46.293 64.0731ZM65.6109 63.7334L65.7348 33.9136L70.7748 33.9346L70.6509 63.7543L65.6109 63.7334ZM78.7132 63.7878L78.8174 38.714L74.6594 38.6967L74.6791 33.9508L88.035 34.0063L88.0153 38.7522L83.8573 38.735L83.7531 63.8087L78.7132 63.7878ZM107.217 64.3262C102.891 64.3083 100.426 61.274 99.5707 54.7604L104.067 54.2331C104.429 58.0566 105.347 59.5304 106.943 59.5371C108.203 59.5423 108.963 58.5794 108.97 56.8995C108.993 51.3555 100.183 48.9669 100.216 40.9449C100.233 36.829 102.976 33.6484 107.092 33.6655C111.544 33.684 113.967 37.012 114.361 43.2297L109.865 43.7571C109.628 40.06 108.753 38.4604 107.241 38.4541C106.065 38.4492 105.263 39.3699 105.256 41.0079C105.234 46.3838 114.044 48.8145 114.01 56.8784C113.991 61.4144 111.291 64.3432 107.217 64.3262ZM125.578 64.6125C120.664 64.5921 118.034 60.6752 118.058 54.7532L118.144 34.1314L123.184 34.1523L123.098 54.7741C123.084 58.2181 123.875 59.8174 125.597 59.8246C127.319 59.8317 128.124 58.2391 128.138 54.7951L128.224 34.1733L133.264 34.1942L133.178 54.816C133.154 60.738 130.492 64.6329 125.578 64.6125ZM137.65 64.0327L137.774 34.2129L142.814 34.2339L142.69 64.0536L137.65 64.0327ZM150.752 64.0871L150.857 39.0133L146.699 38.9961L146.718 34.2501L160.074 34.3056L160.054 39.0516L155.897 39.0343L155.792 64.1081L150.752 64.0871ZM160.753 64.1287L165.916 34.3299L172.636 34.3578L177.552 64.1985L172.512 64.1775L171.736 58.9243L166.444 58.9023L165.625 64.1489L160.753 64.1287ZM166.884 54.2001L171.336 54.2186L169.17 39.6354L166.884 54.2001ZM180.898 64.2124L181.022 34.3926L187.406 34.4192C192.74 34.4413 195.584 37.3512 195.564 42.0971C195.554 44.6591 194.745 47.3018 191.714 48.8852C194.774 50.2419 195.94 52.6828 195.927 56.0008C195.907 60.7467 192.91 64.2623 186.82 64.237L180.898 64.2124ZM187.426 60.0395C189.652 60.0487 190.877 58.2898 190.889 55.5178C190.9 52.6618 189.688 51.1868 187.463 51.1775L185.993 51.1714L185.956 60.0334L187.426 60.0395ZM187.564 47.0619C189.328 47.0693 190.593 45.7725 190.605 42.7905C190.618 39.8086 189.363 38.6273 187.599 38.62L186.045 38.6135L186.01 47.0555L187.564 47.0619ZM199.826 64.291L199.95 34.4713L204.99 34.4922L204.886 59.566L211.27 59.5925L211.25 64.3385L199.826 64.291ZM214.816 64.3533L214.94 34.5336L226.91 34.5833L226.89 39.3293L219.96 39.3005L219.929 46.9024L225.683 46.9263L225.663 51.5883L219.909 51.5644L219.876 59.6283L226.89 59.6574L226.87 64.4034L214.816 64.3533ZM239.465 64.4557L239.589 34.636L251.139 34.684L251.119 39.4299L244.609 39.4029L244.577 47.1308L250.121 47.1539L250.101 51.8578L244.557 51.8348L244.505 64.4767L239.465 64.4557ZM262.057 64.9696C256.849 64.948 253.847 59.6014 253.889 49.6055C253.931 39.6096 256.977 34.2882 262.185 34.3099C267.393 34.3315 270.394 39.678 270.353 49.6739C270.311 59.6699 267.265 64.9912 262.057 64.9696ZM262.077 60.1816C264.051 60.1898 265.197 57.3806 265.229 49.6526C265.261 41.9247 264.139 39.106 262.165 39.0978C260.191 39.0896 259.045 41.8989 259.013 49.6268C258.981 57.3548 260.103 60.1734 262.077 60.1816ZM274.367 64.6007L274.491 34.781L279.573 34.8021C286.293 34.83 289.472 37.8673 289.451 42.9912C289.437 46.3932 287.956 48.9071 284.548 50.3629C285.932 50.9987 286.431 52.2188 287.053 54.1954L290.285 64.6669L285.077 64.6452L282.055 53.9646C281.724 52.7452 281.222 52.3231 280.172 52.3188L279.458 52.3158L279.407 64.6217L274.367 64.6007ZM280.611 47.8685C283.131 47.879 284.398 46.2463 284.409 43.5583C284.42 40.8703 283.208 39.4373 280.646 39.4266L279.512 39.4219L279.477 47.8638L280.611 47.8685ZM308.735 65.1635C304.409 65.1456 301.944 62.1113 301.089 55.5977L305.585 55.0704C305.947 58.8939 306.865 60.3677 308.461 60.3744C309.721 60.3796 310.481 59.4168 310.488 57.7368C310.511 52.1928 301.701 49.8042 301.734 41.7823C301.751 37.6663 304.494 34.4857 308.61 34.5028C313.062 34.5213 315.484 37.8494 315.879 44.067L311.382 44.5944C311.146 40.8974 310.27 39.2977 308.758 39.2914C307.582 39.2865 306.781 40.2072 306.774 41.8452C306.751 47.2212 315.561 49.6518 315.528 57.7157C315.509 62.2517 312.809 65.1805 308.735 65.1635ZM327.056 65.2397C322.016 65.2187 319.14 59.9567 319.182 49.8768C319.224 39.7969 322.186 34.5592 327.478 34.5812C331.93 34.5997 334.058 37.7585 334.569 46.2447L330.073 46.772C329.761 41.1007 329.012 39.3756 327.458 39.3691C325.526 39.3611 324.338 42.1702 324.306 49.8981C324.274 57.626 325.438 60.4449 327.37 60.4529C328.924 60.4594 329.813 58.6991 330.173 53.0725L334.665 53.6372C334.084 61.9928 331.592 65.2585 327.056 65.2397ZM348.674 64.9095L348.727 52.0996L343.687 52.0787L343.634 64.8885L338.594 64.8676L338.718 35.0479L343.758 35.0688L343.707 47.3327L348.747 47.3536L348.798 35.0897L353.838 35.1107L353.714 64.9304L348.674 64.9095ZM366.026 65.4016C360.818 65.38 357.816 60.0334 357.858 50.0375C357.899 40.0416 360.945 34.7202 366.153 34.7419C371.361 34.7635 374.363 40.11 374.322 50.1059C374.28 60.1018 371.234 65.4232 366.026 65.4016ZM366.046 60.6136C368.02 60.6218 369.166 57.8126 369.198 50.0846C369.23 42.3567 368.108 39.538 366.134 39.5298C364.16 39.5216 363.014 42.3309 362.982 50.0588C362.95 57.7867 364.072 60.6054 366.046 60.6136ZM386.02 65.4847C380.812 65.463 377.81 60.1165 377.852 50.1206C377.893 40.1247 380.94 34.8033 386.148 34.8249C391.356 34.8466 394.357 40.1931 394.316 50.189C394.274 60.1849 391.228 65.5063 386.02 65.4847ZM386.04 60.6967C388.014 60.7049 389.16 57.8956 389.192 50.1677C389.224 42.4398 388.102 39.6211 386.128 39.6129C384.154 39.6047 383.008 42.414 382.976 50.1419C382.944 57.8698 384.066 60.6885 386.04 60.6967ZM398.33 65.1158L398.454 35.2961L403.494 35.317L403.39 60.3908L409.774 60.4173L409.754 65.1633L398.33 65.1158ZM415.715 56.074C414.575 47.5012 420.086 45.256 420.104 40.9301C420.111 39.3761 419.527 38.4077 418.183 38.4021C416.545 38.3953 415.614 39.9874 415.18 43.4296L410.688 42.865C411.555 36.4845 414.339 33.5981 418.749 33.6164C422.781 33.6331 425.163 36.3731 425.147 40.363C425.12 46.915 418.433 48.8612 419.327 56.089L415.715 56.074ZM414.964 65.1849L414.988 59.347L420.028 59.3679L420.004 65.2059L414.964 65.1849Z" fill="#FFF2E2"/>
</svg>
