<svg width="394" height="304" viewBox="0 0 394 304" fill="none" xmlns="http://www.w3.org/2000/svg">
<path d="M286.486 182.584V109.444H298.848V182.584H286.486ZM310.176 182.584V109.444H324.186L337.165 157.243V109.444H348.703V182.584H334.693L321.713 134.785V182.584H310.176Z" fill="white"/>
<path d="M22.175 263.091C13.1742 263.34 7.84456 257.19 5.63504 243.696L14.9539 242.302C15.9602 250.232 17.9672 253.237 21.2879 253.146C23.9095 253.073 25.4268 251.02 25.3302 247.524C25.0114 235.99 6.52508 231.603 6.06369 214.913C5.82696 206.349 11.3234 199.55 19.8872 199.314C29.1501 199.058 34.4093 205.821 35.6407 218.73L26.3218 220.124C25.585 212.449 23.6581 209.179 20.5122 209.266C18.0654 209.334 16.4582 211.302 16.5524 214.71C16.8616 225.895 35.3503 230.369 35.8141 247.147C36.075 256.585 30.6514 262.856 22.175 263.091ZM60.9066 262.02C50.0708 262.32 43.4723 251.396 42.8973 230.598C42.3224 209.8 48.3074 198.528 59.1432 198.228C69.9791 197.929 76.5776 208.853 77.1525 229.651C77.7275 250.449 71.7425 261.721 60.9066 262.02ZM60.6313 252.058C64.7384 251.945 66.936 246.024 66.4915 229.946C66.047 213.867 63.5257 208.077 59.4186 208.19C55.3115 208.304 53.1139 214.224 53.5584 230.303C54.0029 246.382 56.5241 252.172 60.6313 252.058ZM86.4913 260.438L84.7762 198.394L95.2625 198.105L96.7046 250.274L109.987 249.907L110.26 259.781L86.4913 260.438ZM131.9 260.495C121.676 260.777 115.946 252.803 115.605 240.481L114.419 197.575L124.905 197.285L126.091 240.192C126.29 247.357 128.042 250.632 131.624 250.533C135.207 250.434 136.776 247.067 136.578 239.902L135.392 196.995L145.878 196.705L147.064 239.612C147.405 251.933 142.124 260.212 131.9 260.495ZM156.977 258.49L155.262 196.446L168.544 196.079C179.642 195.772 185.751 201.637 186.024 211.512C186.171 216.842 184.663 222.394 178.463 225.888C184.92 228.508 187.507 233.509 187.698 240.412C187.971 250.287 181.969 257.799 169.298 258.149L156.977 258.49ZM170.28 249.377C174.911 249.249 177.344 245.509 177.185 239.741C177.02 233.799 174.402 230.81 169.77 230.938L166.712 231.023L167.221 249.461L170.28 249.377ZM169.708 222.37C173.379 222.268 175.925 219.487 175.754 213.283C175.582 207.078 172.893 204.704 169.223 204.805L165.989 204.895L166.475 222.459L169.708 222.37ZM196.358 257.401L194.643 195.357L205.13 195.067L206.572 247.237L219.854 246.87L220.127 256.744L196.358 257.401ZM227.548 256.539L225.832 194.495L250.737 193.807L251.01 203.681L236.592 204.08L237.029 219.897L249.001 219.566L249.269 229.266L237.297 229.597L237.761 246.375L252.354 245.971L252.627 255.846L227.548 256.539Z" fill="white"/>
<path d="M265.605 246.957L265.436 197.467L284.605 197.402L284.632 205.278L273.827 205.315L273.871 218.141L283.072 218.109L283.099 225.916L273.898 225.948L273.969 246.929L265.605 246.957ZM290.892 246.871L290.723 197.381L299.087 197.352L299.256 246.842L290.892 246.871ZM306.921 246.816L306.752 197.326L317.347 197.29C326.199 197.26 330.956 202.053 330.983 209.93C330.997 214.182 329.688 218.578 324.678 221.244C329.774 223.457 331.74 227.493 331.758 232.999C331.785 240.876 326.856 246.748 316.749 246.783L306.921 246.816ZM317.701 239.809C321.396 239.796 323.407 236.862 323.391 232.261C323.375 227.521 321.345 225.089 317.651 225.101L315.211 225.11L315.262 239.817L317.701 239.809ZM317.767 218.27C320.695 218.26 322.779 216.092 322.762 211.143C322.745 206.194 320.647 204.249 317.719 204.259L315.14 204.268L315.188 218.279L317.767 218.27ZM338.334 246.709L338.165 197.219L346.599 197.19C357.752 197.152 363.067 202.153 363.096 210.657C363.115 216.303 360.69 220.493 355.052 222.952C357.356 223.99 358.199 226.008 359.256 229.281L364.752 246.619L356.109 246.648L350.96 228.961C350.395 226.941 349.556 226.247 347.814 226.253L346.629 226.257L346.699 246.68L338.334 246.709ZM348.486 218.862C352.668 218.848 354.75 216.122 354.735 211.661C354.719 207.2 352.69 204.837 348.438 204.851L346.556 204.858L346.604 218.868L348.486 218.862ZM370.224 246.6L370.055 197.11L389.92 197.042L389.947 204.919L378.446 204.958L378.489 217.575L388.039 217.542L388.065 225.279L378.516 225.312L378.561 238.695L390.202 238.655L390.229 246.532L370.224 246.6Z" fill="white"/>
<path d="M56.6423 182V133.649H37.6188V182H18.5953L18.5953 69.4442H37.6188V115.735H56.6423V69.4442H75.6658V182H56.6423ZM93.135 182V69.4442H112.159V182H93.135ZM158.601 183.585C138.785 183.585 127.53 163.769 127.53 125.881C127.53 87.8336 138.944 67.8589 158.76 67.8589C175.564 67.8589 184.125 80.8583 186.027 108.759L169.064 110.979C167.955 93.0651 164.467 85.9313 158.601 85.9313C151.309 85.9313 146.87 97.1868 146.87 125.722C146.87 154.416 151.785 165.513 159.077 165.513C165.577 165.513 169.064 156.952 169.698 137.929H158.126V121.125H188.088V126.356C188.088 164.245 178.101 183.585 158.601 183.585ZM241.558 182V133.649H222.535V182H203.511V69.4442H222.535V115.735H241.558V69.4442H260.582V182H241.558Z" fill="#4D0F00"/>
</svg>
