<svg width="245" height="75" viewBox="0 0 245 75" fill="none" xmlns="http://www.w3.org/2000/svg">
<path d="M4.52585 74.4482L240.789 67.5L240.789 3.80454L4.52585 7.62939e-06V74.4482Z" fill="#551405"/>
<path d="M20.6911 47.6586L18.821 25.5386L22.4025 25.5535L23.4858 42.1577L25.5893 30.6121L28.6413 30.6248L30.6489 42.1564L31.8701 25.5929L35.4515 25.6077L33.3976 47.7114L29.0687 47.6934L27.0908 36.5045L25.0201 47.6766L20.6911 47.6586ZM45.5192 47.7618L45.5587 38.263L41.8215 38.2475L41.782 47.7462L38.0448 47.7307L38.1367 25.6189L41.8739 25.6344L41.8361 34.7283L45.5733 34.7438L45.6111 25.65L49.3483 25.6655L49.2564 47.7773L45.5192 47.7618ZM56.3038 47.8066L56.3402 39.0553L51.5996 25.6748L55.4614 25.6909L58.3188 35.0771L61.2541 25.7149L64.929 25.7302L60.0774 39.0708L60.0411 47.8221L56.3038 47.8066ZM67.4331 30.5991C68.6179 30.2926 69.3368 29.6727 69.3413 28.5826L67.4727 28.5749L67.4886 24.7442L71.2258 24.7598L71.2107 28.4036C71.2047 29.8361 70.6353 31.9516 67.6429 32.5932L67.4331 30.5991ZM79.4195 48.2141C76.2117 48.2007 74.3836 45.9508 73.7496 41.1208L77.0836 40.7298C77.3521 43.565 78.0328 44.6579 79.2162 44.6628C80.1505 44.6667 80.7141 43.9527 80.7193 42.707C80.7363 38.5961 74.2035 36.8248 74.2282 30.8765C74.2409 27.8244 76.275 25.4659 79.3271 25.4786C82.6283 25.4923 84.4244 27.9602 84.7167 32.5707L81.3826 32.9617C81.2072 30.2203 80.5581 29.0341 79.4369 29.0295C78.5649 29.0258 77.9703 29.7085 77.9653 30.9231C77.9487 34.9095 84.4814 36.7118 84.4566 42.6914C84.4426 46.0549 82.4404 48.2266 79.4195 48.2141ZM93.744 47.9621L93.8359 25.8503L97.5731 25.8659L97.4813 47.9777L93.744 47.9621ZM103.46 48.0025L103.537 29.4099L100.454 29.3971L100.468 25.8779L110.372 25.919L110.357 29.4382L107.274 29.4254L107.197 48.018L103.46 48.0025ZM119.396 48.0687L119.488 25.9569L123.941 25.9754C128.924 25.9961 131.214 29.7118 131.183 37.0616C131.152 44.4114 128.832 48.1079 123.849 48.0872L119.396 48.0687ZM124.082 44.5689C126.262 44.578 127.36 42.5893 127.383 37.0458C127.407 31.5023 126.325 29.5046 124.145 29.4955L123.21 29.4916L123.148 44.565L124.082 44.5689ZM134.161 48.1301L134.253 26.0183L137.99 26.0338L137.898 48.1456L134.161 48.1301ZM141.323 48.1598L141.415 26.048L149.979 26.0836L149.965 29.6028L145.137 29.5827L145.114 35.3131L149.224 35.3302L149.21 38.8183L145.099 38.8012L145.06 48.1754L141.323 48.1598ZM152.621 48.2068L152.713 26.095L161.277 26.1305L161.263 29.6497L156.435 29.6297L156.412 35.3601L160.522 35.3772L160.508 38.8652L156.397 38.8481L156.358 48.2223L152.621 48.2068ZM163.919 48.2537L164.011 26.1419L172.887 26.1788L172.872 29.698L167.733 29.6766L167.71 35.3136L171.977 35.3313L171.962 38.7882L167.696 38.7705L167.671 44.75L172.872 44.7716L172.857 48.2909L163.919 48.2537ZM175.916 48.3036L176.008 26.1918L179.777 26.2074C184.76 26.2281 187.117 28.4803 187.101 32.2798C187.091 34.8024 185.993 36.6665 183.466 37.746C184.492 38.2174 184.862 39.1221 185.323 40.5878L187.72 48.3526L183.858 48.3366L181.617 40.4167C181.372 39.5125 181 39.1995 180.221 39.1963L179.691 39.1941L179.654 48.3191L175.916 48.3036ZM180.546 35.8964C182.415 35.9041 183.354 34.6934 183.362 32.7002C183.371 30.7071 182.472 29.6444 180.572 29.6365L179.731 29.6331L179.705 35.8929L180.546 35.8964ZM190.164 48.3628L190.256 26.251L199.132 26.2878L199.118 29.807L193.979 29.7857L193.956 35.4226L198.222 35.4404L198.208 38.8973L193.941 38.8796L193.916 44.8591L199.117 44.8807L199.103 48.3999L190.164 48.3628ZM202.162 48.4126L202.254 26.3008L206.489 26.3184L210.353 40.7852L210.413 26.3347L213.902 26.3492L213.81 48.461L209.574 48.4434L205.71 33.9766L205.65 48.4271L202.162 48.4126ZM219.785 48.4858L219.862 29.8932L216.779 29.8804L216.794 26.3612L226.697 26.4024L226.683 29.9216L223.599 29.9088L223.522 48.5014L219.785 48.4858Z" fill="#FFFFFF"/>
</svg>
