<svg width="264" height="310" viewBox="0 0 264 310" fill="none" xmlns="http://www.w3.org/2000/svg">
<path d="M36.1882 148.85C23.8791 148.499 17.2383 135.99 17.9091 112.455C18.5827 88.8214 26.0265 76.6158 38.3357 76.9667C48.7739 77.2642 53.8613 85.4906 54.549 102.856L43.973 103.934C43.6009 92.7868 41.5608 88.2937 37.9172 88.1899C33.3875 88.0608 30.4309 94.9738 29.9257 112.699C29.4177 130.523 32.2739 137.503 36.8036 137.632C40.8411 137.747 43.159 132.491 43.8898 120.686L36.7012 120.481L36.9987 110.043L55.6102 110.573L55.5176 113.823C54.8468 137.358 48.3005 149.195 36.1882 148.85ZM64.1128 148.66L66.1056 78.7438L78.0209 79.0834C93.7767 79.5325 101.059 86.8359 100.716 98.8496C100.489 106.826 96.8738 112.636 88.7992 115.855C92.0068 117.425 93.107 120.315 94.4522 124.985L101.434 149.724L89.2236 149.376L82.7479 124.159C82.0415 121.28 80.8879 120.262 78.4261 120.192L76.752 120.144L75.9296 148.997L64.1128 148.66ZM79.7083 109.782C85.6167 109.95 88.6804 106.194 88.86 99.8915C89.0397 93.5892 86.2794 90.1597 80.2725 89.9884L77.6137 89.9127L77.0495 109.706L79.7083 109.782Z" fill="#4D0F00"/>
<path d="M105.5 162.251L119.358 63.7705L141.447 63.1598L160.724 160.724L144.157 161.182L141.057 143.997L123.661 144.478L121.515 161.808L105.5 162.251ZM124.615 128.977L139.249 128.573L130.607 80.8683L124.615 128.977ZM171.723 160.42L169.013 62.3978L185.58 61.9398L188.29 159.962L171.723 160.42ZM203.471 159.543L200.761 61.5202L219.537 61.0012L238.704 124.58L236.933 60.5203L252.396 60.0928L255.105 158.115L236.329 158.634L217.163 95.0555L218.934 159.115L203.471 159.543Z" fill="#4D0F00"/>
<path d="M108.085 250.385L107.828 175.114L138.042 175.011L138.083 186.991L120.591 187.05L120.656 206.239L135.18 206.189L135.22 217.957L120.696 218.007L120.766 238.362L138.47 238.301L138.511 250.281L108.085 250.385ZM148.926 250.245L148.669 174.975L178.883 174.872L178.924 186.851L161.431 186.911L161.497 206.1L176.021 206.05L176.061 217.818L161.537 217.867L161.606 238.222L179.311 238.162L179.352 250.141L148.926 250.245Z" fill="white"/>
<path d="M7.21767 252.449L6.91798 164.672L40.9164 164.555L40.9641 178.526L21.8014 178.591L21.879 201.339L38.1983 201.283L38.2456 215.13L21.9263 215.186L22.0534 252.399L7.21767 252.449ZM52.0676 252.296L51.7679 164.518L66.7272 164.467C86.5081 164.4 95.9344 173.269 95.9859 188.352C96.0201 198.366 91.7184 205.799 81.7191 210.16C85.8052 212.001 87.301 215.581 89.1753 221.385L98.9236 252.136L83.5934 252.189L74.4612 220.817C73.4599 217.235 71.9721 216.004 68.8813 216.015L66.7796 216.022L66.9033 252.246L52.0676 252.296ZM70.0729 202.906C77.4907 202.88 81.1832 198.046 81.1562 190.134C81.1292 182.221 77.5295 178.03 69.988 178.056L66.65 178.067L66.7349 202.917L70.0729 202.906Z" fill="white"/>
</svg>
