<svg width="339" height="294" viewBox="0 0 339 294" fill="none" xmlns="http://www.w3.org/2000/svg">
<path d="M6.96613 142.38L6.66612 54.5102L23.4976 54.4527L39.2875 111.824L39.0915 54.3995L52.9527 54.3521L53.2527 142.222L36.4212 142.28L20.6313 84.908L20.8273 142.333L6.96613 142.38ZM89.5024 143.336C74.156 143.389 65.1916 127.701 65.091 98.2463C64.9905 68.7912 73.8476 53.0432 89.1939 52.9908C104.54 52.9384 113.505 68.6256 113.605 98.0807C113.706 127.536 104.849 143.284 89.5024 143.336ZM89.4542 129.227C95.271 129.208 98.5842 120.904 98.5065 98.1322C98.4287 75.3602 95.0589 67.0797 89.2421 67.0995C83.4253 67.1194 80.1121 75.4228 80.1899 98.1948C80.2676 120.967 83.6375 129.247 89.4542 129.227Z" fill="#4D0F00"/>
<path d="M155.626 222.511C140.31 221.543 132.408 205.295 134.265 175.899C136.122 146.502 146.006 131.377 161.322 132.345C176.638 133.312 184.54 149.561 182.683 178.957C180.826 208.354 170.941 223.479 155.626 222.511ZM156.515 208.43C162.32 208.797 166.178 200.732 167.614 178.005C169.049 155.279 166.237 146.792 160.432 146.426C154.627 146.059 150.769 154.124 149.333 176.851C147.898 199.577 150.71 208.064 156.515 208.43ZM191.9 223.563L197.44 135.867L212.262 136.803L206.722 224.499L191.9 223.563ZM220.304 225.357L225.844 137.661L240.666 138.597L236.008 212.336L254.782 213.522L253.9 227.479L220.304 225.357Z" fill="white"/>
<path d="M272.242 209.109C261.451 209.629 254.907 202.384 251.925 186.252L263.068 184.35C264.471 193.838 266.952 197.393 270.933 197.202C274.076 197.05 275.845 194.55 275.643 190.36C274.977 176.531 252.695 171.725 251.731 151.716C251.236 141.45 257.662 133.16 267.928 132.665C279.033 132.13 285.507 140.113 287.302 155.567L276.159 157.469C275.086 148.281 272.694 144.406 268.923 144.587C265.989 144.729 264.11 147.129 264.307 151.215C264.953 164.624 287.24 169.535 288.209 189.649C288.754 200.963 282.403 208.619 272.242 209.109Z" fill="white"/>
<path d="M145.605 122.338C137.77 122.365 133.264 116.904 131.626 105.118L139.762 104.102C140.47 111.022 142.153 113.678 145.043 113.668C147.325 113.661 148.689 111.906 148.678 108.864C148.644 98.8227 132.655 94.6174 132.605 80.0884C132.58 72.6337 137.505 66.8356 144.959 66.8102C153.023 66.7827 157.455 72.777 158.254 84.0325L150.118 85.0491C149.639 78.3567 148.032 75.4716 145.293 75.4809C143.163 75.4882 141.724 77.1666 141.734 80.1333C141.767 89.87 157.756 94.1513 157.806 108.756C157.834 116.972 152.984 122.313 145.605 122.338ZM165.398 121.51L165.213 67.5017L186.893 67.4277L186.922 76.0234L174.371 76.0663L174.418 89.8346L184.839 89.799L184.868 98.2426L174.447 98.2781L174.496 112.883L187.2 112.84L187.229 121.436L165.398 121.51ZM194.702 121.41L194.517 67.4017L216.197 67.3277L216.226 75.9234L203.675 75.9662L203.722 89.7345L214.143 89.699L214.172 98.1425L203.751 98.1781L203.801 112.783L216.504 112.74L216.533 121.335L194.702 121.41ZM224.006 121.31L223.821 67.3016L234.699 67.2645C246.87 67.2229 252.53 76.2558 252.591 94.2079C252.653 112.16 247.054 121.231 234.883 121.273L224.006 121.31ZM235.387 112.675C240.711 112.657 243.357 107.78 243.311 94.2396C243.265 80.6995 240.586 75.8402 235.261 75.8584L232.979 75.8662L233.105 112.683L235.387 112.675Z" fill="white"/>
</svg>
