<svg width="401" height="308" viewBox="0 0 401 308" fill="none" xmlns="http://www.w3.org/2000/svg">
<path d="M6.96613 142.38L6.66612 54.5102L23.4976 54.4527L39.2875 111.824L39.0915 54.3995L52.9527 54.3521L53.2527 142.222L36.4212 142.28L20.6313 84.908L20.8273 142.333L6.96613 142.38ZM89.5024 143.336C74.156 143.389 65.1916 127.701 65.091 98.2463C64.9905 68.7912 73.8476 53.0432 89.1939 52.9908C104.54 52.9384 113.505 68.6256 113.605 98.0807C113.706 127.536 104.849 143.284 89.5024 143.336ZM89.4542 129.227C95.271 129.208 98.5842 120.904 98.5065 98.1322C98.4287 75.3602 95.0589 67.0797 89.2421 67.0995C83.4253 67.1194 80.1121 75.4228 80.1899 98.1948C80.2676 120.967 83.6375 129.247 89.4542 129.227Z" fill="#4D0F00"/>
<path d="M43.7056 243.534C28.8598 243.942 19.8987 228.712 19.083 199.021C18.2673 169.329 26.5024 153.627 42.0905 153.199C55.2043 152.838 61.7687 161.944 64.0635 186.89L50.8702 188.862C49.4216 172.187 47.0554 167.176 42.478 167.302C36.7871 167.458 33.5508 175.842 34.1762 198.606C34.8016 221.37 38.4933 229.563 44.1842 229.407C48.7616 229.281 51.2169 224.014 51.7512 207.409L65.0328 208.653C64.1009 233.317 57.0668 243.167 43.7056 243.534ZM100.325 241.979C84.9848 242.4 75.6457 226.933 74.8368 197.489C74.0279 168.045 82.5037 152.088 97.8444 151.667C113.185 151.245 122.524 166.712 123.333 196.157C124.142 225.601 115.666 241.557 100.325 241.979ZM99.938 227.875C105.753 227.715 108.865 219.335 108.24 196.571C107.614 173.808 104.046 165.611 98.2318 165.77C92.4172 165.93 89.3046 174.311 89.93 197.074C90.5554 219.838 94.1234 228.035 99.938 227.875ZM136.547 239.746L134.134 151.908L148.979 151.5L151.008 225.358L169.813 224.841L170.197 238.821L136.547 239.746ZM200.718 239.221C185.378 239.642 176.038 224.175 175.229 194.731C174.421 165.287 182.896 149.33 198.237 148.909C213.578 148.487 222.917 163.954 223.726 193.399C224.535 222.843 216.059 238.799 200.718 239.221ZM200.331 225.117C206.145 224.957 209.258 216.577 208.632 193.813C208.007 171.05 204.439 162.853 198.624 163.012C192.81 163.172 189.697 171.553 190.323 194.316C190.948 217.08 194.516 225.277 200.331 225.117ZM259.124 238.235C244.649 238.633 236.539 227.341 236.06 209.898L234.391 149.154L249.237 148.746L250.906 209.49C251.184 219.634 253.664 224.271 258.736 224.132C263.809 223.992 266.03 219.227 265.751 209.082L264.083 148.338L278.928 147.93L280.597 208.674C281.076 226.118 273.598 237.837 259.124 238.235ZM294.626 235.403L292.213 147.565L307.183 147.154C326.977 146.61 336.624 155.259 337.039 170.352C337.314 180.373 333.188 187.915 323.286 192.52C327.42 194.264 329.003 197.811 331.018 203.575L341.514 234.114L326.174 234.536L316.279 203.36C315.191 199.8 313.672 198.604 310.579 198.689L308.476 198.746L309.472 234.995L294.626 235.403ZM311.456 185.541C318.879 185.337 322.458 180.41 322.24 172.492C322.023 164.575 318.32 160.467 310.773 160.674L307.433 160.766L308.116 185.633L311.456 185.541ZM371.195 234.537C358.453 234.887 350.909 226.18 347.784 207.076L360.977 205.104C362.4 216.331 365.241 220.587 369.942 220.457C373.653 220.355 375.802 217.449 375.666 212.5C375.217 196.17 349.047 189.956 348.398 166.326C348.065 154.202 355.848 144.579 367.972 144.246C381.086 143.885 388.53 153.462 390.27 171.738L377.076 173.71C376.035 162.843 373.308 158.213 368.854 158.336C365.39 158.431 363.114 161.217 363.247 166.042C363.682 181.877 389.856 188.215 390.508 211.969C390.875 225.33 383.196 234.207 371.195 234.537Z" fill="white"/>
<path d="M123.014 135.388L131.958 81.3489L144.129 81.3073L153.441 135.285L144.313 135.316L142.835 125.812L133.251 125.845L131.838 135.358L123.014 135.388ZM133.982 117.323L142.045 117.295L137.924 90.9132L133.982 117.323ZM159.501 135.264L159.317 81.2555L168.521 81.2241C180.692 81.1825 186.492 86.6397 186.523 95.92C186.544 102.081 183.898 106.655 177.745 109.338C180.259 110.471 181.18 112.673 182.333 116.245L188.331 135.165L178.898 135.198L173.279 115.895C172.663 113.691 171.748 112.934 169.846 112.94L168.553 112.945L168.629 135.233L159.501 135.264ZM170.579 104.874C175.144 104.859 177.415 101.884 177.399 97.0161C177.382 92.1477 175.167 89.5689 170.527 89.5848L168.473 89.5918L168.526 104.881L170.579 104.874ZM199.351 135.128L199.196 89.7151L191.665 89.7408L191.636 81.1451L215.826 81.0625L215.855 89.6582L208.324 89.684L208.479 135.097L199.351 135.128ZM223.086 135.047L222.902 81.0384L232.03 81.0072L232.214 135.016L223.086 135.047ZM240.579 134.987L240.395 80.9787L261.313 80.9072L261.343 89.5029L249.552 89.5432L249.6 103.54L259.641 103.505L259.67 112.025L249.629 112.059L249.707 134.956L240.579 134.987ZM268.174 134.893L267.99 80.8844L277.118 80.8533L277.303 134.862L268.174 134.893ZM299.058 135.548C289.93 135.579 284.648 126.089 284.586 107.832C284.524 89.5759 289.816 80.0492 299.401 80.0165C307.464 79.989 311.363 85.6808 312.404 101.043L304.268 102.06C303.625 91.7928 302.245 88.6787 299.43 88.6883C295.931 88.7002 293.819 93.8041 293.866 107.801C293.914 121.797 296.061 126.886 299.561 126.874C302.375 126.865 303.962 123.665 304.535 113.469L312.678 114.43C311.741 129.571 307.273 135.52 299.058 135.548ZM319.948 134.716L319.764 80.7077L328.892 80.6765L329.076 134.685L319.948 134.716ZM335.161 134.664L344.105 80.6246L356.275 80.583L365.588 134.56L356.46 134.591L354.982 125.088L345.397 125.121L343.985 134.634L335.161 134.664ZM346.129 116.598L354.192 116.571L350.071 90.1889L346.129 116.598ZM371.648 134.54L371.463 80.5312L380.592 80.5L380.747 125.913L392.309 125.873L392.338 134.469L371.648 134.54Z" fill="white"/>
</svg>
