<svg width="1600" height="89" viewBox="0 0 1600 89" fill="none" xmlns="http://www.w3.org/2000/svg">
<rect width="1600" height="89" fill="#A3CF43"/>
<path d="M392.876 65.3519L391.408 30.3362L385.601 30.5797L385.323 23.9519L403.975 23.1699L404.253 29.7976L398.446 30.0411L399.914 65.0568L392.876 65.3519Z" fill="white"/>
<path d="M425.254 63.9943L424.504 46.1052L417.465 46.4003L418.215 64.2894L411.177 64.5845L409.431 22.9411L416.469 22.6459L417.187 39.7725L424.226 39.4774L423.508 22.3508L430.546 22.0557L432.292 63.6991L425.254 63.9943Z" fill="white"/>
<path d="M437.717 60.4116L437.455 26.6355L451.013 26.5301L451.055 31.9057L443.205 31.9667L443.272 40.5773L449.79 40.5266L449.831 45.8071L443.313 45.8578L443.384 54.9916L451.329 54.9298L451.371 60.3055L437.717 60.4116Z" fill="white"/>
<path d="M477.453 66.1056C470.939 66.0999 467.212 61.543 465.892 51.739L472.66 50.9228C473.224 56.6785 474.613 58.8933 477.017 58.8954C478.914 58.8971 480.054 57.4435 480.056 54.9137C480.063 46.5655 466.785 43.0122 466.796 30.9326C466.801 24.7347 470.916 19.9318 477.114 19.9372C483.818 19.9431 487.482 24.9427 488.106 34.3033L481.338 35.1195C480.964 29.5537 479.638 27.1493 477.361 27.1473C475.59 27.1457 474.387 28.536 474.385 31.0025C474.378 39.0977 487.656 42.7144 487.645 54.8572C487.639 61.6875 483.588 66.111 477.453 66.1056Z" fill="white"/>
<path d="M493.911 65.4877L493.951 20.5845L504.386 20.5937L508.54 43.7447L512.924 20.6013L523.043 20.6102L523.004 65.5134L515.92 65.5071L515.95 31.9878L511.376 55.0046L505.494 54.9994L501.024 31.9114L500.995 65.4939L493.911 65.4877Z" fill="white"/>
<path d="M541.521 66.1621C533.679 66.1552 529.132 58.1192 529.146 43.0672C529.159 28.0151 533.72 19.9872 541.562 19.9941C549.404 20.001 553.951 28.037 553.937 43.089C553.924 58.1411 549.363 66.169 541.521 66.1621ZM541.527 58.9523C544.5 58.9549 546.211 54.7191 546.222 43.0822C546.232 31.4454 544.528 27.2065 541.556 27.2039C538.583 27.2013 536.872 31.4371 536.861 43.074C536.851 54.7109 538.555 58.9497 541.527 58.9523Z" fill="white"/>
<path d="M571.629 66.1887C563.786 66.1818 559.24 58.1458 559.253 43.0937C559.267 28.0417 563.827 20.0137 571.669 20.0206C579.512 20.0276 584.058 28.0635 584.045 43.1156C584.032 58.1676 579.471 66.1956 571.629 66.1887ZM571.635 58.9789C574.608 58.9815 576.319 54.7457 576.329 43.1088C576.339 31.4719 574.636 27.2331 571.663 27.2304C568.691 27.2278 566.979 31.4637 566.969 43.1005C566.959 54.7374 568.663 58.9763 571.635 58.9789Z" fill="white"/>
<path d="M591.241 64.0301L594.117 25.5447L587.735 25.0677L588.28 17.7831L608.78 19.3153L608.235 26.5998L601.853 26.1228L598.977 64.6083L591.241 64.0301Z" fill="white"/>
<path d="M626.827 66.6898L628.296 47.0281L620.561 46.4499L619.091 66.1117L611.355 65.5335L614.776 19.7635L622.512 20.3417L621.105 39.1654L628.841 39.7436L630.248 20.9199L637.984 21.4981L634.563 67.268L626.827 66.6898Z" fill="white"/>
<path d="M1007.1 68.325L1001.9 17.1275L1010.56 16.2487L1014.93 59.2979L1025.89 58.1848L1026.72 66.3331L1007.1 68.325Z" fill="white"/>
<path d="M1033.48 64.2146L1024.5 21.9952L1041.45 18.3922L1042.88 25.1116L1033.06 27.1976L1035.35 37.9606L1043.5 36.2286L1044.9 42.8291L1036.76 44.5611L1039.18 55.9781L1049.11 53.8669L1050.54 60.5863L1033.48 64.2146Z" fill="white"/>
<path d="M909.906 67.4891L908.573 19.2189L916.731 18.9937L917.852 59.5814L928.186 59.2961L928.398 66.9785L909.906 67.4891Z" fill="white"/>
<path d="M934.171 66.8191L932.838 18.549L940.996 18.3237L942.329 66.5939L934.171 66.8191Z" fill="white"/>
<path d="M955.38 66.2336L954.259 25.6458L947.529 25.8317L947.316 18.1492L968.936 17.5523L969.148 25.2347L962.417 25.4206L963.538 66.0083L955.38 66.2336Z" fill="white"/>
<path d="M981.969 65.4994L980.848 24.9117L974.117 25.0975L973.905 17.4151L995.525 16.8182L995.737 24.5006L989.006 24.6865L990.127 65.2742L981.969 65.4994Z" fill="white"/>
<path d="M687.393 69.6402L689.637 26.8238L682.537 26.4516L682.962 18.3474L705.768 19.5427L705.344 27.647L698.243 27.2749L695.999 70.0913L687.393 69.6402Z" fill="white"/>
<path d="M668.687 66.2476C661.923 66.2132 658.072 61.4653 656.745 51.2795L663.776 50.4615C664.336 56.4405 665.769 58.7462 668.265 58.7589C670.235 58.7689 671.425 57.2645 671.438 54.6377C671.482 45.9694 657.71 42.2218 657.774 29.6789C657.807 23.2433 662.1 18.2741 668.536 18.3068C675.497 18.3421 679.279 23.5494 679.887 33.2718L672.856 34.0898C672.491 28.3089 671.125 25.8065 668.761 25.7944C666.922 25.7851 665.667 27.2235 665.654 29.7846C665.611 38.1903 679.383 42.0035 679.319 54.6121C679.283 61.7044 675.056 66.2799 668.687 66.2476Z" fill="white"/>
<path d="M701.823 66.703L714.407 22.3979L724.58 23.5144L727.255 69.4942L719.626 68.6569L719.29 60.5767L711.279 59.6974L709.198 67.5125L701.823 66.703ZM712.696 52.6462L719.436 53.3858L718.487 30.9534L712.696 52.6462Z" fill="white"/>
<path d="M735.584 64.9919L730.76 17.146L738.914 16.3238C749.696 15.2366 755.307 19.5722 756.136 27.7936C756.686 33.2521 754.735 37.5332 749.515 40.4422C751.841 41.2288 752.846 43.1015 754.176 46.1668L761.125 62.4166L752.769 63.2592L746.123 46.6385C745.387 44.7386 744.51 44.1463 742.826 44.3161L741.68 44.4317L743.671 64.1765L735.584 64.9919ZM742.779 37.105C746.823 36.6973 748.579 33.8653 748.144 29.5524C747.71 25.2396 745.524 23.1454 741.414 23.5599L739.594 23.7434L740.96 37.2885L742.779 37.105Z" fill="white"/>
<path d="M768.74 60.4285L767.87 26.4827L762.241 26.627L762.077 20.2017L780.158 19.7384L780.323 26.1637L774.694 26.3079L775.563 60.2537L768.74 60.4285Z" fill="white"/>
<path d="M803.238 64.2789L804.202 18.2174L822.043 18.5909L821.889 25.9219L811.834 25.7113L811.584 37.6484L820.147 37.8277L819.995 45.0937L811.431 44.9144L811.023 64.4419L803.238 64.2789Z" fill="white"/>
<path d="M838.124 65.6583C830.08 65.4899 825.581 57.1529 825.905 41.7126C826.228 26.2723 831.071 18.1309 839.116 18.2994C847.16 18.4678 851.659 26.8048 851.336 42.2451C851.012 57.6854 846.169 65.8268 838.124 65.6583ZM838.279 58.2625C841.328 58.3264 843.171 54.0164 843.421 42.0794C843.671 30.1423 842.01 25.759 838.961 25.6952C835.912 25.6313 834.069 29.9413 833.819 41.8783C833.569 53.8154 835.23 58.1987 838.279 58.2625Z" fill="white"/>
<path d="M859.006 68.1458L855.543 16.9558L864.267 16.3656C875.802 15.5852 881.633 20.4056 882.228 29.2016C882.623 35.0416 880.392 39.5382 874.723 42.4568C877.175 43.3773 878.182 45.4096 879.493 48.7251L886.331 66.2972L877.391 66.902L870.889 48.945C870.17 46.8932 869.256 46.2307 867.454 46.3527L866.228 46.4356L867.657 67.5605L859.006 68.1458ZM867.658 38.6614C871.984 38.3688 873.957 35.4106 873.644 30.7963C873.332 26.182 871.076 23.8721 866.678 24.1696L864.731 24.3013L865.711 38.7931L867.658 38.6614Z" fill="white"/>
<path d="M1091.54 58.7456L1091.22 19.3355L1107.04 19.2046L1107.09 25.4769L1097.93 25.5527L1098.01 35.5995L1105.62 35.5366L1105.67 41.6979L1098.06 41.7608L1098.15 52.4182L1107.42 52.3415L1107.47 58.6138L1091.54 58.7456Z" fill="white"/>
<path d="M1071.13 64.4005L1070.76 18.6246L1078.49 18.5606L1078.81 57.0511L1088.61 56.97L1088.67 64.2555L1071.13 64.4005Z" fill="white"/>
<path d="M1142.15 62.0289L1139.47 23.9247L1154.76 22.8483L1155.19 28.9128L1146.34 29.536L1147.02 39.2499L1154.37 38.7324L1154.79 44.6896L1147.44 45.207L1148.16 55.5112L1157.13 54.8805L1157.55 60.945L1142.15 62.0289Z" fill="white"/>
<path d="M1162.83 60.574L1160.14 22.4698L1167.44 21.9561L1175.96 46.3822L1174.2 21.4802L1180.22 21.0572L1182.9 59.1615L1175.6 59.6751L1167.08 35.2491L1168.84 60.151L1162.83 60.574Z" fill="white"/>
<path d="M1189.43 62.5252L1189.71 23.3261L1197.61 23.3832C1206.44 23.4471 1210.48 30.0467 1210.39 43.0762C1210.29 56.1058 1206.16 62.6462 1197.33 62.5823L1189.43 62.5252ZM1197.76 56.3464C1201.62 56.3743 1203.58 52.8549 1203.65 43.0275C1203.72 33.2001 1201.82 29.6527 1197.95 29.6248L1196.29 29.6128L1196.1 56.3344L1197.76 56.3464Z" fill="white"/>
<path d="M1224.61 63.3318C1218.92 63.2906 1215.69 59.2919 1214.59 50.726L1220.51 50.051C1220.97 55.0787 1222.17 57.0199 1224.27 57.035C1225.92 57.047 1226.92 55.7844 1226.94 53.576C1226.99 46.2883 1215.42 43.1126 1215.5 32.5675C1215.54 27.157 1219.16 22.987 1224.57 23.0261C1230.42 23.0684 1233.59 27.4532 1234.08 35.6283L1228.17 36.3033C1227.87 31.4424 1226.73 29.336 1224.74 29.3216C1223.2 29.3105 1222.14 30.5175 1222.12 32.6707C1222.07 39.7375 1233.64 42.9684 1233.57 53.5687C1233.52 59.5314 1229.96 63.3705 1224.61 63.3318Z" fill="white"/>
<path d="M1123.62 64.7392C1115.04 64.8102 1110.1 56.2736 1109.96 39.8747C1109.82 23.4072 1114.69 14.7208 1123.27 14.6499C1130.54 14.5897 1134.3 20.1855 1135.22 32.2549L1127.88 33.2762C1127.34 25.5267 1125.8 22.4515 1123.27 22.4725C1120.11 22.4986 1118.23 27.3862 1118.33 39.7368C1118.43 52.1561 1120.6 56.9415 1123.76 56.9154C1126.57 56.8922 1128.05 53.1745 1128.26 44.9384L1123.25 44.9799L1123.19 37.7067L1136.15 37.5994L1136.17 39.8637C1136.31 56.2626 1132.06 64.6694 1123.62 64.7392Z" fill="white"/>
</svg>
