<svg width="427" height="155" viewBox="0 0 427 155" fill="none" xmlns="http://www.w3.org/2000/svg">
<path d="M394.187 153.426L396.711 74.8979L426.782 75.8644L426.43 86.8141L407.95 86.2202L407.235 108.451L422.654 108.947L422.309 119.675L406.891 119.18L406.13 142.849L424.828 143.45L424.477 154.4L394.187 153.426Z" fill="#FFF2E2"/>
<path d="M360.755 152.351L362.927 84.7728L351.484 84.405L351.836 73.4553L386.613 74.573L386.261 85.5228L374.818 85.155L372.646 152.734L360.755 152.351Z" fill="#FFF2E2"/>
<path d="M313.41 150.83L315.934 72.3018L343.777 73.1966L343.425 84.1463L326.314 83.5964L325.599 105.828L339.876 106.286L339.531 117.015L325.255 116.556L324.494 140.225L341.807 140.782L341.456 151.731L313.41 150.83Z" fill="#FFF2E2"/>
<path d="M275 151V80H286.077C301.006 80 309 88.4 309 101.1C309 114.3 300.909 123.6 285.21 123.6V151H275ZM288.003 113.7C295.13 113.7 298.79 109.3 298.79 101.7C298.79 94.1 295.13 89.9 288.003 89.9H285.21V113.7H288.003Z" fill="#FFF2E2"/>
<path d="M225.44 146.878L223.713 116.514L204.594 71.6389L215.985 70.9909L228.869 103.95L237.828 69.7484L248.697 69.1301L234.791 115.884L236.518 146.248L225.44 146.878Z" fill="#FFF2E2"/>
<path d="M164.822 150.327L160.488 74.1477L171.473 73.5228L173.298 105.604L178.376 105.315L187.536 72.6091L198.313 71.996L187.52 108.885L203.579 148.122L192.491 148.753L179.395 115.913L173.902 116.226L175.807 149.702L164.822 150.327Z" fill="#FFF2E2"/>
<path d="M122 153V69H153.769V80.7127H134.245V104.493H150.534V115.969H134.245V141.287H154V153H122Z" fill="#FFF2E2"/>
<path d="M86 153V83H112.805V92.7606H96.3321V112.577H110.076V122.141H96.3321V143.239H113V153H86Z" fill="#FFF2E2"/>
<path d="M66.6114 150V121.786H54.3886V150H45V86H54.3886V112.862H66.6114V86H76V150H66.6114Z" fill="#FFF2E2"/>
<path d="M18.1337 151C6.53205 151 0 138.474 0 115.099C0 91.526 6.72702 79 18.6212 79C28.5655 79 33.4401 86.7918 34.7075 106.025L25.4457 107.208C24.6657 93.6959 22.5209 88.863 18.6212 88.863C13.454 88.863 10.4318 96.9507 10.4318 115C10.4318 133.049 13.454 141.137 18.6212 141.137C22.6184 141.137 24.9582 136.107 25.7382 122.792L35 123.975C33.7326 142.814 28.078 151 18.1337 151Z" fill="#FFF2E2"/>
<path d="M125.842 61.9838L123.05 11.0638L114.706 11.5213L114.254 3.27075L139.613 1.88027L140.065 10.1308L131.721 10.5883L134.513 61.5084L125.842 61.9838Z" fill="#FFF2E2"/>
<path d="M87.9124 64.0639L84.668 4.89331L108.445 3.58956L108.897 11.8401L94.2853 12.6413L95.2039 29.3924L107.395 28.724L107.838 36.8078L95.6471 37.4763L96.625 55.3108L111.41 54.5001L111.862 62.7506L87.9124 64.0639Z" fill="#FFF2E2"/>
<path d="M54.0662 65.9197L50.5273 1.38062L75.5249 0.00993826L76.0183 9.00906L60.6562 9.8514L61.658 28.1223L74.475 27.4196L74.9584 36.2369L62.1415 36.9397L63.2082 56.3923L78.7521 55.54L79.2455 64.5391L54.0662 65.9197Z" fill="#FFF2E2"/>
<path d="M3.53884 68.6905L0 4.15137L13.4532 3.41369L22.3005 38.3951L27.4519 2.64611L40.5415 1.92838L44.0803 66.4675L34.9903 66.9659L32.244 16.8799L27.1437 51.8967L18.6899 52.3602L9.88252 18.1061L12.6289 68.1921L3.53884 68.6905Z" fill="#FFF2E2"/>
</svg>
