<svg width="872" height="585" viewBox="0 0 872 585" fill="none" xmlns="http://www.w3.org/2000/svg">
<path d="M11.7586 313.186L0 12.1836L50.4498 10.2128C119.977 7.49676 155.284 41.7834 157.404 96.0487C159.59 152.01 127.688 194.017 58.1607 196.733L62.6323 311.199L11.7586 313.186ZM68.1598 148.363C94.4446 147.337 107.382 130.697 106.222 101.02C105.063 71.344 90.9004 56.6118 64.6157 57.6386L52.7452 58.1024L56.2893 148.827L68.1598 148.363Z" fill="#551405"/>
<path d="M202.817 305.723L191.058 4.72001L311.883 0L313.754 47.9061L243.803 50.6387L246.801 127.373L304.882 125.104L306.72 172.163L248.639 174.431L251.819 255.829L322.618 253.064L324.49 300.97L202.817 305.723Z" fill="#551405"/>
<path d="M343.384 275.842L371.968 54.426L421.537 52.4896L467.307 271.001L430.13 272.453L422.731 233.957L383.695 235.482L379.322 274.438L343.384 275.842ZM385.438 200.663L418.278 199.38L397.658 92.5178L385.438 200.663Z" fill="#551405"/>
<path d="M491.988 270.037L483.395 50.0731L525.529 48.4272L570.18 190.653L564.565 46.9022L599.263 45.5468L607.856 265.51L565.722 267.156L521.071 124.93L526.686 268.681L491.988 270.037Z" fill="#551405"/>
<path d="M696.897 266.686C660.649 268.102 640.006 240.053 638.299 196.37L632.357 44.254L669.534 42.8016L675.476 194.917C676.469 220.322 682.815 231.864 695.517 231.368C708.219 230.872 713.645 218.869 712.653 193.465L706.711 41.3493L743.888 39.897L749.83 192.013C751.536 235.696 733.144 265.27 696.897 266.686Z" fill="#551405"/>
<path d="M810.548 257.592L803.323 72.6369L772.651 73.8351L771.284 38.8268L869.803 34.9782L871.17 69.9865L840.499 71.1846L847.725 256.14L810.548 257.592Z" fill="#551405"/>
<path d="M570.848 556.502L560.898 301.807L663.135 297.813L664.719 338.349L605.529 340.661L608.065 405.591L657.211 403.671L658.766 443.489L609.621 445.409L612.312 514.284L672.219 511.944L673.802 552.48L570.848 556.502Z" fill="#551405"/>
<path d="M709.041 551.103L699.092 296.409L742.497 294.713C799.893 292.471 828.165 317.234 829.875 360.999C831.01 390.055 819.296 412.069 790.729 425.76C802.777 430.678 807.489 440.913 813.528 457.563L844.998 545.792L800.516 547.53L770.77 457.437C767.494 447.146 763.049 443.727 754.081 444.077L747.982 444.315L752.088 549.422L709.041 551.103ZM756.182 405.912C777.706 405.071 787.921 390.661 787.024 367.702C786.127 344.744 775.248 332.954 753.366 333.808L743.68 334.187L746.497 406.29L756.182 405.912Z" fill="#551405"/>
<path d="M447.246 584.375L437.866 344.258L398.047 345.813L396.272 300.364L524.174 295.368L525.949 340.817L486.131 342.372L495.511 582.49L447.246 584.375Z" fill="#551405"/>
<path d="M335.395 570.566L328.423 392.1L298.828 393.256L297.509 359.476L392.571 355.763L393.89 389.542L364.296 390.699L371.267 569.164L335.395 570.566Z" fill="#551405"/>
<path d="M34.1068 561.918L25.7926 349.088L71.3562 347.308C109.426 345.821 130.618 365.708 131.941 399.581C132.655 417.866 127.697 436.974 106.56 449.208C128.817 457.945 137.889 475.003 138.814 498.685C140.138 532.557 119.838 558.569 76.373 560.267L34.1068 561.918ZM79.3987 530.127C95.286 529.506 103.487 516.577 102.714 496.792C101.918 476.409 92.8152 466.257 76.9278 466.877L66.4362 467.287L68.9071 530.537L79.3987 530.127ZM76.3798 437.477C88.9697 436.985 97.5996 427.341 96.7681 406.058C95.9367 384.775 86.616 376.733 74.0261 377.225L62.9349 377.659L65.2886 437.91L76.3798 437.477Z" fill="#551405"/>
<path d="M222.417 559.065C187.345 560.435 167.372 533.295 165.72 491.029L159.971 343.846L195.942 342.441L201.692 489.623C202.652 514.204 208.792 525.372 221.083 524.892C233.373 524.412 238.623 512.799 237.663 488.218L231.913 341.036L267.885 339.63L273.634 486.813C275.285 529.079 257.49 557.695 222.417 559.065Z" fill="#551405"/>
</svg>
