<svg width="1116" height="594" viewBox="0 0 1116 594" fill="none" xmlns="http://www.w3.org/2000/svg">
<path d="M0 505.067L8.1113 396.177L32.2688 393.922L60.3937 499.429L42.2756 501.121L37.6451 482.515L18.6211 484.291L17.5142 503.432L0 505.067ZM18.5524 467.24L34.5567 465.746L21.6639 414.102L18.5524 467.24Z" fill="#551405"/>
<path d="M72.4217 498.307L62.4149 391.108L82.9487 389.191L108.512 457.472L101.973 387.415L118.883 385.837L128.89 493.035L108.356 494.952L82.7923 426.671L89.3319 496.728L72.4217 498.307Z" fill="#551405"/>
<path d="M145.478 491.487L135.471 384.288L157.062 382.273C181.219 380.018 194.069 396.942 197.396 432.574C200.722 468.206 191.226 487.216 167.069 489.471L145.478 491.487ZM166.533 472.312C177.102 471.325 181.484 461.169 178.976 434.293C176.467 407.418 170.28 398.249 159.711 399.235L155.182 399.658L162.003 472.734L166.533 472.312Z" fill="#551405"/>
<path d="M332.292 592.852C279.555 597.775 244.102 545.671 234.256 440.195C224.41 334.72 250.046 276.913 305.421 271.743C352.006 267.395 377.496 298.264 391.496 386.506L345.005 396.609C335.951 337.607 326.358 320.326 310.097 321.844C289.881 323.732 280.324 354.325 287.873 435.19C295.422 516.055 310.476 544.351 330.692 542.464C346.953 540.946 354.459 521.626 352.477 462.408L400.035 463.731C402.486 551.721 379.756 588.421 332.292 592.852Z" fill="#551405"/>
<path d="M452.592 577.189L423.464 265.157L476.641 260.193C546.958 253.629 583.313 282.154 588.318 335.771C591.641 371.369 578.72 399.174 544.558 417.879C559.677 423.117 566.14 435.37 574.661 455.41L619.155 561.641L564.66 566.728L522.157 458.094C517.452 445.678 511.767 441.775 500.78 442.801L493.309 443.498L505.33 572.266L452.592 577.189ZM500.827 395.806C527.196 393.344 538.78 374.974 536.154 346.847C533.529 318.72 519.389 304.967 492.581 307.47L480.715 308.577L488.961 396.913L500.827 395.806Z" fill="#551405"/>
<path d="M623 469.521L600.27 226.029L698.01 216.905L701.628 255.658L645.041 260.941L650.836 323.014L697.82 318.628L701.373 356.695L654.389 361.081L660.536 426.927L717.808 421.581L721.426 460.334L623 469.521Z" fill="#551405"/>
<path d="M748.835 474.501L768.77 206.879L828.142 201.337L897.266 460.645L852.736 464.802L841.356 419.076L794.6 423.44L791.88 470.483L748.835 474.501ZM794.431 381.533L833.766 377.861L802.079 250.933L794.431 381.533Z" fill="#551405"/>
<path d="M926.827 457.886L902.233 194.421L963.461 188.705L1000.63 322.234L1013.56 184.029L1072.93 178.487L1097.52 441.952L1055.96 445.831L1037.6 249.16L1023.49 386.727L988.984 389.948L949.994 256.964L968.388 454.006L926.827 457.886Z" fill="#551405"/>
<path d="M231.255 257.64L215.468 88.5222L244.29 85.8318C282.401 82.2742 302.104 97.7343 304.817 126.794C306.618 146.088 299.615 161.158 281.1 171.296C289.294 174.135 292.797 180.776 297.415 191.637L321.531 249.213L291.995 251.97L268.959 193.092C266.408 186.362 263.328 184.247 257.373 184.803L253.323 185.181L259.838 254.972L231.255 257.64ZM257.398 159.332C271.689 157.998 277.968 148.041 276.545 132.797C275.122 117.553 267.458 110.099 252.929 111.455L246.497 112.055L250.967 159.933L257.398 159.332Z" fill="#551405"/>
<path d="M335.182 247.939L347.979 76.1526L386.09 72.595L430.46 239.045L401.877 241.713L394.572 212.361L364.559 215.163L362.813 245.36L335.182 247.939ZM364.451 188.263L389.699 185.906L369.359 104.431L364.451 188.263Z" fill="#551405"/>
<path d="M451.27 237.102L420.477 69.385L447.87 66.828L468.534 192.963L476.006 103.125L499.349 100.946L523.297 187.611L520.281 60.0685L547.673 57.5115L548.454 228.03L515.345 231.121L491.88 147.055L484.379 234.012L451.27 237.102Z" fill="#551405"/>
<path d="M66.7288 356.63C37.548 359.354 18.9286 340.516 8.87989 297.158L38.8502 290.646C43.8066 316.189 50.965 325.523 61.7308 324.518C70.23 323.724 74.7213 316.732 73.6635 305.4C70.1726 268.003 9.19662 257.691 4.14536 203.579C1.55361 175.815 17.9588 152.565 45.7231 149.973C75.7539 147.169 94.2751 168.017 101.022 209.682L71.0519 216.195C67.0248 191.423 60.0704 181.212 49.8712 182.164C41.9386 182.905 37.1375 189.64 38.1689 200.689C41.5541 236.953 102.556 247.548 107.634 301.943C110.49 332.54 94.2098 354.065 66.7288 356.63Z" fill="#551405"/>
<path d="M144.977 341.85L123.928 116.368L86.537 119.859L82.553 77.1796L202.659 65.968L206.643 108.647L169.251 112.138L190.3 337.619L144.977 341.85Z" fill="#551405"/>
<path d="M581.931 190.981L568.689 49.1243L599.058 46.2893C624.432 43.9207 639.305 56.4385 641.413 79.0157C642.551 91.2034 639.929 104.145 626.253 113.08C641.435 118.112 648.111 129.178 649.584 144.962C651.692 167.54 639.073 185.647 610.102 188.351L581.931 190.981ZM611.034 168.11C621.623 167.122 626.634 158.189 625.403 145.003C624.135 131.416 617.688 124.964 607.099 125.953L600.106 126.606L604.041 168.763L611.034 168.11ZM605.671 106.335C614.062 105.552 619.478 98.7987 618.154 84.613C616.83 70.4274 610.313 65.3926 601.922 66.1759L594.529 66.866L598.278 107.025L605.671 106.335Z" fill="#551405"/>
<path d="M671.972 182.576L658.73 40.719L715.673 35.4036L717.78 57.9807L684.814 61.0581L688.189 97.2216L715.562 94.6664L717.632 116.844L690.26 119.399L693.841 157.76L727.207 154.646L729.314 177.223L671.972 182.576Z" fill="#551405"/>
<path d="M748.941 175.391L735.699 33.5341L759.875 31.2774C791.843 28.2932 808.37 41.2612 810.646 65.6366C812.156 81.8202 806.282 94.4609 790.751 102.965C797.625 105.346 800.563 110.916 804.437 120.027L824.665 168.322L799.89 170.635L780.567 121.248C778.428 115.603 775.844 113.828 770.849 114.295L767.453 114.612L772.917 173.153L748.941 175.391ZM770.87 92.9296C782.858 91.8106 788.124 83.4589 786.931 70.6719C785.737 57.8848 779.309 51.6325 767.121 52.7702L761.727 53.2738L765.476 93.4332L770.87 92.9296Z" fill="#551405"/>
<path d="M840.349 166.858L827.107 25.0014L851.283 22.7446C883.25 19.7605 899.778 32.7285 902.053 57.1039C903.564 73.2875 897.69 85.9282 882.159 94.4318C889.032 96.8133 891.971 102.384 895.844 111.494L916.072 159.789L891.297 162.102L871.975 112.715C869.836 107.07 867.252 105.296 862.257 105.762L858.86 106.079L864.325 164.62L840.349 166.858ZM862.278 84.3969C874.266 83.2779 879.532 74.9262 878.338 62.1391C877.145 49.3521 870.717 43.0998 858.529 44.2375L853.134 44.7411L856.883 84.9005L862.278 84.3969Z" fill="#551405"/>
<path d="M931.757 158.325L918.515 16.4687L942.49 14.2306L955.732 156.087L931.757 158.325Z" fill="#551405"/>
<path d="M977.702 154.036L964.46 12.1797L1021.4 6.86423L1023.51 29.4414L990.544 32.5188L993.919 68.6822L1021.29 66.1271L1023.36 88.3047L995.99 90.8598L999.571 129.221L1032.94 126.106L1035.04 148.684L977.702 154.036Z" fill="#551405"/>
<path d="M1086.27 145.917C1065.69 147.838 1052.56 134.553 1045.48 103.976L1066.61 99.3828C1070.11 117.397 1075.16 123.979 1082.75 123.27C1088.74 122.711 1091.91 117.78 1091.16 109.788C1088.7 83.4145 1045.7 76.1425 1042.14 37.9811C1040.31 18.4009 1051.88 2.00394 1071.46 0.176166C1092.64 -1.80082 1105.7 12.9015 1110.46 42.2851L1089.32 46.8781C1086.48 29.4078 1081.58 22.2071 1074.38 22.8785C1068.79 23.4008 1065.4 28.1507 1066.13 35.9428C1068.52 61.517 1111.54 68.9888 1115.12 107.35C1117.14 128.928 1105.65 144.108 1086.27 145.917Z" fill="#551405"/>
</svg>
