<svg width="546" height="64" viewBox="0 0 546 64" fill="none" xmlns="http://www.w3.org/2000/svg">
<path d="M533.496 58.9303C525.843 58.9564 521.441 53.6215 519.841 42.1098L527.788 41.1167C528.48 47.8761 530.123 50.4711 532.947 50.4615C535.176 50.4539 536.508 48.7403 536.497 45.7682C536.464 35.9601 520.846 31.8524 520.798 17.6604C520.773 10.3787 525.583 4.71514 532.865 4.69028C540.741 4.66339 545.071 10.5186 545.851 21.513L537.904 22.5061C537.436 15.9689 535.866 13.1507 533.191 13.1599C531.111 13.167 529.704 14.8065 529.714 17.7043C529.747 27.2151 545.365 31.3972 545.414 45.6634C545.441 53.6882 540.703 58.9057 533.496 58.9303Z" fill="#FF6F98"/>
<path d="M496.737 58.4117L496.58 12.6753L514.939 12.6127L514.964 19.8918L504.335 19.9281L504.375 31.5877L513.2 31.5575L513.225 38.7079L504.4 38.738L504.442 51.1061L515.199 51.0694L515.224 58.3486L496.737 58.4117Z" fill="#FF6F98"/>
<path d="M476.637 58.4805L476.506 20.0233L470.129 20.0451L470.104 12.7659L490.589 12.696L490.613 19.9752L484.236 19.9969L484.367 58.4541L476.637 58.4805Z" fill="#FF6F98"/>
<path d="M456.541 58.5491L456.385 12.8128L464.115 12.7864L464.271 58.5227L456.541 58.5491Z" fill="#FF6F98"/>
<path d="M427.072 58.6497L426.916 12.9134L434.711 12.8868C445.018 12.8516 449.929 17.4729 449.956 25.3318C449.974 30.5496 447.732 34.4224 442.522 36.6948C444.651 37.6538 445.431 39.5193 446.407 42.5436L451.487 58.5664L443.499 58.5936L438.741 42.2477C438.219 40.3813 437.444 39.7398 435.833 39.7453L434.738 39.749L434.803 58.6233L427.072 58.6497ZM436.454 32.9149C440.319 32.9017 442.243 30.3828 442.229 26.2601C442.215 22.1374 440.339 19.9535 436.41 19.967L434.671 19.9729L434.715 32.9208L436.454 32.9149Z" fill="#FF6F98"/>
<path d="M408.562 59.6792C401.025 59.7049 396.946 53.7279 396.915 44.6451L396.807 13.0162L404.537 12.9898L404.645 44.6187C404.663 49.9009 405.895 52.3446 408.536 52.3356C411.178 52.3266 412.393 49.8745 412.375 44.5923L412.267 12.9634L419.997 12.937L420.105 44.5659C420.136 53.6488 416.098 59.6534 408.562 59.6792Z" fill="#FF6F98"/>
<path d="M381.727 57.1904C373.799 58.1675 368.195 50.6152 366.32 35.3989C364.444 20.1826 368.047 11.4957 375.975 10.5186C383.903 9.54151 389.507 17.0938 391.382 32.3101C393.257 47.5264 389.655 56.2133 381.727 57.1904ZM380.829 49.9019C383.833 49.5316 385.032 45.0353 383.582 33.2714C382.132 21.5076 379.878 17.4367 376.873 17.8071C373.868 18.1774 372.67 22.6737 374.12 34.4376C375.57 46.2015 377.824 50.2723 380.829 49.9019Z" fill="#FF6F98"/>
<path d="M348.754 60.7285L335.807 16.2415L343.479 15.2959L352.84 49.6453L353.581 14.0509L360.997 13.1369L359.239 59.4362L348.754 60.7285Z" fill="#FF6F98"/>
<path d="M309.983 58.6738L317.557 12.9111L327.863 12.8759L335.75 58.5858L328.02 58.6122L326.768 50.5642L318.651 50.5919L317.455 58.6483L309.983 58.6738ZM319.271 43.375L326.099 43.3517L322.609 21.0105L319.271 43.375Z" fill="#FF6F98"/>
<path d="M290.369 58.7407L290.213 13.0044L307.928 12.9439L307.953 20.223L297.968 20.2571L298.009 32.1099L306.512 32.0809L306.536 39.2956L298.033 39.3247L298.099 58.7143L290.369 58.7407Z" fill="#FF6F98"/>
<path d="M0.156152 54.9733L0 9.23695L17.7148 9.17647L17.7396 16.4556L7.75494 16.4897L7.7954 28.3425L16.2985 28.3135L16.3231 35.5282L7.82004 35.5573L7.88624 54.9469L0.156152 54.9733Z" fill="#FF6F98"/>
<path d="M23.5251 54.8935L23.3689 9.15717L31.099 9.13077L31.2551 54.8671L23.5251 54.8935Z" fill="#FF6F98"/>
<path d="M38.3385 54.8429L38.1824 9.10659L46.9432 9.07668L55.1618 38.9386L55.0597 9.04897L62.2745 9.02434L62.4306 54.7607L53.6699 54.7906L45.4512 24.9286L45.5533 54.8183L38.3385 54.8429Z" fill="#FF6F98"/>
<path d="M69.508 54.7365L69.3518 9.00017L78.5635 8.96872C88.8703 8.93353 93.6634 16.5829 93.7153 31.7854C93.7672 46.9879 89.0265 54.6699 78.7197 54.7051L69.508 54.7365ZM79.1458 47.4244C83.655 47.409 85.8955 43.2786 85.8564 31.8123C85.8172 20.346 83.5485 16.231 79.0393 16.2463L77.1068 16.2529L77.2132 47.431L79.1458 47.4244Z" fill="#FF6F98"/>
<path d="M115.454 63.1841L115.274 10.4414L106.528 10.4713L106.494 0.488133L134.588 0.392215L134.622 10.3753L125.875 10.4052L126.056 63.1479L115.454 63.1841Z" fill="#FF6F98"/>
<path d="M164.223 63.0176L164.131 36.072L153.53 36.1082L153.622 63.0538L143.02 63.09L142.806 0.364156L153.407 0.327961L153.496 26.1251L164.097 26.0889L164.009 0.291765L174.611 0.25557L174.825 62.9814L164.223 63.0176Z" fill="#FF6F98"/>
<path d="M184.56 62.9482L184.346 0.222332L209.525 0.136367L209.559 10.1195L194.982 10.1693L195.036 26.1599L207.14 26.1186L207.173 35.9251L195.07 35.9664L195.128 52.9289L209.881 52.8785L209.915 62.8616L184.56 62.9482Z" fill="#FF6F98"/>
<path d="M218.594 62.832L218.38 0.106134L228.982 0.0699382L229.196 62.7958L218.594 62.832Z" fill="#FF6F98"/>
<path d="M238.91 62.7626L238.696 0.0367708L249.386 0.000273632C263.521 -0.047987 270.257 6.29002 270.294 17.0683C270.319 24.2243 267.245 29.5356 260.099 32.6522C263.019 33.9674 264.088 36.5259 265.427 40.6736L272.394 62.6483L261.439 62.6857L254.913 40.2678C254.197 37.7081 253.134 36.8283 250.925 36.8358L249.423 36.841L249.512 62.7264L238.91 62.7626ZM251.777 27.4681C257.078 27.45 259.716 23.9955 259.697 18.3413C259.678 12.6871 257.105 9.69212 251.716 9.71052L249.331 9.71867L249.392 27.4763L251.777 27.4681Z" fill="#FF6F98"/>
</svg>
